<svg width="3108" height="1908" viewBox="0 0 3108 1908" fill="none" xmlns="http://www.w3.org/2000/svg">
<g filter="url(#filter0_d_116_4)">
<rect x="4" width="3100" height="1900" fill="#D9D9D9"/>
<rect x="6.5" y="702.5" width="495" height="495" fill="url(#paint0_linear_116_4)" stroke="#F9D76C" stroke-width="5"/>
<rect x="6.5" y="2.5" width="495" height="495" fill="url(#paint1_linear_116_4)" stroke="#F9D76C" stroke-width="5"/>
<rect x="606.5" y="702.5" width="495" height="495" fill="url(#paint2_linear_116_4)" stroke="#F9D76C" stroke-width="5"/>
<rect x="1006.5" y="2.5" width="495" height="495" fill="url(#paint3_linear_116_4)" stroke="#F9D76C" stroke-width="5"/>
<rect x="2006.5" y="2.5" width="495" height="495" fill="url(#paint4_linear_116_4)" stroke="#F9D76C" stroke-width="5"/>
<rect x="2606.5" y="2.5" width="495" height="495" fill="url(#paint5_linear_116_4)" stroke="#F9D76C" stroke-width="5"/>
<rect x="606.5" y="702.5" width="495" height="495" fill="url(#paint6_linear_116_4)" stroke="#F9D76C" stroke-width="5"/>
<rect x="706.5" y="1402.5" width="695" height="495" fill="url(#paint7_linear_116_4)" stroke="#F9D76C" stroke-width="5"/>
<rect x="1706.5" y="702.5" width="795" height="495" fill="url(#paint8_linear_116_4)" stroke="#F9D76C" stroke-width="5"/>
<rect x="606.5" y="2.5" width="295" height="495" fill="url(#paint9_linear_116_4)" stroke="#F9D76C" stroke-width="5"/>
<path d="M604 0H504V500H604V0Z" fill="#8453FA"/>
<mask id="path-13-inside-1_116_4" fill="white">
<path d="M604 700H504V1200H604V700Z"/>
</mask>
<path d="M604 700H504V1200H604V700Z" fill="#8453FA"/>
<path d="M604 705H504V695H604V705ZM504 1195H604V1205H504V1195Z" fill="#F9D76C" mask="url(#path-13-inside-1_116_4)"/>
<rect x="-2.5" y="2.5" width="95" height="95" transform="matrix(-1 0 0 1 299 400)" fill="#F9D76C" stroke="#F9D76C" stroke-width="5"/>
<rect x="-2.5" y="2.5" width="95" height="95" transform="matrix(-1 0 0 1 299 400)" fill="#F9D76C" stroke="#F9D76C" stroke-width="5"/>
<rect x="-2.5" y="2.5" width="95" height="95" transform="matrix(-1 0 0 1 1299 400)" fill="#F9D76C" stroke="#F9D76C" stroke-width="5"/>
<rect x="-2.5" y="2.5" width="95" height="95" transform="matrix(-1 0 0 1 299 700)" fill="#F9D76C" stroke="#F9D76C" stroke-width="5"/>
<rect x="-2.50362" y="-2.49638" width="95" height="95" transform="matrix(-0.00144795 -0.999999 -0.999999 0.00144795 1099.14 895.004)" fill="#F9D76C" stroke="#F9D76C" stroke-width="5"/>
<rect x="-2.50362" y="-2.49638" width="95" height="95" transform="matrix(-0.00144795 -0.999999 -0.999999 0.00144795 1799.14 895.004)" fill="#F9D76C" stroke="#F9D76C" stroke-width="5"/>
<rect x="-2.50362" y="-2.49638" width="95" height="95" transform="matrix(-0.00144795 -0.999999 -0.999999 0.00144795 1099.14 1495)" fill="#F9D76C" stroke="#F9D76C" stroke-width="5"/>
<mask id="path-22-inside-2_116_4" fill="white">
<path d="M1004 0H904V500H1004V0Z"/>
</mask>
<path d="M1004 0H904V500H1004V0Z" fill="#8453FA"/>
<path d="M904 495H1004V505H904V495Z" fill="#F9D76C" mask="url(#path-22-inside-2_116_4)"/>
<mask id="path-24-inside-3_116_4" fill="white">
<path d="M2604 0H2504V500H2604V0Z"/>
</mask>
<path d="M2604 0H2504V500H2604V0Z" fill="#8453FA"/>
<path d="M2504 495H2604V505H2504V495Z" fill="#F9D76C" mask="url(#path-24-inside-3_116_4)"/>
<mask id="path-26-inside-4_116_4" fill="white">
<path d="M2604 700H2504V1200H2604V700Z"/>
</mask>
<path d="M2604 700H2504V1200H2604V700Z" fill="#8453FA"/>
<path d="M2604 705H2504V695H2604V705ZM2504 1195H2604V1205H2504V1195Z" fill="#F9D76C" mask="url(#path-26-inside-4_116_4)"/>
<mask id="path-28-inside-5_116_4" fill="white">
<path d="M2604 1400H2504V1900H2604V1400Z"/>
</mask>
<path d="M2604 1400H2504V1900H2604V1400Z" fill="#8453FA"/>
<path d="M2604 1405H2504V1395H2604V1405Z" fill="#F9D76C" mask="url(#path-28-inside-5_116_4)"/>
<mask id="path-30-inside-6_116_4" fill="white">
<path d="M2204 1400H2104V1900H2204V1400Z"/>
</mask>
<path d="M2204 1400H2104V1900H2204V1400Z" fill="#8453FA"/>
<path d="M2204 1405H2104V1395H2204V1405Z" fill="#F9D76C" mask="url(#path-30-inside-6_116_4)"/>
<mask id="path-32-inside-7_116_4" fill="white">
<path d="M1604 1400H1504V1900H1604V1400Z"/>
</mask>
<path d="M1604 1400H1504V1900H1604V1400Z" fill="#8453FA"/>
<path d="M1604 1405H1504V1395H1604V1405Z" fill="#F9D76C" mask="url(#path-32-inside-7_116_4)"/>
<mask id="path-34-inside-8_116_4" fill="white">
<path d="M1504 1400H1404V1900H1504V1400Z"/>
</mask>
<path d="M1504 1400H1404V1900H1504V1400Z" fill="#8453FA"/>
<path d="M1504 1405H1404V1395H1504V1405Z" fill="#F9D76C" mask="url(#path-34-inside-8_116_4)"/>
<mask id="path-36-inside-9_116_4" fill="white">
<path d="M704 1400H604V1900H704V1400Z"/>
</mask>
<path d="M704 1400H604V1900H704V1400Z" fill="#8453FA"/>
<path d="M704 1405H604V1395H704V1405Z" fill="#F9D76C" mask="url(#path-36-inside-9_116_4)"/>
<mask id="path-38-inside-10_116_4" fill="white">
<path d="M604 1400H504V1900H604V1400Z"/>
</mask>
<path d="M604 1400H504V1900H604V1400Z" fill="#8453FA"/>
<path d="M604 1405H504V1395H604V1405Z" fill="#F9D76C" mask="url(#path-38-inside-10_116_4)"/>
<rect x="2206.5" y="1402.5" width="295" height="495" fill="url(#paint10_linear_116_4)" stroke="#F9D76C" stroke-width="5"/>
<rect x="2606.5" y="702.5" width="495" height="495" fill="url(#paint11_linear_116_4)" stroke="#F9D76C" stroke-width="5"/>
<rect x="2606.5" y="1402.5" width="495" height="495" fill="url(#paint12_linear_116_4)" stroke="#F9D76C" stroke-width="5"/>
<rect x="1606.5" y="1402.5" width="495" height="495" fill="url(#paint13_linear_116_4)" stroke="#F9D76C" stroke-width="5"/>
<rect x="6.5" y="1402.5" width="495" height="495" fill="url(#paint14_linear_116_4)" stroke="#F9D76C" stroke-width="5"/>
<rect x="-2.50362" y="-2.49638" width="95" height="95" transform="matrix(-0.00144795 -0.999999 -0.999999 0.00144795 299.141 1495)" fill="#F9D76C" stroke="#F9D76C" stroke-width="5"/>
<rect x="-2.50362" y="-2.49638" width="95" height="95" transform="matrix(-0.00144795 -0.999999 -0.999999 0.00144795 1899.14 1495)" fill="#F9D76C" stroke="#F9D76C" stroke-width="5"/>
<rect x="-2.50362" y="-2.49638" width="95" height="95" transform="matrix(-0.00144795 -0.999999 -0.999999 0.00144795 2399.14 1495)" fill="#F9D76C" stroke="#F9D76C" stroke-width="5"/>
<rect x="-2.50362" y="-2.49638" width="95" height="95" transform="matrix(-0.00144795 -0.999999 -0.999999 0.00144795 2899.14 1495)" fill="#F9D76C" stroke="#F9D76C" stroke-width="5"/>
<rect x="-2.50362" y="-2.49638" width="95" height="95" transform="matrix(-0.00144795 -0.999999 -0.999999 0.00144795 2899.14 795.004)" fill="#F9D76C" stroke="#F9D76C" stroke-width="5"/>
<rect x="-2.50362" y="-2.49638" width="95" height="95" transform="matrix(-0.00144795 -0.999999 -0.999999 0.00144795 2899.14 488.004)" fill="#F9D76C" stroke="#F9D76C" stroke-width="5"/>
<rect x="-2.50362" y="-2.49638" width="95" height="95" transform="matrix(-0.00144795 -0.999999 -0.999999 0.00144795 2299.14 488.004)" fill="#F9D76C" stroke="#F9D76C" stroke-width="5"/>
<rect x="-2.50362" y="-2.49638" width="95" height="95" transform="matrix(-0.00144795 -0.999999 -0.999999 0.00144795 799.141 488.004)" fill="#F9D76C" stroke="#F9D76C" stroke-width="5"/>
<path d="M1898.65 968.6C1895.85 968.6 1893.17 968.233 1890.6 967.5C1888.03 966.733 1885.97 965.75 1884.4 964.55L1887.15 958.45C1888.65 959.517 1890.42 960.4 1892.45 961.1C1894.52 961.767 1896.6 962.1 1898.7 962.1C1900.3 962.1 1901.58 961.95 1902.55 961.65C1903.55 961.317 1904.28 960.867 1904.75 960.3C1905.22 959.733 1905.45 959.083 1905.45 958.35C1905.45 957.417 1905.08 956.683 1904.35 956.15C1903.62 955.583 1902.65 955.133 1901.45 954.8C1900.25 954.433 1898.92 954.1 1897.45 953.8C1896.02 953.467 1894.57 953.067 1893.1 952.6C1891.67 952.133 1890.35 951.533 1889.15 950.8C1887.95 950.067 1886.97 949.1 1886.2 947.9C1885.47 946.7 1885.1 945.167 1885.1 943.3C1885.1 941.3 1885.63 939.483 1886.7 937.85C1887.8 936.183 1889.43 934.867 1891.6 933.9C1893.8 932.9 1896.55 932.4 1899.85 932.4C1902.05 932.4 1904.22 932.667 1906.35 933.2C1908.48 933.7 1910.37 934.467 1912 935.5L1909.5 941.65C1907.87 940.717 1906.23 940.033 1904.6 939.6C1902.97 939.133 1901.37 938.9 1899.8 938.9C1898.23 938.9 1896.95 939.083 1895.95 939.45C1894.95 939.817 1894.23 940.3 1893.8 940.9C1893.37 941.467 1893.15 942.133 1893.15 942.9C1893.15 943.8 1893.52 944.533 1894.25 945.1C1894.98 945.633 1895.95 946.067 1897.15 946.4C1898.35 946.733 1899.67 947.067 1901.1 947.4C1902.57 947.733 1904.02 948.117 1905.45 948.55C1906.92 948.983 1908.25 949.567 1909.45 950.3C1910.65 951.033 1911.62 952 1912.35 953.2C1913.12 954.4 1913.5 955.917 1913.5 957.75C1913.5 959.717 1912.95 961.517 1911.85 963.15C1910.75 964.783 1909.1 966.1 1906.9 967.1C1904.73 968.1 1901.98 968.6 1898.65 968.6ZM1934.98 968V962.75L1934.48 961.6V952.2C1934.48 950.533 1933.97 949.233 1932.93 948.3C1931.93 947.367 1930.38 946.9 1928.28 946.9C1926.85 946.9 1925.43 947.133 1924.03 947.6C1922.67 948.033 1921.5 948.633 1920.53 949.4L1917.73 943.95C1919.2 942.917 1920.97 942.117 1923.03 941.55C1925.1 940.983 1927.2 940.7 1929.33 940.7C1933.43 940.7 1936.62 941.667 1938.88 943.6C1941.15 945.533 1942.28 948.55 1942.28 952.65V968H1934.98ZM1926.78 968.4C1924.68 968.4 1922.88 968.05 1921.38 967.35C1919.88 966.617 1918.73 965.633 1917.93 964.4C1917.13 963.167 1916.73 961.783 1916.73 960.25C1916.73 958.65 1917.12 957.25 1917.88 956.05C1918.68 954.85 1919.93 953.917 1921.63 953.25C1923.33 952.55 1925.55 952.2 1928.28 952.2H1935.43V956.75H1929.13C1927.3 956.75 1926.03 957.05 1925.33 957.65C1924.67 958.25 1924.33 959 1924.33 959.9C1924.33 960.9 1924.72 961.7 1925.48 962.3C1926.28 962.867 1927.37 963.15 1928.73 963.15C1930.03 963.15 1931.2 962.85 1932.23 962.25C1933.27 961.617 1934.02 960.7 1934.48 959.5L1935.68 963.1C1935.12 964.833 1934.08 966.15 1932.58 967.05C1931.08 967.95 1929.15 968.4 1926.78 968.4ZM1949.34 968V930.9H1957.14V968H1949.34ZM1964.38 968V930.9H1972.18V968H1964.38ZM1992.77 968.4C1989.71 968.4 1987.01 967.8 1984.67 966.6C1982.37 965.4 1980.59 963.767 1979.32 961.7C1978.06 959.6 1977.42 957.217 1977.42 954.55C1977.42 951.85 1978.04 949.467 1979.27 947.4C1980.54 945.3 1982.26 943.667 1984.42 942.5C1986.59 941.3 1989.04 940.7 1991.77 940.7C1994.41 940.7 1996.77 941.267 1998.87 942.4C2001.01 943.5 2002.69 945.1 2003.92 947.2C2005.16 949.267 2005.77 951.75 2005.77 954.65C2005.77 954.95 2005.76 955.3 2005.72 955.7C2005.69 956.067 2005.66 956.417 2005.62 956.75H1983.77V952.2H2001.52L1998.52 953.55C1998.52 952.15 1998.24 950.933 1997.67 949.9C1997.11 948.867 1996.32 948.067 1995.32 947.5C1994.32 946.9 1993.16 946.6 1991.82 946.6C1990.49 946.6 1989.31 946.9 1988.27 947.5C1987.27 948.067 1986.49 948.883 1985.92 949.95C1985.36 950.983 1985.07 952.217 1985.07 953.65V954.85C1985.07 956.317 1985.39 957.617 1986.02 958.75C1986.69 959.85 1987.61 960.7 1988.77 961.3C1989.97 961.867 1991.37 962.15 1992.97 962.15C1994.41 962.15 1995.66 961.933 1996.72 961.5C1997.82 961.067 1998.82 960.417 1999.72 959.55L2003.87 964.05C2002.64 965.45 2001.09 966.533 1999.22 967.3C1997.36 968.033 1995.21 968.4 1992.77 968.4ZM2042.43 968.6C2039.73 968.6 2037.21 968.167 2034.88 967.3C2032.58 966.4 2030.58 965.133 2028.88 963.5C2027.18 961.867 2025.84 959.95 2024.88 957.75C2023.94 955.55 2023.48 953.133 2023.48 950.5C2023.48 947.867 2023.94 945.45 2024.88 943.25C2025.84 941.05 2027.18 939.133 2028.88 937.5C2030.61 935.867 2032.63 934.617 2034.93 933.75C2037.23 932.85 2039.74 932.4 2042.48 932.4C2045.51 932.4 2048.24 932.933 2050.68 934C2053.14 935.033 2055.21 936.567 2056.88 938.6L2051.68 943.4C2050.48 942.033 2049.14 941.017 2047.68 940.35C2046.21 939.65 2044.61 939.3 2042.88 939.3C2041.24 939.3 2039.74 939.567 2038.38 940.1C2037.01 940.633 2035.83 941.4 2034.83 942.4C2033.83 943.4 2033.04 944.583 2032.48 945.95C2031.94 947.317 2031.68 948.833 2031.68 950.5C2031.68 952.167 2031.94 953.683 2032.48 955.05C2033.04 956.417 2033.83 957.6 2034.83 958.6C2035.83 959.6 2037.01 960.367 2038.38 960.9C2039.74 961.433 2041.24 961.7 2042.88 961.7C2044.61 961.7 2046.21 961.367 2047.68 960.7C2049.14 960 2050.48 958.95 2051.68 957.55L2056.88 962.35C2055.21 964.383 2053.14 965.933 2050.68 967C2048.24 968.067 2045.49 968.6 2042.43 968.6ZM2073.67 968.4C2070.8 968.4 2068.25 967.8 2066.02 966.6C2063.82 965.4 2062.07 963.767 2060.77 961.7C2059.5 959.6 2058.87 957.217 2058.87 954.55C2058.87 951.85 2059.5 949.467 2060.77 947.4C2062.07 945.3 2063.82 943.667 2066.02 942.5C2068.25 941.3 2070.8 940.7 2073.67 940.7C2076.5 940.7 2079.03 941.3 2081.27 942.5C2083.5 943.667 2085.25 945.283 2086.52 947.35C2087.78 949.417 2088.42 951.817 2088.42 954.55C2088.42 957.217 2087.78 959.6 2086.52 961.7C2085.25 963.767 2083.5 965.4 2081.27 966.6C2079.03 967.8 2076.5 968.4 2073.67 968.4ZM2073.67 962C2074.97 962 2076.13 961.7 2077.17 961.1C2078.2 960.5 2079.02 959.65 2079.62 958.55C2080.22 957.417 2080.52 956.083 2080.52 954.55C2080.52 952.983 2080.22 951.65 2079.62 950.55C2079.02 949.45 2078.2 948.6 2077.17 948C2076.13 947.4 2074.97 947.1 2073.67 947.1C2072.37 947.1 2071.2 947.4 2070.17 948C2069.13 948.6 2068.3 949.45 2067.67 950.55C2067.07 951.65 2066.77 952.983 2066.77 954.55C2066.77 956.083 2067.07 957.417 2067.67 958.55C2068.3 959.65 2069.13 960.5 2070.17 961.1C2071.2 961.7 2072.37 962 2073.67 962ZM2109.98 940.7C2112.11 940.7 2114.01 941.133 2115.68 942C2117.38 942.833 2118.71 944.133 2119.68 945.9C2120.65 947.633 2121.13 949.867 2121.13 952.6V968H2113.33V953.8C2113.33 951.633 2112.85 950.033 2111.88 949C2110.95 947.967 2109.61 947.45 2107.88 947.45C2106.65 947.45 2105.53 947.717 2104.53 948.25C2103.56 948.75 2102.8 949.533 2102.23 950.6C2101.7 951.667 2101.43 953.033 2101.43 954.7V968H2093.63V941.1H2101.08V948.55L2099.68 946.3C2100.65 944.5 2102.03 943.117 2103.83 942.15C2105.63 941.183 2107.68 940.7 2109.98 940.7ZM2129.15 968V940.5C2129.15 937.467 2130.05 935.05 2131.85 933.25C2133.65 931.417 2136.22 930.5 2139.55 930.5C2140.68 930.5 2141.77 930.617 2142.8 930.85C2143.87 931.083 2144.77 931.45 2145.5 931.95L2143.45 937.6C2143.02 937.3 2142.53 937.067 2142 936.9C2141.47 936.733 2140.9 936.65 2140.3 936.65C2139.17 936.65 2138.28 936.983 2137.65 937.65C2137.05 938.283 2136.75 939.25 2136.75 940.55V943.05L2136.95 946.4V968H2129.15ZM2125 947.7V941.7H2143.65V947.7H2125ZM2160.55 968.4C2157.48 968.4 2154.78 967.8 2152.45 966.6C2150.15 965.4 2148.36 963.767 2147.1 961.7C2145.83 959.6 2145.2 957.217 2145.2 954.55C2145.2 951.85 2145.81 949.467 2147.05 947.4C2148.31 945.3 2150.03 943.667 2152.2 942.5C2154.36 941.3 2156.81 940.7 2159.55 940.7C2162.18 940.7 2164.55 941.267 2166.65 942.4C2168.78 943.5 2170.46 945.1 2171.7 947.2C2172.93 949.267 2173.55 951.75 2173.55 954.65C2173.55 954.95 2173.53 955.3 2173.5 955.7C2173.46 956.067 2173.43 956.417 2173.4 956.75H2151.55V952.2H2169.3L2166.3 953.55C2166.3 952.15 2166.01 950.933 2165.45 949.9C2164.88 948.867 2164.1 948.067 2163.1 947.5C2162.1 946.9 2160.93 946.6 2159.6 946.6C2158.26 946.6 2157.08 946.9 2156.05 947.5C2155.05 948.067 2154.26 948.883 2153.7 949.95C2153.13 950.983 2152.85 952.217 2152.85 953.65V954.85C2152.85 956.317 2153.16 957.617 2153.8 958.75C2154.46 959.85 2155.38 960.7 2156.55 961.3C2157.75 961.867 2159.15 962.15 2160.75 962.15C2162.18 962.15 2163.43 961.933 2164.5 961.5C2165.6 961.067 2166.6 960.417 2167.5 959.55L2171.65 964.05C2170.41 965.45 2168.86 966.533 2167 967.3C2165.13 968.033 2162.98 968.4 2160.55 968.4ZM2154.85 937.65L2161.6 930.45H2170L2160.95 937.65H2154.85ZM2178.74 968V941.1H2186.19V948.7L2185.14 946.5C2185.94 944.6 2187.22 943.167 2188.99 942.2C2190.76 941.2 2192.91 940.7 2195.44 940.7V947.9C2195.11 947.867 2194.81 947.85 2194.54 947.85C2194.27 947.817 2193.99 947.8 2193.69 947.8C2191.56 947.8 2189.82 948.417 2188.49 949.65C2187.19 950.85 2186.54 952.733 2186.54 955.3V968H2178.74ZM2213.23 968.4C2210.16 968.4 2207.46 967.8 2205.13 966.6C2202.83 965.4 2201.05 963.767 2199.78 961.7C2198.51 959.6 2197.88 957.217 2197.88 954.55C2197.88 951.85 2198.5 949.467 2199.73 947.4C2201 945.3 2202.71 943.667 2204.88 942.5C2207.05 941.3 2209.5 940.7 2212.23 940.7C2214.86 940.7 2217.23 941.267 2219.33 942.4C2221.46 943.5 2223.15 945.1 2224.38 947.2C2225.61 949.267 2226.23 951.75 2226.23 954.65C2226.23 954.95 2226.21 955.3 2226.18 955.7C2226.15 956.067 2226.11 956.417 2226.08 956.75H2204.23V952.2H2221.98L2218.98 953.55C2218.98 952.15 2218.7 950.933 2218.13 949.9C2217.56 948.867 2216.78 948.067 2215.78 947.5C2214.78 946.9 2213.61 946.6 2212.28 946.6C2210.95 946.6 2209.76 946.9 2208.73 947.5C2207.73 948.067 2206.95 948.883 2206.38 949.95C2205.81 950.983 2205.53 952.217 2205.53 953.65V954.85C2205.53 956.317 2205.85 957.617 2206.48 958.75C2207.15 959.85 2208.06 960.7 2209.23 961.3C2210.43 961.867 2211.83 962.15 2213.43 962.15C2214.86 962.15 2216.11 961.933 2217.18 961.5C2218.28 961.067 2219.28 960.417 2220.18 959.55L2224.33 964.05C2223.1 965.45 2221.55 966.533 2219.68 967.3C2217.81 968.033 2215.66 968.4 2213.23 968.4ZM2247.77 940.7C2249.91 940.7 2251.81 941.133 2253.47 942C2255.17 942.833 2256.51 944.133 2257.47 945.9C2258.44 947.633 2258.92 949.867 2258.92 952.6V968H2251.12V953.8C2251.12 951.633 2250.64 950.033 2249.67 949C2248.74 947.967 2247.41 947.45 2245.67 947.45C2244.44 947.45 2243.32 947.717 2242.32 948.25C2241.36 948.75 2240.59 949.533 2240.02 950.6C2239.49 951.667 2239.22 953.033 2239.22 954.7V968H2231.42V941.1H2238.87V948.55L2237.47 946.3C2238.44 944.5 2239.82 943.117 2241.62 942.15C2243.42 941.183 2245.47 940.7 2247.77 940.7ZM2279.19 968.4C2276.29 968.4 2273.71 967.817 2271.44 966.65C2269.17 965.45 2267.39 963.8 2266.09 961.7C2264.82 959.6 2264.19 957.217 2264.19 954.55C2264.19 951.85 2264.82 949.467 2266.09 947.4C2267.39 945.3 2269.17 943.667 2271.44 942.5C2273.71 941.3 2276.29 940.7 2279.19 940.7C2282.02 940.7 2284.49 941.3 2286.59 942.5C2288.69 943.667 2290.24 945.35 2291.24 947.55L2285.19 950.8C2284.49 949.533 2283.61 948.6 2282.54 948C2281.51 947.4 2280.37 947.1 2279.14 947.1C2277.81 947.1 2276.61 947.4 2275.54 948C2274.47 948.6 2273.62 949.45 2272.99 950.55C2272.39 951.65 2272.09 952.983 2272.09 954.55C2272.09 956.117 2272.39 957.45 2272.99 958.55C2273.62 959.65 2274.47 960.5 2275.54 961.1C2276.61 961.7 2277.81 962 2279.14 962C2280.37 962 2281.51 961.717 2282.54 961.15C2283.61 960.55 2284.49 959.6 2285.19 958.3L2291.24 961.6C2290.24 963.767 2288.69 965.45 2286.59 966.65C2284.49 967.817 2282.02 968.4 2279.19 968.4ZM2308.74 968.4C2305.67 968.4 2302.97 967.8 2300.64 966.6C2298.34 965.4 2296.56 963.767 2295.29 961.7C2294.02 959.6 2293.39 957.217 2293.39 954.55C2293.39 951.85 2294.01 949.467 2295.24 947.4C2296.51 945.3 2298.22 943.667 2300.39 942.5C2302.56 941.3 2305.01 940.7 2307.74 940.7C2310.37 940.7 2312.74 941.267 2314.84 942.4C2316.97 943.5 2318.66 945.1 2319.89 947.2C2321.12 949.267 2321.74 951.75 2321.74 954.65C2321.74 954.95 2321.72 955.3 2321.69 955.7C2321.66 956.067 2321.62 956.417 2321.59 956.75H2299.74V952.2H2317.49L2314.49 953.55C2314.49 952.15 2314.21 950.933 2313.64 949.9C2313.07 948.867 2312.29 948.067 2311.29 947.5C2310.29 946.9 2309.12 946.6 2307.79 946.6C2306.46 946.6 2305.27 946.9 2304.24 947.5C2303.24 948.067 2302.46 948.883 2301.89 949.95C2301.32 950.983 2301.04 952.217 2301.04 953.65V954.85C2301.04 956.317 2301.36 957.617 2301.99 958.75C2302.66 959.85 2303.57 960.7 2304.74 961.3C2305.94 961.867 2307.34 962.15 2308.94 962.15C2310.37 962.15 2311.62 961.933 2312.69 961.5C2313.79 961.067 2314.79 960.417 2315.69 959.55L2319.84 964.05C2318.61 965.45 2317.06 966.533 2315.19 967.3C2313.32 968.033 2311.17 968.4 2308.74 968.4Z" fill="white"/>
<path d="M936.15 1667V1632H952.05C955.85 1632 959.2 1632.73 962.1 1634.2C965 1635.63 967.267 1637.65 968.9 1640.25C970.533 1642.85 971.35 1645.93 971.35 1649.5C971.35 1653.03 970.533 1656.12 968.9 1658.75C967.267 1661.35 965 1663.38 962.1 1664.85C959.2 1666.28 955.85 1667 952.05 1667H936.15ZM944.25 1660.35H951.65C953.983 1660.35 956 1659.92 957.7 1659.05C959.433 1658.15 960.767 1656.88 961.7 1655.25C962.667 1653.62 963.15 1651.7 963.15 1649.5C963.15 1647.27 962.667 1645.35 961.7 1643.75C960.767 1642.12 959.433 1640.87 957.7 1640C956 1639.1 953.983 1638.65 951.65 1638.65H944.25V1660.35ZM976.909 1667V1640.1H984.709V1667H976.909ZM980.809 1636.35C979.375 1636.35 978.209 1635.93 977.309 1635.1C976.409 1634.27 975.959 1633.23 975.959 1632C975.959 1630.77 976.409 1629.73 977.309 1628.9C978.209 1628.07 979.375 1627.65 980.809 1627.65C982.242 1627.65 983.409 1628.05 984.309 1628.85C985.209 1629.62 985.659 1630.62 985.659 1631.85C985.659 1633.15 985.209 1634.23 984.309 1635.1C983.442 1635.93 982.275 1636.35 980.809 1636.35ZM991.948 1667V1640.1H999.398V1647.7L998.348 1645.5C999.148 1643.6 1000.43 1642.17 1002.2 1641.2C1003.96 1640.2 1006.11 1639.7 1008.65 1639.7V1646.9C1008.31 1646.87 1008.01 1646.85 1007.75 1646.85C1007.48 1646.82 1007.2 1646.8 1006.9 1646.8C1004.76 1646.8 1003.03 1647.42 1001.7 1648.65C1000.4 1649.85 999.748 1651.73 999.748 1654.3V1667H991.948ZM1026.44 1667.4C1023.37 1667.4 1020.67 1666.8 1018.34 1665.6C1016.04 1664.4 1014.26 1662.77 1012.99 1660.7C1011.72 1658.6 1011.09 1656.22 1011.09 1653.55C1011.09 1650.85 1011.71 1648.47 1012.94 1646.4C1014.21 1644.3 1015.92 1642.67 1018.09 1641.5C1020.26 1640.3 1022.71 1639.7 1025.44 1639.7C1028.07 1639.7 1030.44 1640.27 1032.54 1641.4C1034.67 1642.5 1036.36 1644.1 1037.59 1646.2C1038.82 1648.27 1039.44 1650.75 1039.44 1653.65C1039.44 1653.95 1039.42 1654.3 1039.39 1654.7C1039.36 1655.07 1039.32 1655.42 1039.29 1655.75H1017.44V1651.2H1035.19L1032.19 1652.55C1032.19 1651.15 1031.91 1649.93 1031.34 1648.9C1030.77 1647.87 1029.99 1647.07 1028.99 1646.5C1027.99 1645.9 1026.82 1645.6 1025.49 1645.6C1024.16 1645.6 1022.97 1645.9 1021.94 1646.5C1020.94 1647.07 1020.16 1647.88 1019.59 1648.95C1019.02 1649.98 1018.74 1651.22 1018.74 1652.65V1653.85C1018.74 1655.32 1019.06 1656.62 1019.69 1657.75C1020.36 1658.85 1021.27 1659.7 1022.44 1660.3C1023.64 1660.87 1025.04 1661.15 1026.64 1661.15C1028.07 1661.15 1029.32 1660.93 1030.39 1660.5C1031.49 1660.07 1032.49 1659.42 1033.39 1658.55L1037.54 1663.05C1036.31 1664.45 1034.76 1665.53 1032.89 1666.3C1031.02 1667.03 1028.87 1667.4 1026.44 1667.4ZM1057.63 1667.4C1054.73 1667.4 1052.15 1666.82 1049.88 1665.65C1047.62 1664.45 1045.83 1662.8 1044.53 1660.7C1043.27 1658.6 1042.63 1656.22 1042.63 1653.55C1042.63 1650.85 1043.27 1648.47 1044.53 1646.4C1045.83 1644.3 1047.62 1642.67 1049.88 1641.5C1052.15 1640.3 1054.73 1639.7 1057.63 1639.7C1060.47 1639.7 1062.93 1640.3 1065.03 1641.5C1067.13 1642.67 1068.68 1644.35 1069.68 1646.55L1063.63 1649.8C1062.93 1648.53 1062.05 1647.6 1060.98 1647C1059.95 1646.4 1058.82 1646.1 1057.58 1646.1C1056.25 1646.1 1055.05 1646.4 1053.98 1647C1052.92 1647.6 1052.07 1648.45 1051.43 1649.55C1050.83 1650.65 1050.53 1651.98 1050.53 1653.55C1050.53 1655.12 1050.83 1656.45 1051.43 1657.55C1052.07 1658.65 1052.92 1659.5 1053.98 1660.1C1055.05 1660.7 1056.25 1661 1057.58 1661C1058.82 1661 1059.95 1660.72 1060.98 1660.15C1062.05 1659.55 1062.93 1658.6 1063.63 1657.3L1069.68 1660.6C1068.68 1662.77 1067.13 1664.45 1065.03 1665.65C1062.93 1666.82 1060.47 1667.4 1057.63 1667.4ZM1085.56 1667.4C1082.4 1667.4 1079.93 1666.6 1078.16 1665C1076.4 1663.37 1075.51 1660.95 1075.51 1657.75V1634.15H1083.31V1657.65C1083.31 1658.78 1083.61 1659.67 1084.21 1660.3C1084.81 1660.9 1085.63 1661.2 1086.66 1661.2C1087.9 1661.2 1088.95 1660.87 1089.81 1660.2L1091.91 1665.7C1091.11 1666.27 1090.15 1666.7 1089.01 1667C1087.91 1667.27 1086.76 1667.4 1085.56 1667.4ZM1071.36 1646.7V1640.7H1090.01V1646.7H1071.36ZM1096.29 1667V1640.1H1104.09V1667H1096.29ZM1100.19 1636.35C1098.76 1636.35 1097.59 1635.93 1096.69 1635.1C1095.79 1634.27 1095.34 1633.23 1095.34 1632C1095.34 1630.77 1095.79 1629.73 1096.69 1628.9C1097.59 1628.07 1098.76 1627.65 1100.19 1627.65C1101.63 1627.65 1102.79 1628.05 1103.69 1628.85C1104.59 1629.62 1105.04 1630.62 1105.04 1631.85C1105.04 1633.15 1104.59 1634.23 1103.69 1635.1C1102.83 1635.93 1101.66 1636.35 1100.19 1636.35ZM1124.13 1667.4C1121.27 1667.4 1118.72 1666.8 1116.48 1665.6C1114.28 1664.4 1112.53 1662.77 1111.23 1660.7C1109.97 1658.6 1109.33 1656.22 1109.33 1653.55C1109.33 1650.85 1109.97 1648.47 1111.23 1646.4C1112.53 1644.3 1114.28 1642.67 1116.48 1641.5C1118.72 1640.3 1121.27 1639.7 1124.13 1639.7C1126.97 1639.7 1129.5 1640.3 1131.73 1641.5C1133.97 1642.67 1135.72 1644.28 1136.98 1646.35C1138.25 1648.42 1138.88 1650.82 1138.88 1653.55C1138.88 1656.22 1138.25 1658.6 1136.98 1660.7C1135.72 1662.77 1133.97 1664.4 1131.73 1665.6C1129.5 1666.8 1126.97 1667.4 1124.13 1667.4ZM1124.13 1661C1125.43 1661 1126.6 1660.7 1127.63 1660.1C1128.67 1659.5 1129.48 1658.65 1130.08 1657.55C1130.68 1656.42 1130.98 1655.08 1130.98 1653.55C1130.98 1651.98 1130.68 1650.65 1130.08 1649.55C1129.48 1648.45 1128.67 1647.6 1127.63 1647C1126.6 1646.4 1125.43 1646.1 1124.13 1646.1C1122.83 1646.1 1121.67 1646.4 1120.63 1647C1119.6 1647.6 1118.77 1648.45 1118.13 1649.55C1117.53 1650.65 1117.23 1651.98 1117.23 1653.55C1117.23 1655.08 1117.53 1656.42 1118.13 1657.55C1118.77 1658.65 1119.6 1659.5 1120.63 1660.1C1121.67 1660.7 1122.83 1661 1124.13 1661ZM1160.45 1639.7C1162.58 1639.7 1164.48 1640.13 1166.15 1641C1167.85 1641.83 1169.18 1643.13 1170.15 1644.9C1171.11 1646.63 1171.6 1648.87 1171.6 1651.6V1667H1163.8V1652.8C1163.8 1650.63 1163.31 1649.03 1162.35 1648C1161.41 1646.97 1160.08 1646.45 1158.35 1646.45C1157.11 1646.45 1156 1646.72 1155 1647.25C1154.03 1647.75 1153.26 1648.53 1152.7 1649.6C1152.16 1650.67 1151.9 1652.03 1151.9 1653.7V1667H1144.1V1640.1H1151.55V1647.55L1150.15 1645.3C1151.11 1643.5 1152.5 1642.12 1154.3 1641.15C1156.1 1640.18 1158.15 1639.7 1160.45 1639.7Z" fill="white"/>
<path d="M166.65 1667.6C163.85 1667.6 161.167 1667.23 158.6 1666.5C156.033 1665.73 153.967 1664.75 152.4 1663.55L155.15 1657.45C156.65 1658.52 158.417 1659.4 160.45 1660.1C162.517 1660.77 164.6 1661.1 166.7 1661.1C168.3 1661.1 169.583 1660.95 170.55 1660.65C171.55 1660.32 172.283 1659.87 172.75 1659.3C173.217 1658.73 173.45 1658.08 173.45 1657.35C173.45 1656.42 173.083 1655.68 172.35 1655.15C171.617 1654.58 170.65 1654.13 169.45 1653.8C168.25 1653.43 166.917 1653.1 165.45 1652.8C164.017 1652.47 162.567 1652.07 161.1 1651.6C159.667 1651.13 158.35 1650.53 157.15 1649.8C155.95 1649.07 154.967 1648.1 154.2 1646.9C153.467 1645.7 153.1 1644.17 153.1 1642.3C153.1 1640.3 153.633 1638.48 154.7 1636.85C155.8 1635.18 157.433 1633.87 159.6 1632.9C161.8 1631.9 164.55 1631.4 167.85 1631.4C170.05 1631.4 172.217 1631.67 174.35 1632.2C176.483 1632.7 178.367 1633.47 180 1634.5L177.5 1640.65C175.867 1639.72 174.233 1639.03 172.6 1638.6C170.967 1638.13 169.367 1637.9 167.8 1637.9C166.233 1637.9 164.95 1638.08 163.95 1638.45C162.95 1638.82 162.233 1639.3 161.8 1639.9C161.367 1640.47 161.15 1641.13 161.15 1641.9C161.15 1642.8 161.517 1643.53 162.25 1644.1C162.983 1644.63 163.95 1645.07 165.15 1645.4C166.35 1645.73 167.667 1646.07 169.1 1646.4C170.567 1646.73 172.017 1647.12 173.45 1647.55C174.917 1647.98 176.25 1648.57 177.45 1649.3C178.65 1650.03 179.617 1651 180.35 1652.2C181.117 1653.4 181.5 1654.92 181.5 1656.75C181.5 1658.72 180.95 1660.52 179.85 1662.15C178.75 1663.78 177.1 1665.1 174.9 1666.1C172.733 1667.1 169.983 1667.6 166.65 1667.6ZM202.985 1667V1661.75L202.485 1660.6V1651.2C202.485 1649.53 201.968 1648.23 200.935 1647.3C199.935 1646.37 198.385 1645.9 196.285 1645.9C194.851 1645.9 193.435 1646.13 192.035 1646.6C190.668 1647.03 189.501 1647.63 188.535 1648.4L185.735 1642.95C187.201 1641.92 188.968 1641.12 191.035 1640.55C193.101 1639.98 195.201 1639.7 197.335 1639.7C201.435 1639.7 204.618 1640.67 206.885 1642.6C209.151 1644.53 210.285 1647.55 210.285 1651.65V1667H202.985ZM194.785 1667.4C192.685 1667.4 190.885 1667.05 189.385 1666.35C187.885 1665.62 186.735 1664.63 185.935 1663.4C185.135 1662.17 184.735 1660.78 184.735 1659.25C184.735 1657.65 185.118 1656.25 185.885 1655.05C186.685 1653.85 187.935 1652.92 189.635 1652.25C191.335 1651.55 193.551 1651.2 196.285 1651.2H203.435V1655.75H197.135C195.301 1655.75 194.035 1656.05 193.335 1656.65C192.668 1657.25 192.335 1658 192.335 1658.9C192.335 1659.9 192.718 1660.7 193.485 1661.3C194.285 1661.87 195.368 1662.15 196.735 1662.15C198.035 1662.15 199.201 1661.85 200.235 1661.25C201.268 1660.62 202.018 1659.7 202.485 1658.5L203.685 1662.1C203.118 1663.83 202.085 1665.15 200.585 1666.05C199.085 1666.95 197.151 1667.4 194.785 1667.4ZM217.344 1667V1629.9H225.144V1667H217.344ZM232.383 1667V1629.9H240.183V1667H232.383ZM260.772 1667.4C257.706 1667.4 255.006 1666.8 252.672 1665.6C250.372 1664.4 248.589 1662.77 247.322 1660.7C246.056 1658.6 245.422 1656.22 245.422 1653.55C245.422 1650.85 246.039 1648.47 247.272 1646.4C248.539 1644.3 250.256 1642.67 252.422 1641.5C254.589 1640.3 257.039 1639.7 259.772 1639.7C262.406 1639.7 264.772 1640.27 266.872 1641.4C269.006 1642.5 270.689 1644.1 271.922 1646.2C273.156 1648.27 273.772 1650.75 273.772 1653.65C273.772 1653.95 273.756 1654.3 273.722 1654.7C273.689 1655.07 273.656 1655.42 273.622 1655.75H251.772V1651.2H269.522L266.522 1652.55C266.522 1651.15 266.239 1649.93 265.672 1648.9C265.106 1647.87 264.322 1647.07 263.322 1646.5C262.322 1645.9 261.156 1645.6 259.822 1645.6C258.489 1645.6 257.306 1645.9 256.272 1646.5C255.272 1647.07 254.489 1647.88 253.922 1648.95C253.356 1649.98 253.072 1651.22 253.072 1652.65V1653.85C253.072 1655.32 253.389 1656.62 254.022 1657.75C254.689 1658.85 255.606 1659.7 256.772 1660.3C257.972 1660.87 259.372 1661.15 260.972 1661.15C262.406 1661.15 263.656 1660.93 264.722 1660.5C265.822 1660.07 266.822 1659.42 267.722 1658.55L271.872 1663.05C270.639 1664.45 269.089 1665.53 267.222 1666.3C265.356 1667.03 263.206 1667.4 260.772 1667.4ZM306.475 1667.6C303.609 1667.6 301.042 1666.9 298.775 1665.5C296.509 1664.07 294.725 1662 293.425 1659.3C292.125 1656.6 291.475 1653.33 291.475 1649.5C291.475 1645.67 292.125 1642.4 293.425 1639.7C294.725 1637 296.509 1634.95 298.775 1633.55C301.042 1632.12 303.609 1631.4 306.475 1631.4C309.375 1631.4 311.942 1632.12 314.175 1633.55C316.442 1634.95 318.225 1637 319.525 1639.7C320.825 1642.4 321.475 1645.67 321.475 1649.5C321.475 1653.33 320.825 1656.6 319.525 1659.3C318.225 1662 316.442 1664.07 314.175 1665.5C311.942 1666.9 309.375 1667.6 306.475 1667.6ZM306.475 1660.75C307.842 1660.75 309.025 1660.37 310.025 1659.6C311.059 1658.83 311.859 1657.62 312.425 1655.95C313.025 1654.28 313.325 1652.13 313.325 1649.5C313.325 1646.87 313.025 1644.72 312.425 1643.05C311.859 1641.38 311.059 1640.17 310.025 1639.4C309.025 1638.63 307.842 1638.25 306.475 1638.25C305.142 1638.25 303.959 1638.63 302.925 1639.4C301.925 1640.17 301.125 1641.38 300.525 1643.05C299.959 1644.72 299.675 1646.87 299.675 1649.5C299.675 1652.13 299.959 1654.28 300.525 1655.95C301.125 1657.62 301.925 1658.83 302.925 1659.6C303.959 1660.37 305.142 1660.75 306.475 1660.75ZM339.911 1667.6C336.978 1667.6 334.411 1667.17 332.211 1666.3C330.011 1665.4 328.294 1664.15 327.061 1662.55C325.828 1660.92 325.211 1659.02 325.211 1656.85C325.211 1654.68 325.811 1652.85 327.011 1651.35C328.244 1649.82 329.961 1648.67 332.161 1647.9C334.361 1647.1 336.944 1646.7 339.911 1646.7C342.911 1646.7 345.511 1647.1 347.711 1647.9C349.944 1648.67 351.661 1649.82 352.861 1651.35C354.094 1652.85 354.711 1654.68 354.711 1656.85C354.711 1659.02 354.094 1660.92 352.861 1662.55C351.628 1664.15 349.894 1665.4 347.661 1666.3C345.461 1667.17 342.878 1667.6 339.911 1667.6ZM339.911 1661.65C341.944 1661.65 343.544 1661.2 344.711 1660.3C345.911 1659.4 346.511 1658.17 346.511 1656.6C346.511 1655.03 345.911 1653.82 344.711 1652.95C343.544 1652.05 341.944 1651.6 339.911 1651.6C337.911 1651.6 336.328 1652.05 335.161 1652.95C333.994 1653.82 333.411 1655.03 333.411 1656.6C333.411 1658.17 333.994 1659.4 335.161 1660.3C336.328 1661.2 337.911 1661.65 339.911 1661.65ZM339.911 1650.8C337.211 1650.8 334.844 1650.43 332.811 1649.7C330.811 1648.97 329.244 1647.9 328.111 1646.5C327.011 1645.07 326.461 1643.37 326.461 1641.4C326.461 1639.33 327.028 1637.57 328.161 1636.1C329.294 1634.6 330.878 1633.45 332.911 1632.65C334.944 1631.82 337.278 1631.4 339.911 1631.4C342.611 1631.4 344.961 1631.82 346.961 1632.65C348.994 1633.45 350.578 1634.6 351.711 1636.1C352.878 1637.57 353.461 1639.33 353.461 1641.4C353.461 1643.37 352.894 1645.07 351.761 1646.5C350.661 1647.9 349.094 1648.97 347.061 1649.7C345.028 1650.43 342.644 1650.8 339.911 1650.8ZM339.911 1646.05C341.611 1646.05 342.944 1645.67 343.911 1644.9C344.911 1644.13 345.411 1643.08 345.411 1641.75C345.411 1640.35 344.894 1639.27 343.861 1638.5C342.861 1637.73 341.544 1637.35 339.911 1637.35C338.311 1637.35 337.011 1637.73 336.011 1638.5C335.011 1639.27 334.511 1640.35 334.511 1641.75C334.511 1643.08 334.994 1644.13 335.961 1644.9C336.928 1645.67 338.244 1646.05 339.911 1646.05Z" fill="white"/>
<path d="M173.65 268.6C170.85 268.6 168.167 268.233 165.6 267.5C163.033 266.733 160.967 265.75 159.4 264.55L162.15 258.45C163.65 259.517 165.417 260.4 167.45 261.1C169.517 261.767 171.6 262.1 173.7 262.1C175.3 262.1 176.583 261.95 177.55 261.65C178.55 261.317 179.283 260.867 179.75 260.3C180.217 259.733 180.45 259.083 180.45 258.35C180.45 257.417 180.083 256.683 179.35 256.15C178.617 255.583 177.65 255.133 176.45 254.8C175.25 254.433 173.917 254.1 172.45 253.8C171.017 253.467 169.567 253.067 168.1 252.6C166.667 252.133 165.35 251.533 164.15 250.8C162.95 250.067 161.967 249.1 161.2 247.9C160.467 246.7 160.1 245.167 160.1 243.3C160.1 241.3 160.633 239.483 161.7 237.85C162.8 236.183 164.433 234.867 166.6 233.9C168.8 232.9 171.55 232.4 174.85 232.4C177.05 232.4 179.217 232.667 181.35 233.2C183.483 233.7 185.367 234.467 187 235.5L184.5 241.65C182.867 240.717 181.233 240.033 179.6 239.6C177.967 239.133 176.367 238.9 174.8 238.9C173.233 238.9 171.95 239.083 170.95 239.45C169.95 239.817 169.233 240.3 168.8 240.9C168.367 241.467 168.15 242.133 168.15 242.9C168.15 243.8 168.517 244.533 169.25 245.1C169.983 245.633 170.95 246.067 172.15 246.4C173.35 246.733 174.667 247.067 176.1 247.4C177.567 247.733 179.017 248.117 180.45 248.55C181.917 248.983 183.25 249.567 184.45 250.3C185.65 251.033 186.617 252 187.35 253.2C188.117 254.4 188.5 255.917 188.5 257.75C188.5 259.717 187.95 261.517 186.85 263.15C185.75 264.783 184.1 266.1 181.9 267.1C179.733 268.1 176.983 268.6 173.65 268.6ZM209.985 268V262.75L209.485 261.6V252.2C209.485 250.533 208.968 249.233 207.935 248.3C206.935 247.367 205.385 246.9 203.285 246.9C201.851 246.9 200.435 247.133 199.035 247.6C197.668 248.033 196.501 248.633 195.535 249.4L192.735 243.95C194.201 242.917 195.968 242.117 198.035 241.55C200.101 240.983 202.201 240.7 204.335 240.7C208.435 240.7 211.618 241.667 213.885 243.6C216.151 245.533 217.285 248.55 217.285 252.65V268H209.985ZM201.785 268.4C199.685 268.4 197.885 268.05 196.385 267.35C194.885 266.617 193.735 265.633 192.935 264.4C192.135 263.167 191.735 261.783 191.735 260.25C191.735 258.65 192.118 257.25 192.885 256.05C193.685 254.85 194.935 253.917 196.635 253.25C198.335 252.55 200.551 252.2 203.285 252.2H210.435V256.75H204.135C202.301 256.75 201.035 257.05 200.335 257.65C199.668 258.25 199.335 259 199.335 259.9C199.335 260.9 199.718 261.7 200.485 262.3C201.285 262.867 202.368 263.15 203.735 263.15C205.035 263.15 206.201 262.85 207.235 262.25C208.268 261.617 209.018 260.7 209.485 259.5L210.685 263.1C210.118 264.833 209.085 266.15 207.585 267.05C206.085 267.95 204.151 268.4 201.785 268.4ZM224.344 268V230.9H232.144V268H224.344ZM239.383 268V230.9H247.183V268H239.383ZM267.772 268.4C264.706 268.4 262.006 267.8 259.672 266.6C257.372 265.4 255.589 263.767 254.322 261.7C253.056 259.6 252.422 257.217 252.422 254.55C252.422 251.85 253.039 249.467 254.272 247.4C255.539 245.3 257.256 243.667 259.422 242.5C261.589 241.3 264.039 240.7 266.772 240.7C269.406 240.7 271.772 241.267 273.872 242.4C276.006 243.5 277.689 245.1 278.922 247.2C280.156 249.267 280.772 251.75 280.772 254.65C280.772 254.95 280.756 255.3 280.722 255.7C280.689 256.067 280.656 256.417 280.622 256.75H258.772V252.2H276.522L273.522 253.55C273.522 252.15 273.239 250.933 272.672 249.9C272.106 248.867 271.322 248.067 270.322 247.5C269.322 246.9 268.156 246.6 266.822 246.6C265.489 246.6 264.306 246.9 263.272 247.5C262.272 248.067 261.489 248.883 260.922 249.95C260.356 250.983 260.072 252.217 260.072 253.65V254.85C260.072 256.317 260.389 257.617 261.022 258.75C261.689 259.85 262.606 260.7 263.772 261.3C264.972 261.867 266.372 262.15 267.972 262.15C269.406 262.15 270.656 261.933 271.722 261.5C272.822 261.067 273.822 260.417 274.722 259.55L278.872 264.05C277.639 265.45 276.089 266.533 274.222 267.3C272.356 268.033 270.206 268.4 267.772 268.4ZM313.475 268.6C310.609 268.6 308.042 267.9 305.775 266.5C303.509 265.067 301.725 263 300.425 260.3C299.125 257.6 298.475 254.333 298.475 250.5C298.475 246.667 299.125 243.4 300.425 240.7C301.725 238 303.509 235.95 305.775 234.55C308.042 233.117 310.609 232.4 313.475 232.4C316.375 232.4 318.942 233.117 321.175 234.55C323.442 235.95 325.225 238 326.525 240.7C327.825 243.4 328.475 246.667 328.475 250.5C328.475 254.333 327.825 257.6 326.525 260.3C325.225 263 323.442 265.067 321.175 266.5C318.942 267.9 316.375 268.6 313.475 268.6ZM313.475 261.75C314.842 261.75 316.025 261.367 317.025 260.6C318.059 259.833 318.859 258.617 319.425 256.95C320.025 255.283 320.325 253.133 320.325 250.5C320.325 247.867 320.025 245.717 319.425 244.05C318.859 242.383 318.059 241.167 317.025 240.4C316.025 239.633 314.842 239.25 313.475 239.25C312.142 239.25 310.959 239.633 309.925 240.4C308.925 241.167 308.125 242.383 307.525 244.05C306.959 245.717 306.675 247.867 306.675 250.5C306.675 253.133 306.959 255.283 307.525 256.95C308.125 258.617 308.925 259.833 309.925 260.6C310.959 261.367 312.142 261.75 313.475 261.75ZM337.616 268V236L341.116 239.5H330.616V233H345.716V268H337.616Z" fill="white"/>
<path d="M1168.65 268.6C1165.85 268.6 1163.17 268.233 1160.6 267.5C1158.03 266.733 1155.97 265.75 1154.4 264.55L1157.15 258.45C1158.65 259.517 1160.42 260.4 1162.45 261.1C1164.52 261.767 1166.6 262.1 1168.7 262.1C1170.3 262.1 1171.58 261.95 1172.55 261.65C1173.55 261.317 1174.28 260.867 1174.75 260.3C1175.22 259.733 1175.45 259.083 1175.45 258.35C1175.45 257.417 1175.08 256.683 1174.35 256.15C1173.62 255.583 1172.65 255.133 1171.45 254.8C1170.25 254.433 1168.92 254.1 1167.45 253.8C1166.02 253.467 1164.57 253.067 1163.1 252.6C1161.67 252.133 1160.35 251.533 1159.15 250.8C1157.95 250.067 1156.97 249.1 1156.2 247.9C1155.47 246.7 1155.1 245.167 1155.1 243.3C1155.1 241.3 1155.63 239.483 1156.7 237.85C1157.8 236.183 1159.43 234.867 1161.6 233.9C1163.8 232.9 1166.55 232.4 1169.85 232.4C1172.05 232.4 1174.22 232.667 1176.35 233.2C1178.48 233.7 1180.37 234.467 1182 235.5L1179.5 241.65C1177.87 240.717 1176.23 240.033 1174.6 239.6C1172.97 239.133 1171.37 238.9 1169.8 238.9C1168.23 238.9 1166.95 239.083 1165.95 239.45C1164.95 239.817 1164.23 240.3 1163.8 240.9C1163.37 241.467 1163.15 242.133 1163.15 242.9C1163.15 243.8 1163.52 244.533 1164.25 245.1C1164.98 245.633 1165.95 246.067 1167.15 246.4C1168.35 246.733 1169.67 247.067 1171.1 247.4C1172.57 247.733 1174.02 248.117 1175.45 248.55C1176.92 248.983 1178.25 249.567 1179.45 250.3C1180.65 251.033 1181.62 252 1182.35 253.2C1183.12 254.4 1183.5 255.917 1183.5 257.75C1183.5 259.717 1182.95 261.517 1181.85 263.15C1180.75 264.783 1179.1 266.1 1176.9 267.1C1174.73 268.1 1171.98 268.6 1168.65 268.6ZM1204.98 268V262.75L1204.48 261.6V252.2C1204.48 250.533 1203.97 249.233 1202.93 248.3C1201.93 247.367 1200.38 246.9 1198.28 246.9C1196.85 246.9 1195.43 247.133 1194.03 247.6C1192.67 248.033 1191.5 248.633 1190.53 249.4L1187.73 243.95C1189.2 242.917 1190.97 242.117 1193.03 241.55C1195.1 240.983 1197.2 240.7 1199.33 240.7C1203.43 240.7 1206.62 241.667 1208.88 243.6C1211.15 245.533 1212.28 248.55 1212.28 252.65V268H1204.98ZM1196.78 268.4C1194.68 268.4 1192.88 268.05 1191.38 267.35C1189.88 266.617 1188.73 265.633 1187.93 264.4C1187.13 263.167 1186.73 261.783 1186.73 260.25C1186.73 258.65 1187.12 257.25 1187.88 256.05C1188.68 254.85 1189.93 253.917 1191.63 253.25C1193.33 252.55 1195.55 252.2 1198.28 252.2H1205.43V256.75H1199.13C1197.3 256.75 1196.03 257.05 1195.33 257.65C1194.67 258.25 1194.33 259 1194.33 259.9C1194.33 260.9 1194.72 261.7 1195.48 262.3C1196.28 262.867 1197.37 263.15 1198.73 263.15C1200.03 263.15 1201.2 262.85 1202.23 262.25C1203.27 261.617 1204.02 260.7 1204.48 259.5L1205.68 263.1C1205.12 264.833 1204.08 266.15 1202.58 267.05C1201.08 267.95 1199.15 268.4 1196.78 268.4ZM1219.34 268V230.9H1227.14V268H1219.34ZM1234.38 268V230.9H1242.18V268H1234.38ZM1262.77 268.4C1259.71 268.4 1257.01 267.8 1254.67 266.6C1252.37 265.4 1250.59 263.767 1249.32 261.7C1248.06 259.6 1247.42 257.217 1247.42 254.55C1247.42 251.85 1248.04 249.467 1249.27 247.4C1250.54 245.3 1252.26 243.667 1254.42 242.5C1256.59 241.3 1259.04 240.7 1261.77 240.7C1264.41 240.7 1266.77 241.267 1268.87 242.4C1271.01 243.5 1272.69 245.1 1273.92 247.2C1275.16 249.267 1275.77 251.75 1275.77 254.65C1275.77 254.95 1275.76 255.3 1275.72 255.7C1275.69 256.067 1275.66 256.417 1275.62 256.75H1253.77V252.2H1271.52L1268.52 253.55C1268.52 252.15 1268.24 250.933 1267.67 249.9C1267.11 248.867 1266.32 248.067 1265.32 247.5C1264.32 246.9 1263.16 246.6 1261.82 246.6C1260.49 246.6 1259.31 246.9 1258.27 247.5C1257.27 248.067 1256.49 248.883 1255.92 249.95C1255.36 250.983 1255.07 252.217 1255.07 253.65V254.85C1255.07 256.317 1255.39 257.617 1256.02 258.75C1256.69 259.85 1257.61 260.7 1258.77 261.3C1259.97 261.867 1261.37 262.15 1262.97 262.15C1264.41 262.15 1265.66 261.933 1266.72 261.5C1267.82 261.067 1268.82 260.417 1269.72 259.55L1273.87 264.05C1272.64 265.45 1271.09 266.533 1269.22 267.3C1267.36 268.033 1265.21 268.4 1262.77 268.4ZM1308.48 268.6C1305.61 268.6 1303.04 267.9 1300.78 266.5C1298.51 265.067 1296.73 263 1295.43 260.3C1294.13 257.6 1293.48 254.333 1293.48 250.5C1293.48 246.667 1294.13 243.4 1295.43 240.7C1296.73 238 1298.51 235.95 1300.78 234.55C1303.04 233.117 1305.61 232.4 1308.48 232.4C1311.38 232.4 1313.94 233.117 1316.18 234.55C1318.44 235.95 1320.23 238 1321.53 240.7C1322.83 243.4 1323.48 246.667 1323.48 250.5C1323.48 254.333 1322.83 257.6 1321.53 260.3C1320.23 263 1318.44 265.067 1316.18 266.5C1313.94 267.9 1311.38 268.6 1308.48 268.6ZM1308.48 261.75C1309.84 261.75 1311.03 261.367 1312.03 260.6C1313.06 259.833 1313.86 258.617 1314.43 256.95C1315.03 255.283 1315.33 253.133 1315.33 250.5C1315.33 247.867 1315.03 245.717 1314.43 244.05C1313.86 242.383 1313.06 241.167 1312.03 240.4C1311.03 239.633 1309.84 239.25 1308.48 239.25C1307.14 239.25 1305.96 239.633 1304.93 240.4C1303.93 241.167 1303.13 242.383 1302.53 244.05C1301.96 245.717 1301.68 247.867 1301.68 250.5C1301.68 253.133 1301.96 255.283 1302.53 256.95C1303.13 258.617 1303.93 259.833 1304.93 260.6C1305.96 261.367 1307.14 261.75 1308.48 261.75ZM1326.92 268V262.75L1340.42 250C1341.48 249.033 1342.27 248.167 1342.77 247.4C1343.27 246.633 1343.6 245.933 1343.77 245.3C1343.97 244.667 1344.07 244.083 1344.07 243.55C1344.07 242.15 1343.58 241.083 1342.62 240.35C1341.68 239.583 1340.3 239.2 1338.47 239.2C1337 239.2 1335.63 239.483 1334.37 240.05C1333.13 240.617 1332.08 241.5 1331.22 242.7L1325.32 238.9C1326.65 236.9 1328.52 235.317 1330.92 234.15C1333.32 232.983 1336.08 232.4 1339.22 232.4C1341.82 232.4 1344.08 232.833 1346.02 233.7C1347.98 234.533 1349.5 235.717 1350.57 237.25C1351.67 238.783 1352.22 240.617 1352.22 242.75C1352.22 243.883 1352.07 245.017 1351.77 246.15C1351.5 247.25 1350.93 248.417 1350.07 249.65C1349.23 250.883 1348 252.267 1346.37 253.8L1335.17 264.35L1333.62 261.4H1353.37V268H1326.92Z" fill="white"/>
<path d="M2168.65 268.6C2165.85 268.6 2163.17 268.233 2160.6 267.5C2158.03 266.733 2155.97 265.75 2154.4 264.55L2157.15 258.45C2158.65 259.517 2160.42 260.4 2162.45 261.1C2164.52 261.767 2166.6 262.1 2168.7 262.1C2170.3 262.1 2171.58 261.95 2172.55 261.65C2173.55 261.317 2174.28 260.867 2174.75 260.3C2175.22 259.733 2175.45 259.083 2175.45 258.35C2175.45 257.417 2175.08 256.683 2174.35 256.15C2173.62 255.583 2172.65 255.133 2171.45 254.8C2170.25 254.433 2168.92 254.1 2167.45 253.8C2166.02 253.467 2164.57 253.067 2163.1 252.6C2161.67 252.133 2160.35 251.533 2159.15 250.8C2157.95 250.067 2156.97 249.1 2156.2 247.9C2155.47 246.7 2155.1 245.167 2155.1 243.3C2155.1 241.3 2155.63 239.483 2156.7 237.85C2157.8 236.183 2159.43 234.867 2161.6 233.9C2163.8 232.9 2166.55 232.4 2169.85 232.4C2172.05 232.4 2174.22 232.667 2176.35 233.2C2178.48 233.7 2180.37 234.467 2182 235.5L2179.5 241.65C2177.87 240.717 2176.23 240.033 2174.6 239.6C2172.97 239.133 2171.37 238.9 2169.8 238.9C2168.23 238.9 2166.95 239.083 2165.95 239.45C2164.95 239.817 2164.23 240.3 2163.8 240.9C2163.37 241.467 2163.15 242.133 2163.15 242.9C2163.15 243.8 2163.52 244.533 2164.25 245.1C2164.98 245.633 2165.95 246.067 2167.15 246.4C2168.35 246.733 2169.67 247.067 2171.1 247.4C2172.57 247.733 2174.02 248.117 2175.45 248.55C2176.92 248.983 2178.25 249.567 2179.45 250.3C2180.65 251.033 2181.62 252 2182.35 253.2C2183.12 254.4 2183.5 255.917 2183.5 257.75C2183.5 259.717 2182.95 261.517 2181.85 263.15C2180.75 264.783 2179.1 266.1 2176.9 267.1C2174.73 268.1 2171.98 268.6 2168.65 268.6ZM2204.98 268V262.75L2204.48 261.6V252.2C2204.48 250.533 2203.97 249.233 2202.93 248.3C2201.93 247.367 2200.38 246.9 2198.28 246.9C2196.85 246.9 2195.43 247.133 2194.03 247.6C2192.67 248.033 2191.5 248.633 2190.53 249.4L2187.73 243.95C2189.2 242.917 2190.97 242.117 2193.03 241.55C2195.1 240.983 2197.2 240.7 2199.33 240.7C2203.43 240.7 2206.62 241.667 2208.88 243.6C2211.15 245.533 2212.28 248.55 2212.28 252.65V268H2204.98ZM2196.78 268.4C2194.68 268.4 2192.88 268.05 2191.38 267.35C2189.88 266.617 2188.73 265.633 2187.93 264.4C2187.13 263.167 2186.73 261.783 2186.73 260.25C2186.73 258.65 2187.12 257.25 2187.88 256.05C2188.68 254.85 2189.93 253.917 2191.63 253.25C2193.33 252.55 2195.55 252.2 2198.28 252.2H2205.43V256.75H2199.13C2197.3 256.75 2196.03 257.05 2195.33 257.65C2194.67 258.25 2194.33 259 2194.33 259.9C2194.33 260.9 2194.72 261.7 2195.48 262.3C2196.28 262.867 2197.37 263.15 2198.73 263.15C2200.03 263.15 2201.2 262.85 2202.23 262.25C2203.27 261.617 2204.02 260.7 2204.48 259.5L2205.68 263.1C2205.12 264.833 2204.08 266.15 2202.58 267.05C2201.08 267.95 2199.15 268.4 2196.78 268.4ZM2219.34 268V230.9H2227.14V268H2219.34ZM2234.38 268V230.9H2242.18V268H2234.38ZM2262.77 268.4C2259.71 268.4 2257.01 267.8 2254.67 266.6C2252.37 265.4 2250.59 263.767 2249.32 261.7C2248.06 259.6 2247.42 257.217 2247.42 254.55C2247.42 251.85 2248.04 249.467 2249.27 247.4C2250.54 245.3 2252.26 243.667 2254.42 242.5C2256.59 241.3 2259.04 240.7 2261.77 240.7C2264.41 240.7 2266.77 241.267 2268.87 242.4C2271.01 243.5 2272.69 245.1 2273.92 247.2C2275.16 249.267 2275.77 251.75 2275.77 254.65C2275.77 254.95 2275.76 255.3 2275.72 255.7C2275.69 256.067 2275.66 256.417 2275.62 256.75H2253.77V252.2H2271.52L2268.52 253.55C2268.52 252.15 2268.24 250.933 2267.67 249.9C2267.11 248.867 2266.32 248.067 2265.32 247.5C2264.32 246.9 2263.16 246.6 2261.82 246.6C2260.49 246.6 2259.31 246.9 2258.27 247.5C2257.27 248.067 2256.49 248.883 2255.92 249.95C2255.36 250.983 2255.07 252.217 2255.07 253.65V254.85C2255.07 256.317 2255.39 257.617 2256.02 258.75C2256.69 259.85 2257.61 260.7 2258.77 261.3C2259.97 261.867 2261.37 262.15 2262.97 262.15C2264.41 262.15 2265.66 261.933 2266.72 261.5C2267.82 261.067 2268.82 260.417 2269.72 259.55L2273.87 264.05C2272.64 265.45 2271.09 266.533 2269.22 267.3C2267.36 268.033 2265.21 268.4 2262.77 268.4ZM2308.48 268.6C2305.61 268.6 2303.04 267.9 2300.78 266.5C2298.51 265.067 2296.73 263 2295.43 260.3C2294.13 257.6 2293.48 254.333 2293.48 250.5C2293.48 246.667 2294.13 243.4 2295.43 240.7C2296.73 238 2298.51 235.95 2300.78 234.55C2303.04 233.117 2305.61 232.4 2308.48 232.4C2311.38 232.4 2313.94 233.117 2316.18 234.55C2318.44 235.95 2320.23 238 2321.53 240.7C2322.83 243.4 2323.48 246.667 2323.48 250.5C2323.48 254.333 2322.83 257.6 2321.53 260.3C2320.23 263 2318.44 265.067 2316.18 266.5C2313.94 267.9 2311.38 268.6 2308.48 268.6ZM2308.48 261.75C2309.84 261.75 2311.03 261.367 2312.03 260.6C2313.06 259.833 2313.86 258.617 2314.43 256.95C2315.03 255.283 2315.33 253.133 2315.33 250.5C2315.33 247.867 2315.03 245.717 2314.43 244.05C2313.86 242.383 2313.06 241.167 2312.03 240.4C2311.03 239.633 2309.84 239.25 2308.48 239.25C2307.14 239.25 2305.96 239.633 2304.93 240.4C2303.93 241.167 2303.13 242.383 2302.53 244.05C2301.96 245.717 2301.68 247.867 2301.68 250.5C2301.68 253.133 2301.96 255.283 2302.53 256.95C2303.13 258.617 2303.93 259.833 2304.93 260.6C2305.96 261.367 2307.14 261.75 2308.48 261.75ZM2338.27 268.6C2335.84 268.6 2333.42 268.283 2331.02 267.65C2328.62 266.983 2326.59 266.05 2324.92 264.85L2328.07 258.65C2329.41 259.617 2330.96 260.383 2332.72 260.95C2334.49 261.517 2336.27 261.8 2338.07 261.8C2340.11 261.8 2341.71 261.4 2342.87 260.6C2344.04 259.8 2344.62 258.7 2344.62 257.3C2344.62 255.967 2344.11 254.917 2343.07 254.15C2342.04 253.383 2340.37 253 2338.07 253H2334.37V247.65L2344.12 236.6L2345.02 239.5H2326.67V233H2351.17V238.25L2341.47 249.3L2337.37 246.95H2339.72C2344.02 246.95 2347.27 247.917 2349.47 249.85C2351.67 251.783 2352.77 254.267 2352.77 257.3C2352.77 259.267 2352.26 261.117 2351.22 262.85C2350.19 264.55 2348.61 265.933 2346.47 267C2344.34 268.067 2341.61 268.6 2338.27 268.6Z" fill="white"/>
<path d="M2765.65 268.6C2762.85 268.6 2760.17 268.233 2757.6 267.5C2755.03 266.733 2752.97 265.75 2751.4 264.55L2754.15 258.45C2755.65 259.517 2757.42 260.4 2759.45 261.1C2761.52 261.767 2763.6 262.1 2765.7 262.1C2767.3 262.1 2768.58 261.95 2769.55 261.65C2770.55 261.317 2771.28 260.867 2771.75 260.3C2772.22 259.733 2772.45 259.083 2772.45 258.35C2772.45 257.417 2772.08 256.683 2771.35 256.15C2770.62 255.583 2769.65 255.133 2768.45 254.8C2767.25 254.433 2765.92 254.1 2764.45 253.8C2763.02 253.467 2761.57 253.067 2760.1 252.6C2758.67 252.133 2757.35 251.533 2756.15 250.8C2754.95 250.067 2753.97 249.1 2753.2 247.9C2752.47 246.7 2752.1 245.167 2752.1 243.3C2752.1 241.3 2752.63 239.483 2753.7 237.85C2754.8 236.183 2756.43 234.867 2758.6 233.9C2760.8 232.9 2763.55 232.4 2766.85 232.4C2769.05 232.4 2771.22 232.667 2773.35 233.2C2775.48 233.7 2777.37 234.467 2779 235.5L2776.5 241.65C2774.87 240.717 2773.23 240.033 2771.6 239.6C2769.97 239.133 2768.37 238.9 2766.8 238.9C2765.23 238.9 2763.95 239.083 2762.95 239.45C2761.95 239.817 2761.23 240.3 2760.8 240.9C2760.37 241.467 2760.15 242.133 2760.15 242.9C2760.15 243.8 2760.52 244.533 2761.25 245.1C2761.98 245.633 2762.95 246.067 2764.15 246.4C2765.35 246.733 2766.67 247.067 2768.1 247.4C2769.57 247.733 2771.02 248.117 2772.45 248.55C2773.92 248.983 2775.25 249.567 2776.45 250.3C2777.65 251.033 2778.62 252 2779.35 253.2C2780.12 254.4 2780.5 255.917 2780.5 257.75C2780.5 259.717 2779.95 261.517 2778.85 263.15C2777.75 264.783 2776.1 266.1 2773.9 267.1C2771.73 268.1 2768.98 268.6 2765.65 268.6ZM2801.98 268V262.75L2801.48 261.6V252.2C2801.48 250.533 2800.97 249.233 2799.93 248.3C2798.93 247.367 2797.38 246.9 2795.28 246.9C2793.85 246.9 2792.43 247.133 2791.03 247.6C2789.67 248.033 2788.5 248.633 2787.53 249.4L2784.73 243.95C2786.2 242.917 2787.97 242.117 2790.03 241.55C2792.1 240.983 2794.2 240.7 2796.33 240.7C2800.43 240.7 2803.62 241.667 2805.88 243.6C2808.15 245.533 2809.28 248.55 2809.28 252.65V268H2801.98ZM2793.78 268.4C2791.68 268.4 2789.88 268.05 2788.38 267.35C2786.88 266.617 2785.73 265.633 2784.93 264.4C2784.13 263.167 2783.73 261.783 2783.73 260.25C2783.73 258.65 2784.12 257.25 2784.88 256.05C2785.68 254.85 2786.93 253.917 2788.63 253.25C2790.33 252.55 2792.55 252.2 2795.28 252.2H2802.43V256.75H2796.13C2794.3 256.75 2793.03 257.05 2792.33 257.65C2791.67 258.25 2791.33 259 2791.33 259.9C2791.33 260.9 2791.72 261.7 2792.48 262.3C2793.28 262.867 2794.37 263.15 2795.73 263.15C2797.03 263.15 2798.2 262.85 2799.23 262.25C2800.27 261.617 2801.02 260.7 2801.48 259.5L2802.68 263.1C2802.12 264.833 2801.08 266.15 2799.58 267.05C2798.08 267.95 2796.15 268.4 2793.78 268.4ZM2816.34 268V230.9H2824.14V268H2816.34ZM2831.38 268V230.9H2839.18V268H2831.38ZM2859.77 268.4C2856.71 268.4 2854.01 267.8 2851.67 266.6C2849.37 265.4 2847.59 263.767 2846.32 261.7C2845.06 259.6 2844.42 257.217 2844.42 254.55C2844.42 251.85 2845.04 249.467 2846.27 247.4C2847.54 245.3 2849.26 243.667 2851.42 242.5C2853.59 241.3 2856.04 240.7 2858.77 240.7C2861.41 240.7 2863.77 241.267 2865.87 242.4C2868.01 243.5 2869.69 245.1 2870.92 247.2C2872.16 249.267 2872.77 251.75 2872.77 254.65C2872.77 254.95 2872.76 255.3 2872.72 255.7C2872.69 256.067 2872.66 256.417 2872.62 256.75H2850.77V252.2H2868.52L2865.52 253.55C2865.52 252.15 2865.24 250.933 2864.67 249.9C2864.11 248.867 2863.32 248.067 2862.32 247.5C2861.32 246.9 2860.16 246.6 2858.82 246.6C2857.49 246.6 2856.31 246.9 2855.27 247.5C2854.27 248.067 2853.49 248.883 2852.92 249.95C2852.36 250.983 2852.07 252.217 2852.07 253.65V254.85C2852.07 256.317 2852.39 257.617 2853.02 258.75C2853.69 259.85 2854.61 260.7 2855.77 261.3C2856.97 261.867 2858.37 262.15 2859.97 262.15C2861.41 262.15 2862.66 261.933 2863.72 261.5C2864.82 261.067 2865.82 260.417 2866.72 259.55L2870.87 264.05C2869.64 265.45 2868.09 266.533 2866.22 267.3C2864.36 268.033 2862.21 268.4 2859.77 268.4ZM2905.48 268.6C2902.61 268.6 2900.04 267.9 2897.78 266.5C2895.51 265.067 2893.73 263 2892.43 260.3C2891.13 257.6 2890.48 254.333 2890.48 250.5C2890.48 246.667 2891.13 243.4 2892.43 240.7C2893.73 238 2895.51 235.95 2897.78 234.55C2900.04 233.117 2902.61 232.4 2905.48 232.4C2908.38 232.4 2910.94 233.117 2913.18 234.55C2915.44 235.95 2917.23 238 2918.53 240.7C2919.83 243.4 2920.48 246.667 2920.48 250.5C2920.48 254.333 2919.83 257.6 2918.53 260.3C2917.23 263 2915.44 265.067 2913.18 266.5C2910.94 267.9 2908.38 268.6 2905.48 268.6ZM2905.48 261.75C2906.84 261.75 2908.03 261.367 2909.03 260.6C2910.06 259.833 2910.86 258.617 2911.43 256.95C2912.03 255.283 2912.33 253.133 2912.33 250.5C2912.33 247.867 2912.03 245.717 2911.43 244.05C2910.86 242.383 2910.06 241.167 2909.03 240.4C2908.03 239.633 2906.84 239.25 2905.48 239.25C2904.14 239.25 2902.96 239.633 2901.93 240.4C2900.93 241.167 2900.13 242.383 2899.53 244.05C2898.96 245.717 2898.68 247.867 2898.68 250.5C2898.68 253.133 2898.96 255.283 2899.53 256.95C2900.13 258.617 2900.93 259.833 2901.93 260.6C2902.96 261.367 2904.14 261.75 2905.48 261.75ZM2924.01 260.65V255.2L2940.51 233H2949.01L2932.86 255.2L2928.91 254.05H2956.46V260.65H2924.01ZM2942.86 268V260.65L2943.11 254.05V247.5H2950.76V268H2942.86Z" fill="white"/>
<path d="M2766.65 968.6C2763.85 968.6 2761.17 968.233 2758.6 967.5C2756.03 966.733 2753.97 965.75 2752.4 964.55L2755.15 958.45C2756.65 959.517 2758.42 960.4 2760.45 961.1C2762.52 961.767 2764.6 962.1 2766.7 962.1C2768.3 962.1 2769.58 961.95 2770.55 961.65C2771.55 961.317 2772.28 960.867 2772.75 960.3C2773.22 959.733 2773.45 959.083 2773.45 958.35C2773.45 957.417 2773.08 956.683 2772.35 956.15C2771.62 955.583 2770.65 955.133 2769.45 954.8C2768.25 954.433 2766.92 954.1 2765.45 953.8C2764.02 953.467 2762.57 953.067 2761.1 952.6C2759.67 952.133 2758.35 951.533 2757.15 950.8C2755.95 950.067 2754.97 949.1 2754.2 947.9C2753.47 946.7 2753.1 945.167 2753.1 943.3C2753.1 941.3 2753.63 939.483 2754.7 937.85C2755.8 936.183 2757.43 934.867 2759.6 933.9C2761.8 932.9 2764.55 932.4 2767.85 932.4C2770.05 932.4 2772.22 932.667 2774.35 933.2C2776.48 933.7 2778.37 934.467 2780 935.5L2777.5 941.65C2775.87 940.717 2774.23 940.033 2772.6 939.6C2770.97 939.133 2769.37 938.9 2767.8 938.9C2766.23 938.9 2764.95 939.083 2763.95 939.45C2762.95 939.817 2762.23 940.3 2761.8 940.9C2761.37 941.467 2761.15 942.133 2761.15 942.9C2761.15 943.8 2761.52 944.533 2762.25 945.1C2762.98 945.633 2763.95 946.067 2765.15 946.4C2766.35 946.733 2767.67 947.067 2769.1 947.4C2770.57 947.733 2772.02 948.117 2773.45 948.55C2774.92 948.983 2776.25 949.567 2777.45 950.3C2778.65 951.033 2779.62 952 2780.35 953.2C2781.12 954.4 2781.5 955.917 2781.5 957.75C2781.5 959.717 2780.95 961.517 2779.85 963.15C2778.75 964.783 2777.1 966.1 2774.9 967.1C2772.73 968.1 2769.98 968.6 2766.65 968.6ZM2802.98 968V962.75L2802.48 961.6V952.2C2802.48 950.533 2801.97 949.233 2800.93 948.3C2799.93 947.367 2798.38 946.9 2796.28 946.9C2794.85 946.9 2793.43 947.133 2792.03 947.6C2790.67 948.033 2789.5 948.633 2788.53 949.4L2785.73 943.95C2787.2 942.917 2788.97 942.117 2791.03 941.55C2793.1 940.983 2795.2 940.7 2797.33 940.7C2801.43 940.7 2804.62 941.667 2806.88 943.6C2809.15 945.533 2810.28 948.55 2810.28 952.65V968H2802.98ZM2794.78 968.4C2792.68 968.4 2790.88 968.05 2789.38 967.35C2787.88 966.617 2786.73 965.633 2785.93 964.4C2785.13 963.167 2784.73 961.783 2784.73 960.25C2784.73 958.65 2785.12 957.25 2785.88 956.05C2786.68 954.85 2787.93 953.917 2789.63 953.25C2791.33 952.55 2793.55 952.2 2796.28 952.2H2803.43V956.75H2797.13C2795.3 956.75 2794.03 957.05 2793.33 957.65C2792.67 958.25 2792.33 959 2792.33 959.9C2792.33 960.9 2792.72 961.7 2793.48 962.3C2794.28 962.867 2795.37 963.15 2796.73 963.15C2798.03 963.15 2799.2 962.85 2800.23 962.25C2801.27 961.617 2802.02 960.7 2802.48 959.5L2803.68 963.1C2803.12 964.833 2802.08 966.15 2800.58 967.05C2799.08 967.95 2797.15 968.4 2794.78 968.4ZM2817.34 968V930.9H2825.14V968H2817.34ZM2832.38 968V930.9H2840.18V968H2832.38ZM2860.77 968.4C2857.71 968.4 2855.01 967.8 2852.67 966.6C2850.37 965.4 2848.59 963.767 2847.32 961.7C2846.06 959.6 2845.42 957.217 2845.42 954.55C2845.42 951.85 2846.04 949.467 2847.27 947.4C2848.54 945.3 2850.26 943.667 2852.42 942.5C2854.59 941.3 2857.04 940.7 2859.77 940.7C2862.41 940.7 2864.77 941.267 2866.87 942.4C2869.01 943.5 2870.69 945.1 2871.92 947.2C2873.16 949.267 2873.77 951.75 2873.77 954.65C2873.77 954.95 2873.76 955.3 2873.72 955.7C2873.69 956.067 2873.66 956.417 2873.62 956.75H2851.77V952.2H2869.52L2866.52 953.55C2866.52 952.15 2866.24 950.933 2865.67 949.9C2865.11 948.867 2864.32 948.067 2863.32 947.5C2862.32 946.9 2861.16 946.6 2859.82 946.6C2858.49 946.6 2857.31 946.9 2856.27 947.5C2855.27 948.067 2854.49 948.883 2853.92 949.95C2853.36 950.983 2853.07 952.217 2853.07 953.65V954.85C2853.07 956.317 2853.39 957.617 2854.02 958.75C2854.69 959.85 2855.61 960.7 2856.77 961.3C2857.97 961.867 2859.37 962.15 2860.97 962.15C2862.41 962.15 2863.66 961.933 2864.72 961.5C2865.82 961.067 2866.82 960.417 2867.72 959.55L2871.87 964.05C2870.64 965.45 2869.09 966.533 2867.22 967.3C2865.36 968.033 2863.21 968.4 2860.77 968.4ZM2906.48 968.6C2903.61 968.6 2901.04 967.9 2898.78 966.5C2896.51 965.067 2894.73 963 2893.43 960.3C2892.13 957.6 2891.48 954.333 2891.48 950.5C2891.48 946.667 2892.13 943.4 2893.43 940.7C2894.73 938 2896.51 935.95 2898.78 934.55C2901.04 933.117 2903.61 932.4 2906.48 932.4C2909.38 932.4 2911.94 933.117 2914.18 934.55C2916.44 935.95 2918.23 938 2919.53 940.7C2920.83 943.4 2921.48 946.667 2921.48 950.5C2921.48 954.333 2920.83 957.6 2919.53 960.3C2918.23 963 2916.44 965.067 2914.18 966.5C2911.94 967.9 2909.38 968.6 2906.48 968.6ZM2906.48 961.75C2907.84 961.75 2909.03 961.367 2910.03 960.6C2911.06 959.833 2911.86 958.617 2912.43 956.95C2913.03 955.283 2913.33 953.133 2913.33 950.5C2913.33 947.867 2913.03 945.717 2912.43 944.05C2911.86 942.383 2911.06 941.167 2910.03 940.4C2909.03 939.633 2907.84 939.25 2906.48 939.25C2905.14 939.25 2903.96 939.633 2902.93 940.4C2901.93 941.167 2901.13 942.383 2900.53 944.05C2899.96 945.717 2899.68 947.867 2899.68 950.5C2899.68 953.133 2899.96 955.283 2900.53 956.95C2901.13 958.617 2901.93 959.833 2902.93 960.6C2903.96 961.367 2905.14 961.75 2906.48 961.75ZM2930.86 968L2944.96 936.1L2947.06 939.6H2928.21L2931.81 935.8V945.3H2924.61V933H2952.66V938.25L2939.66 968H2930.86Z" fill="white"/>
<path d="M767.65 968.6C764.85 968.6 762.167 968.233 759.6 967.5C757.033 966.733 754.967 965.75 753.4 964.55L756.15 958.45C757.65 959.517 759.417 960.4 761.45 961.1C763.517 961.767 765.6 962.1 767.7 962.1C769.3 962.1 770.583 961.95 771.55 961.65C772.55 961.317 773.283 960.867 773.75 960.3C774.217 959.733 774.45 959.083 774.45 958.35C774.45 957.417 774.083 956.683 773.35 956.15C772.617 955.583 771.65 955.133 770.45 954.8C769.25 954.433 767.917 954.1 766.45 953.8C765.017 953.467 763.567 953.067 762.1 952.6C760.667 952.133 759.35 951.533 758.15 950.8C756.95 950.067 755.967 949.1 755.2 947.9C754.467 946.7 754.1 945.167 754.1 943.3C754.1 941.3 754.633 939.483 755.7 937.85C756.8 936.183 758.433 934.867 760.6 933.9C762.8 932.9 765.55 932.4 768.85 932.4C771.05 932.4 773.217 932.667 775.35 933.2C777.483 933.7 779.367 934.467 781 935.5L778.5 941.65C776.867 940.717 775.233 940.033 773.6 939.6C771.967 939.133 770.367 938.9 768.8 938.9C767.233 938.9 765.95 939.083 764.95 939.45C763.95 939.817 763.233 940.3 762.8 940.9C762.367 941.467 762.15 942.133 762.15 942.9C762.15 943.8 762.517 944.533 763.25 945.1C763.983 945.633 764.95 946.067 766.15 946.4C767.35 946.733 768.667 947.067 770.1 947.4C771.567 947.733 773.017 948.117 774.45 948.55C775.917 948.983 777.25 949.567 778.45 950.3C779.65 951.033 780.617 952 781.35 953.2C782.117 954.4 782.5 955.917 782.5 957.75C782.5 959.717 781.95 961.517 780.85 963.15C779.75 964.783 778.1 966.1 775.9 967.1C773.733 968.1 770.983 968.6 767.65 968.6ZM803.985 968V962.75L803.485 961.6V952.2C803.485 950.533 802.968 949.233 801.935 948.3C800.935 947.367 799.385 946.9 797.285 946.9C795.851 946.9 794.435 947.133 793.035 947.6C791.668 948.033 790.501 948.633 789.535 949.4L786.735 943.95C788.201 942.917 789.968 942.117 792.035 941.55C794.101 940.983 796.201 940.7 798.335 940.7C802.435 940.7 805.618 941.667 807.885 943.6C810.151 945.533 811.285 948.55 811.285 952.65V968H803.985ZM795.785 968.4C793.685 968.4 791.885 968.05 790.385 967.35C788.885 966.617 787.735 965.633 786.935 964.4C786.135 963.167 785.735 961.783 785.735 960.25C785.735 958.65 786.118 957.25 786.885 956.05C787.685 954.85 788.935 953.917 790.635 953.25C792.335 952.55 794.551 952.2 797.285 952.2H804.435V956.75H798.135C796.301 956.75 795.035 957.05 794.335 957.65C793.668 958.25 793.335 959 793.335 959.9C793.335 960.9 793.718 961.7 794.485 962.3C795.285 962.867 796.368 963.15 797.735 963.15C799.035 963.15 800.201 962.85 801.235 962.25C802.268 961.617 803.018 960.7 803.485 959.5L804.685 963.1C804.118 964.833 803.085 966.15 801.585 967.05C800.085 967.95 798.151 968.4 795.785 968.4ZM818.344 968V930.9H826.144V968H818.344ZM833.383 968V930.9H841.183V968H833.383ZM861.772 968.4C858.706 968.4 856.006 967.8 853.672 966.6C851.372 965.4 849.589 963.767 848.322 961.7C847.056 959.6 846.422 957.217 846.422 954.55C846.422 951.85 847.039 949.467 848.272 947.4C849.539 945.3 851.256 943.667 853.422 942.5C855.589 941.3 858.039 940.7 860.772 940.7C863.406 940.7 865.772 941.267 867.872 942.4C870.006 943.5 871.689 945.1 872.922 947.2C874.156 949.267 874.772 951.75 874.772 954.65C874.772 954.95 874.756 955.3 874.722 955.7C874.689 956.067 874.656 956.417 874.622 956.75H852.772V952.2H870.522L867.522 953.55C867.522 952.15 867.239 950.933 866.672 949.9C866.106 948.867 865.322 948.067 864.322 947.5C863.322 946.9 862.156 946.6 860.822 946.6C859.489 946.6 858.306 946.9 857.272 947.5C856.272 948.067 855.489 948.883 854.922 949.95C854.356 950.983 854.072 952.217 854.072 953.65V954.85C854.072 956.317 854.389 957.617 855.022 958.75C855.689 959.85 856.606 960.7 857.772 961.3C858.972 961.867 860.372 962.15 861.972 962.15C863.406 962.15 864.656 961.933 865.722 961.5C866.822 961.067 867.822 960.417 868.722 959.55L872.872 964.05C871.639 965.45 870.089 966.533 868.222 967.3C866.356 968.033 864.206 968.4 861.772 968.4ZM907.475 968.6C904.609 968.6 902.042 967.9 899.775 966.5C897.509 965.067 895.725 963 894.425 960.3C893.125 957.6 892.475 954.333 892.475 950.5C892.475 946.667 893.125 943.4 894.425 940.7C895.725 938 897.509 935.95 899.775 934.55C902.042 933.117 904.609 932.4 907.475 932.4C910.375 932.4 912.942 933.117 915.175 934.55C917.442 935.95 919.225 938 920.525 940.7C921.825 943.4 922.475 946.667 922.475 950.5C922.475 954.333 921.825 957.6 920.525 960.3C919.225 963 917.442 965.067 915.175 966.5C912.942 967.9 910.375 968.6 907.475 968.6ZM907.475 961.75C908.842 961.75 910.025 961.367 911.025 960.6C912.059 959.833 912.859 958.617 913.425 956.95C914.025 955.283 914.325 953.133 914.325 950.5C914.325 947.867 914.025 945.717 913.425 944.05C912.859 942.383 912.059 941.167 911.025 940.4C910.025 939.633 908.842 939.25 907.475 939.25C906.142 939.25 904.959 939.633 903.925 940.4C902.925 941.167 902.125 942.383 901.525 944.05C900.959 945.717 900.675 947.867 900.675 950.5C900.675 953.133 900.959 955.283 901.525 956.95C902.125 958.617 902.925 959.833 903.925 960.6C904.959 961.367 906.142 961.75 907.475 961.75ZM942.061 968.6C938.861 968.6 936.078 967.933 933.711 966.6C931.378 965.267 929.578 963.317 928.311 960.75C927.044 958.183 926.411 955.017 926.411 951.25C926.411 947.217 927.161 943.8 928.661 941C930.194 938.2 932.294 936.067 934.961 934.6C937.661 933.133 940.761 932.4 944.261 932.4C946.128 932.4 947.911 932.6 949.611 933C951.311 933.4 952.778 934 954.011 934.8L951.011 940.75C950.044 940.083 949.011 939.633 947.911 939.4C946.811 939.133 945.661 939 944.461 939C941.428 939 939.028 939.917 937.261 941.75C935.494 943.583 934.611 946.3 934.611 949.9C934.611 950.5 934.611 951.167 934.611 951.9C934.644 952.633 934.744 953.367 934.911 954.1L932.661 952C933.294 950.7 934.111 949.617 935.111 948.75C936.111 947.85 937.294 947.183 938.661 946.75C940.061 946.283 941.594 946.05 943.261 946.05C945.528 946.05 947.561 946.5 949.361 947.4C951.161 948.3 952.594 949.567 953.661 951.2C954.761 952.833 955.311 954.75 955.311 956.95C955.311 959.317 954.711 961.383 953.511 963.15C952.344 964.883 950.761 966.233 948.761 967.2C946.794 968.133 944.561 968.6 942.061 968.6ZM941.611 962.55C942.744 962.55 943.744 962.35 944.611 961.95C945.511 961.517 946.211 960.9 946.711 960.1C947.211 959.3 947.461 958.383 947.461 957.35C947.461 955.75 946.911 954.483 945.811 953.55C944.744 952.583 943.311 952.1 941.511 952.1C940.311 952.1 939.261 952.333 938.361 952.8C937.461 953.233 936.744 953.85 936.211 954.65C935.711 955.417 935.461 956.317 935.461 957.35C935.461 958.35 935.711 959.25 936.211 960.05C936.711 960.817 937.411 961.433 938.311 961.9C939.211 962.333 940.311 962.55 941.611 962.55Z" fill="white"/>
<path d="M166.65 968.6C163.85 968.6 161.167 968.233 158.6 967.5C156.033 966.733 153.967 965.75 152.4 964.55L155.15 958.45C156.65 959.517 158.417 960.4 160.45 961.1C162.517 961.767 164.6 962.1 166.7 962.1C168.3 962.1 169.583 961.95 170.55 961.65C171.55 961.317 172.283 960.867 172.75 960.3C173.217 959.733 173.45 959.083 173.45 958.35C173.45 957.417 173.083 956.683 172.35 956.15C171.617 955.583 170.65 955.133 169.45 954.8C168.25 954.433 166.917 954.1 165.45 953.8C164.017 953.467 162.567 953.067 161.1 952.6C159.667 952.133 158.35 951.533 157.15 950.8C155.95 950.067 154.967 949.1 154.2 947.9C153.467 946.7 153.1 945.167 153.1 943.3C153.1 941.3 153.633 939.483 154.7 937.85C155.8 936.183 157.433 934.867 159.6 933.9C161.8 932.9 164.55 932.4 167.85 932.4C170.05 932.4 172.217 932.667 174.35 933.2C176.483 933.7 178.367 934.467 180 935.5L177.5 941.65C175.867 940.717 174.233 940.033 172.6 939.6C170.967 939.133 169.367 938.9 167.8 938.9C166.233 938.9 164.95 939.083 163.95 939.45C162.95 939.817 162.233 940.3 161.8 940.9C161.367 941.467 161.15 942.133 161.15 942.9C161.15 943.8 161.517 944.533 162.25 945.1C162.983 945.633 163.95 946.067 165.15 946.4C166.35 946.733 167.667 947.067 169.1 947.4C170.567 947.733 172.017 948.117 173.45 948.55C174.917 948.983 176.25 949.567 177.45 950.3C178.65 951.033 179.617 952 180.35 953.2C181.117 954.4 181.5 955.917 181.5 957.75C181.5 959.717 180.95 961.517 179.85 963.15C178.75 964.783 177.1 966.1 174.9 967.1C172.733 968.1 169.983 968.6 166.65 968.6ZM202.985 968V962.75L202.485 961.6V952.2C202.485 950.533 201.968 949.233 200.935 948.3C199.935 947.367 198.385 946.9 196.285 946.9C194.851 946.9 193.435 947.133 192.035 947.6C190.668 948.033 189.501 948.633 188.535 949.4L185.735 943.95C187.201 942.917 188.968 942.117 191.035 941.55C193.101 940.983 195.201 940.7 197.335 940.7C201.435 940.7 204.618 941.667 206.885 943.6C209.151 945.533 210.285 948.55 210.285 952.65V968H202.985ZM194.785 968.4C192.685 968.4 190.885 968.05 189.385 967.35C187.885 966.617 186.735 965.633 185.935 964.4C185.135 963.167 184.735 961.783 184.735 960.25C184.735 958.65 185.118 957.25 185.885 956.05C186.685 954.85 187.935 953.917 189.635 953.25C191.335 952.55 193.551 952.2 196.285 952.2H203.435V956.75H197.135C195.301 956.75 194.035 957.05 193.335 957.65C192.668 958.25 192.335 959 192.335 959.9C192.335 960.9 192.718 961.7 193.485 962.3C194.285 962.867 195.368 963.15 196.735 963.15C198.035 963.15 199.201 962.85 200.235 962.25C201.268 961.617 202.018 960.7 202.485 959.5L203.685 963.1C203.118 964.833 202.085 966.15 200.585 967.05C199.085 967.95 197.151 968.4 194.785 968.4ZM217.344 968V930.9H225.144V968H217.344ZM232.383 968V930.9H240.183V968H232.383ZM260.772 968.4C257.706 968.4 255.006 967.8 252.672 966.6C250.372 965.4 248.589 963.767 247.322 961.7C246.056 959.6 245.422 957.217 245.422 954.55C245.422 951.85 246.039 949.467 247.272 947.4C248.539 945.3 250.256 943.667 252.422 942.5C254.589 941.3 257.039 940.7 259.772 940.7C262.406 940.7 264.772 941.267 266.872 942.4C269.006 943.5 270.689 945.1 271.922 947.2C273.156 949.267 273.772 951.75 273.772 954.65C273.772 954.95 273.756 955.3 273.722 955.7C273.689 956.067 273.656 956.417 273.622 956.75H251.772V952.2H269.522L266.522 953.55C266.522 952.15 266.239 950.933 265.672 949.9C265.106 948.867 264.322 948.067 263.322 947.5C262.322 946.9 261.156 946.6 259.822 946.6C258.489 946.6 257.306 946.9 256.272 947.5C255.272 948.067 254.489 948.883 253.922 949.95C253.356 950.983 253.072 952.217 253.072 953.65V954.85C253.072 956.317 253.389 957.617 254.022 958.75C254.689 959.85 255.606 960.7 256.772 961.3C257.972 961.867 259.372 962.15 260.972 962.15C262.406 962.15 263.656 961.933 264.722 961.5C265.822 961.067 266.822 960.417 267.722 959.55L271.872 964.05C270.639 965.45 269.089 966.533 267.222 967.3C265.356 968.033 263.206 968.4 260.772 968.4ZM306.475 968.6C303.609 968.6 301.042 967.9 298.775 966.5C296.509 965.067 294.725 963 293.425 960.3C292.125 957.6 291.475 954.333 291.475 950.5C291.475 946.667 292.125 943.4 293.425 940.7C294.725 938 296.509 935.95 298.775 934.55C301.042 933.117 303.609 932.4 306.475 932.4C309.375 932.4 311.942 933.117 314.175 934.55C316.442 935.95 318.225 938 319.525 940.7C320.825 943.4 321.475 946.667 321.475 950.5C321.475 954.333 320.825 957.6 319.525 960.3C318.225 963 316.442 965.067 314.175 966.5C311.942 967.9 309.375 968.6 306.475 968.6ZM306.475 961.75C307.842 961.75 309.025 961.367 310.025 960.6C311.059 959.833 311.859 958.617 312.425 956.95C313.025 955.283 313.325 953.133 313.325 950.5C313.325 947.867 313.025 945.717 312.425 944.05C311.859 942.383 311.059 941.167 310.025 940.4C309.025 939.633 307.842 939.25 306.475 939.25C305.142 939.25 303.959 939.633 302.925 940.4C301.925 941.167 301.125 942.383 300.525 944.05C299.959 945.717 299.675 947.867 299.675 950.5C299.675 953.133 299.959 955.283 300.525 956.95C301.125 958.617 301.925 959.833 302.925 960.6C303.959 961.367 305.142 961.75 306.475 961.75ZM337.311 968.6C334.878 968.6 332.461 968.283 330.061 967.65C327.694 966.983 325.661 966.05 323.961 964.85L327.161 958.65C328.494 959.617 330.028 960.383 331.761 960.95C333.528 961.517 335.311 961.8 337.111 961.8C339.144 961.8 340.744 961.4 341.911 960.6C343.078 959.8 343.661 958.683 343.661 957.25C343.661 956.35 343.428 955.55 342.961 954.85C342.494 954.15 341.661 953.617 340.461 953.25C339.294 952.883 337.644 952.7 335.511 952.7H326.561L328.361 933H349.711V939.5H331.261L335.461 935.8L334.211 949.85L330.011 946.15H337.411C340.878 946.15 343.661 946.633 345.761 947.6C347.894 948.533 349.444 949.817 350.411 951.45C351.378 953.083 351.861 954.933 351.861 957C351.861 959.067 351.344 960.983 350.311 962.75C349.278 964.483 347.678 965.9 345.511 967C343.378 968.067 340.644 968.6 337.311 968.6Z" fill="white"/>
<path d="M1766.65 1667.6C1763.85 1667.6 1761.17 1667.23 1758.6 1666.5C1756.03 1665.73 1753.97 1664.75 1752.4 1663.55L1755.15 1657.45C1756.65 1658.52 1758.42 1659.4 1760.45 1660.1C1762.52 1660.77 1764.6 1661.1 1766.7 1661.1C1768.3 1661.1 1769.58 1660.95 1770.55 1660.65C1771.55 1660.32 1772.28 1659.87 1772.75 1659.3C1773.22 1658.73 1773.45 1658.08 1773.45 1657.35C1773.45 1656.42 1773.08 1655.68 1772.35 1655.15C1771.62 1654.58 1770.65 1654.13 1769.45 1653.8C1768.25 1653.43 1766.92 1653.1 1765.45 1652.8C1764.02 1652.47 1762.57 1652.07 1761.1 1651.6C1759.67 1651.13 1758.35 1650.53 1757.15 1649.8C1755.95 1649.07 1754.97 1648.1 1754.2 1646.9C1753.47 1645.7 1753.1 1644.17 1753.1 1642.3C1753.1 1640.3 1753.63 1638.48 1754.7 1636.85C1755.8 1635.18 1757.43 1633.87 1759.6 1632.9C1761.8 1631.9 1764.55 1631.4 1767.85 1631.4C1770.05 1631.4 1772.22 1631.67 1774.35 1632.2C1776.48 1632.7 1778.37 1633.47 1780 1634.5L1777.5 1640.65C1775.87 1639.72 1774.23 1639.03 1772.6 1638.6C1770.97 1638.13 1769.37 1637.9 1767.8 1637.9C1766.23 1637.9 1764.95 1638.08 1763.95 1638.45C1762.95 1638.82 1762.23 1639.3 1761.8 1639.9C1761.37 1640.47 1761.15 1641.13 1761.15 1641.9C1761.15 1642.8 1761.52 1643.53 1762.25 1644.1C1762.98 1644.63 1763.95 1645.07 1765.15 1645.4C1766.35 1645.73 1767.67 1646.07 1769.1 1646.4C1770.57 1646.73 1772.02 1647.12 1773.45 1647.55C1774.92 1647.98 1776.25 1648.57 1777.45 1649.3C1778.65 1650.03 1779.62 1651 1780.35 1652.2C1781.12 1653.4 1781.5 1654.92 1781.5 1656.75C1781.5 1658.72 1780.95 1660.52 1779.85 1662.15C1778.75 1663.78 1777.1 1665.1 1774.9 1666.1C1772.73 1667.1 1769.98 1667.6 1766.65 1667.6ZM1802.98 1667V1661.75L1802.48 1660.6V1651.2C1802.48 1649.53 1801.97 1648.23 1800.93 1647.3C1799.93 1646.37 1798.38 1645.9 1796.28 1645.9C1794.85 1645.9 1793.43 1646.13 1792.03 1646.6C1790.67 1647.03 1789.5 1647.63 1788.53 1648.4L1785.73 1642.95C1787.2 1641.92 1788.97 1641.12 1791.03 1640.55C1793.1 1639.98 1795.2 1639.7 1797.33 1639.7C1801.43 1639.7 1804.62 1640.67 1806.88 1642.6C1809.15 1644.53 1810.28 1647.55 1810.28 1651.65V1667H1802.98ZM1794.78 1667.4C1792.68 1667.4 1790.88 1667.05 1789.38 1666.35C1787.88 1665.62 1786.73 1664.63 1785.93 1663.4C1785.13 1662.17 1784.73 1660.78 1784.73 1659.25C1784.73 1657.65 1785.12 1656.25 1785.88 1655.05C1786.68 1653.85 1787.93 1652.92 1789.63 1652.25C1791.33 1651.55 1793.55 1651.2 1796.28 1651.2H1803.43V1655.75H1797.13C1795.3 1655.75 1794.03 1656.05 1793.33 1656.65C1792.67 1657.25 1792.33 1658 1792.33 1658.9C1792.33 1659.9 1792.72 1660.7 1793.48 1661.3C1794.28 1661.87 1795.37 1662.15 1796.73 1662.15C1798.03 1662.15 1799.2 1661.85 1800.23 1661.25C1801.27 1660.62 1802.02 1659.7 1802.48 1658.5L1803.68 1662.1C1803.12 1663.83 1802.08 1665.15 1800.58 1666.05C1799.08 1666.95 1797.15 1667.4 1794.78 1667.4ZM1817.34 1667V1629.9H1825.14V1667H1817.34ZM1832.38 1667V1629.9H1840.18V1667H1832.38ZM1860.77 1667.4C1857.71 1667.4 1855.01 1666.8 1852.67 1665.6C1850.37 1664.4 1848.59 1662.77 1847.32 1660.7C1846.06 1658.6 1845.42 1656.22 1845.42 1653.55C1845.42 1650.85 1846.04 1648.47 1847.27 1646.4C1848.54 1644.3 1850.26 1642.67 1852.42 1641.5C1854.59 1640.3 1857.04 1639.7 1859.77 1639.7C1862.41 1639.7 1864.77 1640.27 1866.87 1641.4C1869.01 1642.5 1870.69 1644.1 1871.92 1646.2C1873.16 1648.27 1873.77 1650.75 1873.77 1653.65C1873.77 1653.95 1873.76 1654.3 1873.72 1654.7C1873.69 1655.07 1873.66 1655.42 1873.62 1655.75H1851.77V1651.2H1869.52L1866.52 1652.55C1866.52 1651.15 1866.24 1649.93 1865.67 1648.9C1865.11 1647.87 1864.32 1647.07 1863.32 1646.5C1862.32 1645.9 1861.16 1645.6 1859.82 1645.6C1858.49 1645.6 1857.31 1645.9 1856.27 1646.5C1855.27 1647.07 1854.49 1647.88 1853.92 1648.95C1853.36 1649.98 1853.07 1651.22 1853.07 1652.65V1653.85C1853.07 1655.32 1853.39 1656.62 1854.02 1657.75C1854.69 1658.85 1855.61 1659.7 1856.77 1660.3C1857.97 1660.87 1859.37 1661.15 1860.97 1661.15C1862.41 1661.15 1863.66 1660.93 1864.72 1660.5C1865.82 1660.07 1866.82 1659.42 1867.72 1658.55L1871.87 1663.05C1870.64 1664.45 1869.09 1665.53 1867.22 1666.3C1865.36 1667.03 1863.21 1667.4 1860.77 1667.4ZM1906.48 1667.6C1903.61 1667.6 1901.04 1666.9 1898.78 1665.5C1896.51 1664.07 1894.73 1662 1893.43 1659.3C1892.13 1656.6 1891.48 1653.33 1891.48 1649.5C1891.48 1645.67 1892.13 1642.4 1893.43 1639.7C1894.73 1637 1896.51 1634.95 1898.78 1633.55C1901.04 1632.12 1903.61 1631.4 1906.48 1631.4C1909.38 1631.4 1911.94 1632.12 1914.18 1633.55C1916.44 1634.95 1918.23 1637 1919.53 1639.7C1920.83 1642.4 1921.48 1645.67 1921.48 1649.5C1921.48 1653.33 1920.83 1656.6 1919.53 1659.3C1918.23 1662 1916.44 1664.07 1914.18 1665.5C1911.94 1666.9 1909.38 1667.6 1906.48 1667.6ZM1906.48 1660.75C1907.84 1660.75 1909.03 1660.37 1910.03 1659.6C1911.06 1658.83 1911.86 1657.62 1912.43 1655.95C1913.03 1654.28 1913.33 1652.13 1913.33 1649.5C1913.33 1646.87 1913.03 1644.72 1912.43 1643.05C1911.86 1641.38 1911.06 1640.17 1910.03 1639.4C1909.03 1638.63 1907.84 1638.25 1906.48 1638.25C1905.14 1638.25 1903.96 1638.63 1902.93 1639.4C1901.93 1640.17 1901.13 1641.38 1900.53 1643.05C1899.96 1644.72 1899.68 1646.87 1899.68 1649.5C1899.68 1652.13 1899.96 1654.28 1900.53 1655.95C1901.13 1657.62 1901.93 1658.83 1902.93 1659.6C1903.96 1660.37 1905.14 1660.75 1906.48 1660.75ZM1937.71 1631.4C1940.94 1631.4 1943.73 1632.07 1946.06 1633.4C1948.39 1634.73 1950.19 1636.68 1951.46 1639.25C1952.73 1641.78 1953.36 1644.95 1953.36 1648.75C1953.36 1652.78 1952.59 1656.2 1951.06 1659C1949.56 1661.8 1947.48 1663.93 1944.81 1665.4C1942.14 1666.87 1939.04 1667.6 1935.51 1667.6C1933.68 1667.6 1931.91 1667.4 1930.21 1667C1928.51 1666.6 1927.04 1666 1925.81 1665.2L1928.81 1659.25C1929.78 1659.92 1930.81 1660.38 1931.91 1660.65C1933.01 1660.88 1934.16 1661 1935.36 1661C1938.36 1661 1940.74 1660.08 1942.51 1658.25C1944.31 1656.42 1945.21 1653.7 1945.21 1650.1C1945.21 1649.5 1945.19 1648.83 1945.16 1648.1C1945.13 1647.37 1945.04 1646.63 1944.91 1645.9L1947.11 1648C1946.54 1649.3 1945.74 1650.4 1944.71 1651.3C1943.68 1652.17 1942.48 1652.83 1941.11 1653.3C1939.74 1653.73 1938.21 1653.95 1936.51 1653.95C1934.28 1653.95 1932.24 1653.5 1930.41 1652.6C1928.61 1651.7 1927.16 1650.43 1926.06 1648.8C1924.99 1647.17 1924.46 1645.25 1924.46 1643.05C1924.46 1640.65 1925.04 1638.58 1926.21 1636.85C1927.41 1635.12 1929.01 1633.78 1931.01 1632.85C1933.04 1631.88 1935.28 1631.4 1937.71 1631.4ZM1938.21 1637.45C1937.04 1637.45 1936.03 1637.67 1935.16 1638.1C1934.29 1638.5 1933.61 1639.1 1933.11 1639.9C1932.61 1640.67 1932.36 1641.58 1932.36 1642.65C1932.36 1644.25 1932.89 1645.53 1933.96 1646.5C1935.06 1647.43 1936.51 1647.9 1938.31 1647.9C1939.48 1647.9 1940.51 1647.68 1941.41 1647.25C1942.34 1646.78 1943.06 1646.15 1943.56 1645.35C1944.06 1644.55 1944.31 1643.65 1944.31 1642.65C1944.31 1641.65 1944.06 1640.77 1943.56 1640C1943.09 1639.2 1942.41 1638.58 1941.51 1638.15C1940.61 1637.68 1939.51 1637.45 1938.21 1637.45Z" fill="white"/>
<path d="M2772.65 1667.6C2769.85 1667.6 2767.17 1667.23 2764.6 1666.5C2762.03 1665.73 2759.97 1664.75 2758.4 1663.55L2761.15 1657.45C2762.65 1658.52 2764.42 1659.4 2766.45 1660.1C2768.52 1660.77 2770.6 1661.1 2772.7 1661.1C2774.3 1661.1 2775.58 1660.95 2776.55 1660.65C2777.55 1660.32 2778.28 1659.87 2778.75 1659.3C2779.22 1658.73 2779.45 1658.08 2779.45 1657.35C2779.45 1656.42 2779.08 1655.68 2778.35 1655.15C2777.62 1654.58 2776.65 1654.13 2775.45 1653.8C2774.25 1653.43 2772.92 1653.1 2771.45 1652.8C2770.02 1652.47 2768.57 1652.07 2767.1 1651.6C2765.67 1651.13 2764.35 1650.53 2763.15 1649.8C2761.95 1649.07 2760.97 1648.1 2760.2 1646.9C2759.47 1645.7 2759.1 1644.17 2759.1 1642.3C2759.1 1640.3 2759.63 1638.48 2760.7 1636.85C2761.8 1635.18 2763.43 1633.87 2765.6 1632.9C2767.8 1631.9 2770.55 1631.4 2773.85 1631.4C2776.05 1631.4 2778.22 1631.67 2780.35 1632.2C2782.48 1632.7 2784.37 1633.47 2786 1634.5L2783.5 1640.65C2781.87 1639.72 2780.23 1639.03 2778.6 1638.6C2776.97 1638.13 2775.37 1637.9 2773.8 1637.9C2772.23 1637.9 2770.95 1638.08 2769.95 1638.45C2768.95 1638.82 2768.23 1639.3 2767.8 1639.9C2767.37 1640.47 2767.15 1641.13 2767.15 1641.9C2767.15 1642.8 2767.52 1643.53 2768.25 1644.1C2768.98 1644.63 2769.95 1645.07 2771.15 1645.4C2772.35 1645.73 2773.67 1646.07 2775.1 1646.4C2776.57 1646.73 2778.02 1647.12 2779.45 1647.55C2780.92 1647.98 2782.25 1648.57 2783.45 1649.3C2784.65 1650.03 2785.62 1651 2786.35 1652.2C2787.12 1653.4 2787.5 1654.92 2787.5 1656.75C2787.5 1658.72 2786.95 1660.52 2785.85 1662.15C2784.75 1663.78 2783.1 1665.1 2780.9 1666.1C2778.73 1667.1 2775.98 1667.6 2772.65 1667.6ZM2808.98 1667V1661.75L2808.48 1660.6V1651.2C2808.48 1649.53 2807.97 1648.23 2806.93 1647.3C2805.93 1646.37 2804.38 1645.9 2802.28 1645.9C2800.85 1645.9 2799.43 1646.13 2798.03 1646.6C2796.67 1647.03 2795.5 1647.63 2794.53 1648.4L2791.73 1642.95C2793.2 1641.92 2794.97 1641.12 2797.03 1640.55C2799.1 1639.98 2801.2 1639.7 2803.33 1639.7C2807.43 1639.7 2810.62 1640.67 2812.88 1642.6C2815.15 1644.53 2816.28 1647.55 2816.28 1651.65V1667H2808.98ZM2800.78 1667.4C2798.68 1667.4 2796.88 1667.05 2795.38 1666.35C2793.88 1665.62 2792.73 1664.63 2791.93 1663.4C2791.13 1662.17 2790.73 1660.78 2790.73 1659.25C2790.73 1657.65 2791.12 1656.25 2791.88 1655.05C2792.68 1653.85 2793.93 1652.92 2795.63 1652.25C2797.33 1651.55 2799.55 1651.2 2802.28 1651.2H2809.43V1655.75H2803.13C2801.3 1655.75 2800.03 1656.05 2799.33 1656.65C2798.67 1657.25 2798.33 1658 2798.33 1658.9C2798.33 1659.9 2798.72 1660.7 2799.48 1661.3C2800.28 1661.87 2801.37 1662.15 2802.73 1662.15C2804.03 1662.15 2805.2 1661.85 2806.23 1661.25C2807.27 1660.62 2808.02 1659.7 2808.48 1658.5L2809.68 1662.1C2809.12 1663.83 2808.08 1665.15 2806.58 1666.05C2805.08 1666.95 2803.15 1667.4 2800.78 1667.4ZM2823.34 1667V1629.9H2831.14V1667H2823.34ZM2838.38 1667V1629.9H2846.18V1667H2838.38ZM2866.77 1667.4C2863.71 1667.4 2861.01 1666.8 2858.67 1665.6C2856.37 1664.4 2854.59 1662.77 2853.32 1660.7C2852.06 1658.6 2851.42 1656.22 2851.42 1653.55C2851.42 1650.85 2852.04 1648.47 2853.27 1646.4C2854.54 1644.3 2856.26 1642.67 2858.42 1641.5C2860.59 1640.3 2863.04 1639.7 2865.77 1639.7C2868.41 1639.7 2870.77 1640.27 2872.87 1641.4C2875.01 1642.5 2876.69 1644.1 2877.92 1646.2C2879.16 1648.27 2879.77 1650.75 2879.77 1653.65C2879.77 1653.95 2879.76 1654.3 2879.72 1654.7C2879.69 1655.07 2879.66 1655.42 2879.62 1655.75H2857.77V1651.2H2875.52L2872.52 1652.55C2872.52 1651.15 2872.24 1649.93 2871.67 1648.9C2871.11 1647.87 2870.32 1647.07 2869.32 1646.5C2868.32 1645.9 2867.16 1645.6 2865.82 1645.6C2864.49 1645.6 2863.31 1645.9 2862.27 1646.5C2861.27 1647.07 2860.49 1647.88 2859.92 1648.95C2859.36 1649.98 2859.07 1651.22 2859.07 1652.65V1653.85C2859.07 1655.32 2859.39 1656.62 2860.02 1657.75C2860.69 1658.85 2861.61 1659.7 2862.77 1660.3C2863.97 1660.87 2865.37 1661.15 2866.97 1661.15C2868.41 1661.15 2869.66 1660.93 2870.72 1660.5C2871.82 1660.07 2872.82 1659.42 2873.72 1658.55L2877.87 1663.05C2876.64 1664.45 2875.09 1665.53 2873.22 1666.3C2871.36 1667.03 2869.21 1667.4 2866.77 1667.4ZM2902.88 1667V1635L2906.38 1638.5H2895.88V1632H2910.98V1667H2902.88ZM2932.06 1667.6C2929.19 1667.6 2926.62 1666.9 2924.36 1665.5C2922.09 1664.07 2920.31 1662 2919.01 1659.3C2917.71 1656.6 2917.06 1653.33 2917.06 1649.5C2917.06 1645.67 2917.71 1642.4 2919.01 1639.7C2920.31 1637 2922.09 1634.95 2924.36 1633.55C2926.62 1632.12 2929.19 1631.4 2932.06 1631.4C2934.96 1631.4 2937.52 1632.12 2939.76 1633.55C2942.02 1634.95 2943.81 1637 2945.11 1639.7C2946.41 1642.4 2947.06 1645.67 2947.06 1649.5C2947.06 1653.33 2946.41 1656.6 2945.11 1659.3C2943.81 1662 2942.02 1664.07 2939.76 1665.5C2937.52 1666.9 2934.96 1667.6 2932.06 1667.6ZM2932.06 1660.75C2933.42 1660.75 2934.61 1660.37 2935.61 1659.6C2936.64 1658.83 2937.44 1657.62 2938.01 1655.95C2938.61 1654.28 2938.91 1652.13 2938.91 1649.5C2938.91 1646.87 2938.61 1644.72 2938.01 1643.05C2937.44 1641.38 2936.64 1640.17 2935.61 1639.4C2934.61 1638.63 2933.42 1638.25 2932.06 1638.25C2930.72 1638.25 2929.54 1638.63 2928.51 1639.4C2927.51 1640.17 2926.71 1641.38 2926.11 1643.05C2925.54 1644.72 2925.26 1646.87 2925.26 1649.5C2925.26 1652.13 2925.54 1654.28 2926.11 1655.95C2926.71 1657.62 2927.51 1658.83 2928.51 1659.6C2929.54 1660.37 2930.72 1660.75 2932.06 1660.75Z" fill="white"/>
<path d="M2263.4 1667V1638.6H2252.2V1632H2282.7V1638.6H2271.5V1667H2263.4ZM2296.57 1667.4C2293.71 1667.4 2291.16 1666.8 2288.92 1665.6C2286.72 1664.4 2284.97 1662.77 2283.67 1660.7C2282.41 1658.6 2281.77 1656.22 2281.77 1653.55C2281.77 1650.85 2282.41 1648.47 2283.67 1646.4C2284.97 1644.3 2286.72 1642.67 2288.92 1641.5C2291.16 1640.3 2293.71 1639.7 2296.57 1639.7C2299.41 1639.7 2301.94 1640.3 2304.17 1641.5C2306.41 1642.67 2308.16 1644.28 2309.42 1646.35C2310.69 1648.42 2311.32 1650.82 2311.32 1653.55C2311.32 1656.22 2310.69 1658.6 2309.42 1660.7C2308.16 1662.77 2306.41 1664.4 2304.17 1665.6C2301.94 1666.8 2299.41 1667.4 2296.57 1667.4ZM2296.57 1661C2297.87 1661 2299.04 1660.7 2300.07 1660.1C2301.11 1659.5 2301.92 1658.65 2302.52 1657.55C2303.12 1656.42 2303.42 1655.08 2303.42 1653.55C2303.42 1651.98 2303.12 1650.65 2302.52 1649.55C2301.92 1648.45 2301.11 1647.6 2300.07 1647C2299.04 1646.4 2297.87 1646.1 2296.57 1646.1C2295.27 1646.1 2294.11 1646.4 2293.07 1647C2292.04 1647.6 2291.21 1648.45 2290.57 1649.55C2289.97 1650.65 2289.67 1651.98 2289.67 1653.55C2289.67 1655.08 2289.97 1656.42 2290.57 1657.55C2291.21 1658.65 2292.04 1659.5 2293.07 1660.1C2294.11 1660.7 2295.27 1661 2296.57 1661ZM2316.54 1667V1640.1H2324.34V1667H2316.54ZM2320.44 1636.35C2319 1636.35 2317.84 1635.93 2316.94 1635.1C2316.04 1634.27 2315.59 1633.23 2315.59 1632C2315.59 1630.77 2316.04 1629.73 2316.94 1628.9C2317.84 1628.07 2319 1627.65 2320.44 1627.65C2321.87 1627.65 2323.04 1628.05 2323.94 1628.85C2324.84 1629.62 2325.29 1630.62 2325.29 1631.85C2325.29 1633.15 2324.84 1634.23 2323.94 1635.1C2323.07 1635.93 2321.9 1636.35 2320.44 1636.35ZM2331.58 1667V1629.9H2339.38V1667H2331.58ZM2346.62 1667V1629.9H2354.42V1667H2346.62ZM2375 1667.4C2371.94 1667.4 2369.24 1666.8 2366.9 1665.6C2364.6 1664.4 2362.82 1662.77 2361.55 1660.7C2360.29 1658.6 2359.65 1656.22 2359.65 1653.55C2359.65 1650.85 2360.27 1648.47 2361.5 1646.4C2362.77 1644.3 2364.49 1642.67 2366.65 1641.5C2368.82 1640.3 2371.27 1639.7 2374 1639.7C2376.64 1639.7 2379 1640.27 2381.1 1641.4C2383.24 1642.5 2384.92 1644.1 2386.15 1646.2C2387.39 1648.27 2388 1650.75 2388 1653.65C2388 1653.95 2387.99 1654.3 2387.95 1654.7C2387.92 1655.07 2387.89 1655.42 2387.85 1655.75H2366V1651.2H2383.75L2380.75 1652.55C2380.75 1651.15 2380.47 1649.93 2379.9 1648.9C2379.34 1647.87 2378.55 1647.07 2377.55 1646.5C2376.55 1645.9 2375.39 1645.6 2374.05 1645.6C2372.72 1645.6 2371.54 1645.9 2370.5 1646.5C2369.5 1647.07 2368.72 1647.88 2368.15 1648.95C2367.59 1649.98 2367.3 1651.22 2367.3 1652.65V1653.85C2367.3 1655.32 2367.62 1656.62 2368.25 1657.75C2368.92 1658.85 2369.84 1659.7 2371 1660.3C2372.2 1660.87 2373.6 1661.15 2375.2 1661.15C2376.64 1661.15 2377.89 1660.93 2378.95 1660.5C2380.05 1660.07 2381.05 1659.42 2381.95 1658.55L2386.1 1663.05C2384.87 1664.45 2383.32 1665.53 2381.45 1666.3C2379.59 1667.03 2377.44 1667.4 2375 1667.4ZM2404.2 1667.4C2401.03 1667.4 2398.56 1666.6 2396.8 1665C2395.03 1663.37 2394.15 1660.95 2394.15 1657.75V1634.15H2401.95V1657.65C2401.95 1658.78 2402.25 1659.67 2402.85 1660.3C2403.45 1660.9 2404.26 1661.2 2405.3 1661.2C2406.53 1661.2 2407.58 1660.87 2408.45 1660.2L2410.55 1665.7C2409.75 1666.27 2408.78 1666.7 2407.65 1667C2406.55 1667.27 2405.4 1667.4 2404.2 1667.4ZM2390 1646.7V1640.7H2408.65V1646.7H2390ZM2427.14 1667V1661.75L2440.64 1649C2441.7 1648.03 2442.49 1647.17 2442.99 1646.4C2443.49 1645.63 2443.82 1644.93 2443.99 1644.3C2444.19 1643.67 2444.29 1643.08 2444.29 1642.55C2444.29 1641.15 2443.8 1640.08 2442.84 1639.35C2441.9 1638.58 2440.52 1638.2 2438.69 1638.2C2437.22 1638.2 2435.85 1638.48 2434.59 1639.05C2433.35 1639.62 2432.3 1640.5 2431.44 1641.7L2425.54 1637.9C2426.87 1635.9 2428.74 1634.32 2431.14 1633.15C2433.54 1631.98 2436.3 1631.4 2439.44 1631.4C2442.04 1631.4 2444.3 1631.83 2446.24 1632.7C2448.2 1633.53 2449.72 1634.72 2450.79 1636.25C2451.89 1637.78 2452.44 1639.62 2452.44 1641.75C2452.44 1642.88 2452.29 1644.02 2451.99 1645.15C2451.72 1646.25 2451.15 1647.42 2450.29 1648.65C2449.45 1649.88 2448.22 1651.27 2446.59 1652.8L2435.39 1663.35L2433.84 1660.4H2453.59V1667H2427.14Z" fill="white"/>
<path d="M666.4 267V238.6H655.2V232H685.7V238.6H674.5V267H666.4ZM699.574 267.4C696.707 267.4 694.157 266.8 691.924 265.6C689.724 264.4 687.974 262.767 686.674 260.7C685.407 258.6 684.774 256.217 684.774 253.55C684.774 250.85 685.407 248.467 686.674 246.4C687.974 244.3 689.724 242.667 691.924 241.5C694.157 240.3 696.707 239.7 699.574 239.7C702.407 239.7 704.94 240.3 707.174 241.5C709.407 242.667 711.157 244.283 712.424 246.35C713.69 248.417 714.324 250.817 714.324 253.55C714.324 256.217 713.69 258.6 712.424 260.7C711.157 262.767 709.407 264.4 707.174 265.6C704.94 266.8 702.407 267.4 699.574 267.4ZM699.574 261C700.874 261 702.04 260.7 703.074 260.1C704.107 259.5 704.924 258.65 705.524 257.55C706.124 256.417 706.424 255.083 706.424 253.55C706.424 251.983 706.124 250.65 705.524 249.55C704.924 248.45 704.107 247.6 703.074 247C702.04 246.4 700.874 246.1 699.574 246.1C698.274 246.1 697.107 246.4 696.074 247C695.04 247.6 694.207 248.45 693.574 249.55C692.974 250.65 692.674 251.983 692.674 253.55C692.674 255.083 692.974 256.417 693.574 257.55C694.207 258.65 695.04 259.5 696.074 260.1C697.107 260.7 698.274 261 699.574 261ZM719.538 267V240.1H727.338V267H719.538ZM723.438 236.35C722.004 236.35 720.838 235.933 719.938 235.1C719.038 234.267 718.588 233.233 718.588 232C718.588 230.767 719.038 229.733 719.938 228.9C720.838 228.067 722.004 227.65 723.438 227.65C724.871 227.65 726.038 228.05 726.938 228.85C727.838 229.617 728.288 230.617 728.288 231.85C728.288 233.15 727.838 234.233 726.938 235.1C726.071 235.933 724.904 236.35 723.438 236.35ZM734.577 267V229.9H742.377V267H734.577ZM749.616 267V229.9H757.416V267H749.616ZM778.005 267.4C774.938 267.4 772.238 266.8 769.905 265.6C767.605 264.4 765.821 262.767 764.555 260.7C763.288 258.6 762.655 256.217 762.655 253.55C762.655 250.85 763.271 248.467 764.505 246.4C765.771 244.3 767.488 242.667 769.655 241.5C771.821 240.3 774.271 239.7 777.005 239.7C779.638 239.7 782.005 240.267 784.105 241.4C786.238 242.5 787.921 244.1 789.155 246.2C790.388 248.267 791.005 250.75 791.005 253.65C791.005 253.95 790.988 254.3 790.955 254.7C790.921 255.067 790.888 255.417 790.855 255.75H769.005V251.2H786.755L783.755 252.55C783.755 251.15 783.471 249.933 782.905 248.9C782.338 247.867 781.555 247.067 780.555 246.5C779.555 245.9 778.388 245.6 777.055 245.6C775.721 245.6 774.538 245.9 773.505 246.5C772.505 247.067 771.721 247.883 771.155 248.95C770.588 249.983 770.305 251.217 770.305 252.65V253.85C770.305 255.317 770.621 256.617 771.255 257.75C771.921 258.85 772.838 259.7 774.005 260.3C775.205 260.867 776.605 261.15 778.205 261.15C779.638 261.15 780.888 260.933 781.955 260.5C783.055 260.067 784.055 259.417 784.955 258.55L789.105 263.05C787.871 264.45 786.321 265.533 784.455 266.3C782.588 267.033 780.438 267.4 778.005 267.4ZM807.198 267.4C804.031 267.4 801.564 266.6 799.798 265C798.031 263.367 797.148 260.95 797.148 257.75V234.15H804.948V257.65C804.948 258.783 805.248 259.667 805.848 260.3C806.448 260.9 807.264 261.2 808.298 261.2C809.531 261.2 810.581 260.867 811.448 260.2L813.548 265.7C812.748 266.267 811.781 266.7 810.648 267C809.548 267.267 808.398 267.4 807.198 267.4ZM792.998 246.7V240.7H811.648V246.7H792.998ZM835.836 267V235L839.336 238.5H828.836V232H843.936V267H835.836Z" fill="white"/>
</g>
<defs>
<filter id="filter0_d_116_4" x="0" y="0" width="3108" height="1908" filterUnits="userSpaceOnUse" color-interpolation-filters="sRGB">
<feFlood flood-opacity="0" result="BackgroundImageFix"/>
<feColorMatrix in="SourceAlpha" type="matrix" values="0 0 0 0 0 0 0 0 0 0 0 0 0 0 0 0 0 0 127 0" result="hardAlpha"/>
<feOffset dy="4"/>
<feGaussianBlur stdDeviation="2"/>
<feComposite in2="hardAlpha" operator="out"/>
<feColorMatrix type="matrix" values="0 0 0 0 0 0 0 0 0 0 0 0 0 0 0 0 0 0 0.25 0"/>
<feBlend mode="normal" in2="BackgroundImageFix" result="effect1_dropShadow_116_4"/>
<feBlend mode="normal" in="SourceGraphic" in2="effect1_dropShadow_116_4" result="shape"/>
</filter>
<linearGradient id="paint0_linear_116_4" x1="254" y1="700" x2="254" y2="1200" gradientUnits="userSpaceOnUse">
<stop stop-color="#0F1128"/>
<stop offset="1"/>
</linearGradient>
<linearGradient id="paint1_linear_116_4" x1="254" y1="0" x2="254" y2="500" gradientUnits="userSpaceOnUse">
<stop stop-color="#0F1128"/>
<stop offset="1"/>
</linearGradient>
<linearGradient id="paint2_linear_116_4" x1="854" y1="700" x2="854" y2="1200" gradientUnits="userSpaceOnUse">
<stop stop-color="#0F1128"/>
<stop offset="1"/>
</linearGradient>
<linearGradient id="paint3_linear_116_4" x1="1254" y1="0" x2="1254" y2="500" gradientUnits="userSpaceOnUse">
<stop stop-color="#0F1128"/>
<stop offset="1"/>
</linearGradient>
<linearGradient id="paint4_linear_116_4" x1="2254" y1="0" x2="2254" y2="500" gradientUnits="userSpaceOnUse">
<stop stop-color="#0F1128"/>
<stop offset="1"/>
</linearGradient>
<linearGradient id="paint5_linear_116_4" x1="2854" y1="0" x2="2854" y2="500" gradientUnits="userSpaceOnUse">
<stop stop-color="#0F1128"/>
<stop offset="1"/>
</linearGradient>
<linearGradient id="paint6_linear_116_4" x1="854" y1="700" x2="854" y2="1200" gradientUnits="userSpaceOnUse">
<stop stop-color="#0F1128"/>
<stop offset="1"/>
</linearGradient>
<linearGradient id="paint7_linear_116_4" x1="1054" y1="1400" x2="1054" y2="1900" gradientUnits="userSpaceOnUse">
<stop stop-color="#0F1128"/>
<stop offset="1"/>
</linearGradient>
<linearGradient id="paint8_linear_116_4" x1="2104" y1="700" x2="2104" y2="1200" gradientUnits="userSpaceOnUse">
<stop stop-color="#0F1128"/>
<stop offset="1"/>
</linearGradient>
<linearGradient id="paint9_linear_116_4" x1="754" y1="0" x2="754" y2="500" gradientUnits="userSpaceOnUse">
<stop stop-color="#0F1128"/>
<stop offset="1"/>
</linearGradient>
<linearGradient id="paint10_linear_116_4" x1="2354" y1="1400" x2="2354" y2="1900" gradientUnits="userSpaceOnUse">
<stop stop-color="#0F1128"/>
<stop offset="1"/>
</linearGradient>
<linearGradient id="paint11_linear_116_4" x1="2854" y1="700" x2="2854" y2="1200" gradientUnits="userSpaceOnUse">
<stop stop-color="#0F1128"/>
<stop offset="1"/>
</linearGradient>
<linearGradient id="paint12_linear_116_4" x1="2854" y1="1400" x2="2854" y2="1900" gradientUnits="userSpaceOnUse">
<stop stop-color="#0F1128"/>
<stop offset="1"/>
</linearGradient>
<linearGradient id="paint13_linear_116_4" x1="1854" y1="1400" x2="1854" y2="1900" gradientUnits="userSpaceOnUse">
<stop stop-color="#0F1128"/>
<stop offset="1"/>
</linearGradient>
<linearGradient id="paint14_linear_116_4" x1="254" y1="1400" x2="254" y2="1900" gradientUnits="userSpaceOnUse">
<stop stop-color="#0F1128"/>
<stop offset="1"/>
</linearGradient>
</defs>
</svg>
