<svg width="3100" height="1900" viewBox="0 0 3100 1900" fill="none" xmlns="http://www.w3.org/2000/svg">
<rect width="3100" height="1900" fill="#D9D9D9"/>
<rect x="2.5" y="702.5" width="495" height="495" fill="url(#paint0_linear_84_23)" stroke="#F9D76C" stroke-width="5"/>
<rect x="2.5" y="2.5" width="495" height="495" fill="url(#paint1_linear_84_23)" stroke="#F9D76C" stroke-width="5"/>
<rect x="602.5" y="702.5" width="495" height="495" fill="url(#paint2_linear_84_23)" stroke="#F9D76C" stroke-width="5"/>
<rect x="1002.5" y="2.5" width="495" height="495" fill="url(#paint3_linear_84_23)" stroke="#F9D76C" stroke-width="5"/>
<rect x="2002.5" y="2.5" width="495" height="495" fill="url(#paint4_linear_84_23)" stroke="#F9D76C" stroke-width="5"/>
<rect x="2602.5" y="2.5" width="495" height="495" fill="url(#paint5_linear_84_23)" stroke="#F9D76C" stroke-width="5"/>
<rect x="602.5" y="702.5" width="495" height="495" fill="url(#paint6_linear_84_23)" stroke="#F9D76C" stroke-width="5"/>
<rect x="702.5" y="1402.5" width="695" height="495" fill="url(#paint7_linear_84_23)" stroke="#F9D76C" stroke-width="5"/>
<rect x="1702.5" y="702.5" width="795" height="495" fill="url(#paint8_linear_84_23)" stroke="#F9D76C" stroke-width="5"/>
<rect x="602.5" y="2.5" width="295" height="495" fill="url(#paint9_linear_84_23)" stroke="#F9D76C" stroke-width="5"/>
<path d="M600 0H500V500H600V0Z" fill="#8453FA"/>
<mask id="path-13-inside-1_84_23" fill="white">
<path d="M600 700H500V1200H600V700Z"/>
</mask>
<path d="M600 700H500V1200H600V700Z" fill="#8453FA"/>
<path d="M600 705H500V695H600V705ZM500 1195H600V1205H500V1195Z" fill="#F9D76C" mask="url(#path-13-inside-1_84_23)"/>
<rect x="-2.5" y="2.5" width="95" height="95" transform="matrix(-1 0 0 1 295 400)" fill="#F9D76C" stroke="#F9D76C" stroke-width="5"/>
<rect x="-2.5" y="2.5" width="95" height="95" transform="matrix(-1 0 0 1 295 400)" fill="#F9D76C" stroke="#F9D76C" stroke-width="5"/>
<rect x="-2.5" y="2.5" width="95" height="95" transform="matrix(-1 0 0 1 1295 400)" fill="#F9D76C" stroke="#F9D76C" stroke-width="5"/>
<rect x="-2.5" y="2.5" width="95" height="95" transform="matrix(-1 0 0 1 295 700)" fill="#F9D76C" stroke="#F9D76C" stroke-width="5"/>
<rect x="-2.50362" y="-2.49638" width="95" height="95" transform="matrix(-0.00144795 -0.999999 -0.999999 0.00144795 1095.14 995.004)" fill="#F9D76C" stroke="#F9D76C" stroke-width="5"/>
<rect x="-2.50362" y="-2.49638" width="95" height="95" transform="matrix(-0.00144795 -0.999999 -0.999999 0.00144795 1095.14 995.004)" fill="#F9D76C" stroke="#F9D76C" stroke-width="5"/>
<rect x="-2.50362" y="-2.49638" width="95" height="95" transform="matrix(-0.00144795 -0.999999 -0.999999 0.00144795 1795.14 995.004)" fill="#F9D76C" stroke="#F9D76C" stroke-width="5"/>
<rect x="-2.50362" y="-2.49638" width="95" height="95" transform="matrix(-0.00144795 -0.999999 -0.999999 0.00144795 1095.14 1495)" fill="#F9D76C" stroke="#F9D76C" stroke-width="5"/>
<mask id="path-23-inside-2_84_23" fill="white">
<path d="M1000 0H900V500H1000V0Z"/>
</mask>
<path d="M1000 0H900V500H1000V0Z" fill="#8453FA"/>
<path d="M900 495H1000V505H900V495Z" fill="#F9D76C" mask="url(#path-23-inside-2_84_23)"/>
<mask id="path-25-inside-3_84_23" fill="white">
<path d="M2600 0H2500V500H2600V0Z"/>
</mask>
<path d="M2600 0H2500V500H2600V0Z" fill="#8453FA"/>
<path d="M2500 495H2600V505H2500V495Z" fill="#F9D76C" mask="url(#path-25-inside-3_84_23)"/>
<mask id="path-27-inside-4_84_23" fill="white">
<path d="M2600 700H2500V1200H2600V700Z"/>
</mask>
<path d="M2600 700H2500V1200H2600V700Z" fill="#8453FA"/>
<path d="M2600 705H2500V695H2600V705ZM2500 1195H2600V1205H2500V1195Z" fill="#F9D76C" mask="url(#path-27-inside-4_84_23)"/>
<mask id="path-29-inside-5_84_23" fill="white">
<path d="M2600 1400H2500V1900H2600V1400Z"/>
</mask>
<path d="M2600 1400H2500V1900H2600V1400Z" fill="#8453FA"/>
<path d="M2600 1405H2500V1395H2600V1405Z" fill="#F9D76C" mask="url(#path-29-inside-5_84_23)"/>
<mask id="path-31-inside-6_84_23" fill="white">
<path d="M2200 1400H2100V1900H2200V1400Z"/>
</mask>
<path d="M2200 1400H2100V1900H2200V1400Z" fill="#8453FA"/>
<path d="M2200 1405H2100V1395H2200V1405Z" fill="#F9D76C" mask="url(#path-31-inside-6_84_23)"/>
<mask id="path-33-inside-7_84_23" fill="white">
<path d="M1600 1400H1500V1900H1600V1400Z"/>
</mask>
<path d="M1600 1400H1500V1900H1600V1400Z" fill="#8453FA"/>
<path d="M1600 1405H1500V1395H1600V1405Z" fill="#F9D76C" mask="url(#path-33-inside-7_84_23)"/>
<mask id="path-35-inside-8_84_23" fill="white">
<path d="M1500 1400H1400V1900H1500V1400Z"/>
</mask>
<path d="M1500 1400H1400V1900H1500V1400Z" fill="#8453FA"/>
<path d="M1500 1405H1400V1395H1500V1405Z" fill="#F9D76C" mask="url(#path-35-inside-8_84_23)"/>
<mask id="path-37-inside-9_84_23" fill="white">
<path d="M700 1400H600V1900H700V1400Z"/>
</mask>
<path d="M700 1400H600V1900H700V1400Z" fill="#8453FA"/>
<path d="M700 1405H600V1395H700V1405Z" fill="#F9D76C" mask="url(#path-37-inside-9_84_23)"/>
<mask id="path-39-inside-10_84_23" fill="white">
<path d="M600 1400H500V1900H600V1400Z"/>
</mask>
<path d="M600 1400H500V1900H600V1400Z" fill="#8453FA"/>
<path d="M600 1405H500V1395H600V1405Z" fill="#F9D76C" mask="url(#path-39-inside-10_84_23)"/>
<rect x="2202.5" y="1402.5" width="295" height="495" fill="url(#paint10_linear_84_23)" stroke="#F9D76C" stroke-width="5"/>
<rect x="2602.5" y="702.5" width="495" height="495" fill="url(#paint11_linear_84_23)" stroke="#F9D76C" stroke-width="5"/>
<rect x="2602.5" y="1402.5" width="495" height="495" fill="url(#paint12_linear_84_23)" stroke="#F9D76C" stroke-width="5"/>
<rect x="1602.5" y="1402.5" width="495" height="495" fill="url(#paint13_linear_84_23)" stroke="#F9D76C" stroke-width="5"/>
<rect x="2.5" y="1402.5" width="495" height="495" fill="url(#paint14_linear_84_23)" stroke="#F9D76C" stroke-width="5"/>
<rect x="-2.50362" y="-2.49638" width="95" height="95" transform="matrix(-0.00144795 -0.999999 -0.999999 0.00144795 295.141 1495)" fill="#F9D76C" stroke="#F9D76C" stroke-width="5"/>
<rect x="-2.50362" y="-2.49638" width="95" height="95" transform="matrix(-0.00144795 -0.999999 -0.999999 0.00144795 1895.14 1495)" fill="#F9D76C" stroke="#F9D76C" stroke-width="5"/>
<rect x="-2.50362" y="-2.49638" width="95" height="95" transform="matrix(-0.00144795 -0.999999 -0.999999 0.00144795 2395.14 1495)" fill="#F9D76C" stroke="#F9D76C" stroke-width="5"/>
<rect x="-2.50362" y="-2.49638" width="95" height="95" transform="matrix(-0.00144795 -0.999999 -0.999999 0.00144795 2895.14 1495)" fill="#F9D76C" stroke="#F9D76C" stroke-width="5"/>
<rect x="-2.50362" y="-2.49638" width="95" height="95" transform="matrix(-0.00144795 -0.999999 -0.999999 0.00144795 2895.14 795.004)" fill="#F9D76C" stroke="#F9D76C" stroke-width="5"/>
<rect x="-2.50362" y="-2.49638" width="95" height="95" transform="matrix(-0.00144795 -0.999999 -0.999999 0.00144795 2895.14 488.004)" fill="#F9D76C" stroke="#F9D76C" stroke-width="5"/>
<rect x="-2.50362" y="-2.49638" width="95" height="95" transform="matrix(-0.00144795 -0.999999 -0.999999 0.00144795 2295.14 488.004)" fill="#F9D76C" stroke="#F9D76C" stroke-width="5"/>
<rect x="-2.50362" y="-2.49638" width="95" height="95" transform="matrix(-0.00144795 -0.999999 -0.999999 0.00144795 795.141 488.004)" fill="#F9D76C" stroke="#F9D76C" stroke-width="5"/>
<path d="M1894.65 968.6C1891.85 968.6 1889.17 968.233 1886.6 967.5C1884.03 966.733 1881.97 965.75 1880.4 964.55L1883.15 958.45C1884.65 959.517 1886.42 960.4 1888.45 961.1C1890.52 961.767 1892.6 962.1 1894.7 962.1C1896.3 962.1 1897.58 961.95 1898.55 961.65C1899.55 961.317 1900.28 960.867 1900.75 960.3C1901.22 959.733 1901.45 959.083 1901.45 958.35C1901.45 957.417 1901.08 956.683 1900.35 956.15C1899.62 955.583 1898.65 955.133 1897.45 954.8C1896.25 954.433 1894.92 954.1 1893.45 953.8C1892.02 953.467 1890.57 953.067 1889.1 952.6C1887.67 952.133 1886.35 951.533 1885.15 950.8C1883.95 950.067 1882.97 949.1 1882.2 947.9C1881.47 946.7 1881.1 945.167 1881.1 943.3C1881.1 941.3 1881.63 939.483 1882.7 937.85C1883.8 936.183 1885.43 934.867 1887.6 933.9C1889.8 932.9 1892.55 932.4 1895.85 932.4C1898.05 932.4 1900.22 932.667 1902.35 933.2C1904.48 933.7 1906.37 934.467 1908 935.5L1905.5 941.65C1903.87 940.717 1902.23 940.033 1900.6 939.6C1898.97 939.133 1897.37 938.9 1895.8 938.9C1894.23 938.9 1892.95 939.083 1891.95 939.45C1890.95 939.817 1890.23 940.3 1889.8 940.9C1889.37 941.467 1889.15 942.133 1889.15 942.9C1889.15 943.8 1889.52 944.533 1890.25 945.1C1890.98 945.633 1891.95 946.067 1893.15 946.4C1894.35 946.733 1895.67 947.067 1897.1 947.4C1898.57 947.733 1900.02 948.117 1901.45 948.55C1902.92 948.983 1904.25 949.567 1905.45 950.3C1906.65 951.033 1907.62 952 1908.35 953.2C1909.12 954.4 1909.5 955.917 1909.5 957.75C1909.5 959.717 1908.95 961.517 1907.85 963.15C1906.75 964.783 1905.1 966.1 1902.9 967.1C1900.73 968.1 1897.98 968.6 1894.65 968.6ZM1930.98 968V962.75L1930.48 961.6V952.2C1930.48 950.533 1929.97 949.233 1928.93 948.3C1927.93 947.367 1926.38 946.9 1924.28 946.9C1922.85 946.9 1921.43 947.133 1920.03 947.6C1918.67 948.033 1917.5 948.633 1916.53 949.4L1913.73 943.95C1915.2 942.917 1916.97 942.117 1919.03 941.55C1921.1 940.983 1923.2 940.7 1925.33 940.7C1929.43 940.7 1932.62 941.667 1934.88 943.6C1937.15 945.533 1938.28 948.55 1938.28 952.65V968H1930.98ZM1922.78 968.4C1920.68 968.4 1918.88 968.05 1917.38 967.35C1915.88 966.617 1914.73 965.633 1913.93 964.4C1913.13 963.167 1912.73 961.783 1912.73 960.25C1912.73 958.65 1913.12 957.25 1913.88 956.05C1914.68 954.85 1915.93 953.917 1917.63 953.25C1919.33 952.55 1921.55 952.2 1924.28 952.2H1931.43V956.75H1925.13C1923.3 956.75 1922.03 957.05 1921.33 957.65C1920.67 958.25 1920.33 959 1920.33 959.9C1920.33 960.9 1920.72 961.7 1921.48 962.3C1922.28 962.867 1923.37 963.15 1924.73 963.15C1926.03 963.15 1927.2 962.85 1928.23 962.25C1929.27 961.617 1930.02 960.7 1930.48 959.5L1931.68 963.1C1931.12 964.833 1930.08 966.15 1928.58 967.05C1927.08 967.95 1925.15 968.4 1922.78 968.4ZM1945.34 968V930.9H1953.14V968H1945.34ZM1960.38 968V930.9H1968.18V968H1960.38ZM1988.77 968.4C1985.71 968.4 1983.01 967.8 1980.67 966.6C1978.37 965.4 1976.59 963.767 1975.32 961.7C1974.06 959.6 1973.42 957.217 1973.42 954.55C1973.42 951.85 1974.04 949.467 1975.27 947.4C1976.54 945.3 1978.26 943.667 1980.42 942.5C1982.59 941.3 1985.04 940.7 1987.77 940.7C1990.41 940.7 1992.77 941.267 1994.87 942.4C1997.01 943.5 1998.69 945.1 1999.92 947.2C2001.16 949.267 2001.77 951.75 2001.77 954.65C2001.77 954.95 2001.76 955.3 2001.72 955.7C2001.69 956.067 2001.66 956.417 2001.62 956.75H1979.77V952.2H1997.52L1994.52 953.55C1994.52 952.15 1994.24 950.933 1993.67 949.9C1993.11 948.867 1992.32 948.067 1991.32 947.5C1990.32 946.9 1989.16 946.6 1987.82 946.6C1986.49 946.6 1985.31 946.9 1984.27 947.5C1983.27 948.067 1982.49 948.883 1981.92 949.95C1981.36 950.983 1981.07 952.217 1981.07 953.65V954.85C1981.07 956.317 1981.39 957.617 1982.02 958.75C1982.69 959.85 1983.61 960.7 1984.77 961.3C1985.97 961.867 1987.37 962.15 1988.97 962.15C1990.41 962.15 1991.66 961.933 1992.72 961.5C1993.82 961.067 1994.82 960.417 1995.72 959.55L1999.87 964.05C1998.64 965.45 1997.09 966.533 1995.22 967.3C1993.36 968.033 1991.21 968.4 1988.77 968.4ZM2038.43 968.6C2035.73 968.6 2033.21 968.167 2030.88 967.3C2028.58 966.4 2026.58 965.133 2024.88 963.5C2023.18 961.867 2021.84 959.95 2020.88 957.75C2019.94 955.55 2019.48 953.133 2019.48 950.5C2019.48 947.867 2019.94 945.45 2020.88 943.25C2021.84 941.05 2023.18 939.133 2024.88 937.5C2026.61 935.867 2028.63 934.617 2030.93 933.75C2033.23 932.85 2035.74 932.4 2038.48 932.4C2041.51 932.4 2044.24 932.933 2046.68 934C2049.14 935.033 2051.21 936.567 2052.88 938.6L2047.68 943.4C2046.48 942.033 2045.14 941.017 2043.68 940.35C2042.21 939.65 2040.61 939.3 2038.88 939.3C2037.24 939.3 2035.74 939.567 2034.38 940.1C2033.01 940.633 2031.83 941.4 2030.83 942.4C2029.83 943.4 2029.04 944.583 2028.48 945.95C2027.94 947.317 2027.68 948.833 2027.68 950.5C2027.68 952.167 2027.94 953.683 2028.48 955.05C2029.04 956.417 2029.83 957.6 2030.83 958.6C2031.83 959.6 2033.01 960.367 2034.38 960.9C2035.74 961.433 2037.24 961.7 2038.88 961.7C2040.61 961.7 2042.21 961.367 2043.68 960.7C2045.14 960 2046.48 958.95 2047.68 957.55L2052.88 962.35C2051.21 964.383 2049.14 965.933 2046.68 967C2044.24 968.067 2041.49 968.6 2038.43 968.6ZM2069.67 968.4C2066.8 968.4 2064.25 967.8 2062.02 966.6C2059.82 965.4 2058.07 963.767 2056.77 961.7C2055.5 959.6 2054.87 957.217 2054.87 954.55C2054.87 951.85 2055.5 949.467 2056.77 947.4C2058.07 945.3 2059.82 943.667 2062.02 942.5C2064.25 941.3 2066.8 940.7 2069.67 940.7C2072.5 940.7 2075.03 941.3 2077.27 942.5C2079.5 943.667 2081.25 945.283 2082.52 947.35C2083.78 949.417 2084.42 951.817 2084.42 954.55C2084.42 957.217 2083.78 959.6 2082.52 961.7C2081.25 963.767 2079.5 965.4 2077.27 966.6C2075.03 967.8 2072.5 968.4 2069.67 968.4ZM2069.67 962C2070.97 962 2072.13 961.7 2073.17 961.1C2074.2 960.5 2075.02 959.65 2075.62 958.55C2076.22 957.417 2076.52 956.083 2076.52 954.55C2076.52 952.983 2076.22 951.65 2075.62 950.55C2075.02 949.45 2074.2 948.6 2073.17 948C2072.13 947.4 2070.97 947.1 2069.67 947.1C2068.37 947.1 2067.2 947.4 2066.17 948C2065.13 948.6 2064.3 949.45 2063.67 950.55C2063.07 951.65 2062.77 952.983 2062.77 954.55C2062.77 956.083 2063.07 957.417 2063.67 958.55C2064.3 959.65 2065.13 960.5 2066.17 961.1C2067.2 961.7 2068.37 962 2069.67 962ZM2105.98 940.7C2108.11 940.7 2110.01 941.133 2111.68 942C2113.38 942.833 2114.71 944.133 2115.68 945.9C2116.65 947.633 2117.13 949.867 2117.13 952.6V968H2109.33V953.8C2109.33 951.633 2108.85 950.033 2107.88 949C2106.95 947.967 2105.61 947.45 2103.88 947.45C2102.65 947.45 2101.53 947.717 2100.53 948.25C2099.56 948.75 2098.8 949.533 2098.23 950.6C2097.7 951.667 2097.43 953.033 2097.43 954.7V968H2089.63V941.1H2097.08V948.55L2095.68 946.3C2096.65 944.5 2098.03 943.117 2099.83 942.15C2101.63 941.183 2103.68 940.7 2105.98 940.7ZM2125.15 968V940.5C2125.15 937.467 2126.05 935.05 2127.85 933.25C2129.65 931.417 2132.22 930.5 2135.55 930.5C2136.68 930.5 2137.77 930.617 2138.8 930.85C2139.87 931.083 2140.77 931.45 2141.5 931.95L2139.45 937.6C2139.02 937.3 2138.53 937.067 2138 936.9C2137.47 936.733 2136.9 936.65 2136.3 936.65C2135.17 936.65 2134.28 936.983 2133.65 937.65C2133.05 938.283 2132.75 939.25 2132.75 940.55V943.05L2132.95 946.4V968H2125.15ZM2121 947.7V941.7H2139.65V947.7H2121ZM2156.55 968.4C2153.48 968.4 2150.78 967.8 2148.45 966.6C2146.15 965.4 2144.36 963.767 2143.1 961.7C2141.83 959.6 2141.2 957.217 2141.2 954.55C2141.2 951.85 2141.81 949.467 2143.05 947.4C2144.31 945.3 2146.03 943.667 2148.2 942.5C2150.36 941.3 2152.81 940.7 2155.55 940.7C2158.18 940.7 2160.55 941.267 2162.65 942.4C2164.78 943.5 2166.46 945.1 2167.7 947.2C2168.93 949.267 2169.55 951.75 2169.55 954.65C2169.55 954.95 2169.53 955.3 2169.5 955.7C2169.46 956.067 2169.43 956.417 2169.4 956.75H2147.55V952.2H2165.3L2162.3 953.55C2162.3 952.15 2162.01 950.933 2161.45 949.9C2160.88 948.867 2160.1 948.067 2159.1 947.5C2158.1 946.9 2156.93 946.6 2155.6 946.6C2154.26 946.6 2153.08 946.9 2152.05 947.5C2151.05 948.067 2150.26 948.883 2149.7 949.95C2149.13 950.983 2148.85 952.217 2148.85 953.65V954.85C2148.85 956.317 2149.16 957.617 2149.8 958.75C2150.46 959.85 2151.38 960.7 2152.55 961.3C2153.75 961.867 2155.15 962.15 2156.75 962.15C2158.18 962.15 2159.43 961.933 2160.5 961.5C2161.6 961.067 2162.6 960.417 2163.5 959.55L2167.65 964.05C2166.41 965.45 2164.86 966.533 2163 967.3C2161.13 968.033 2158.98 968.4 2156.55 968.4ZM2150.85 937.65L2157.6 930.45H2166L2156.95 937.65H2150.85ZM2174.74 968V941.1H2182.19V948.7L2181.14 946.5C2181.94 944.6 2183.22 943.167 2184.99 942.2C2186.76 941.2 2188.91 940.7 2191.44 940.7V947.9C2191.11 947.867 2190.81 947.85 2190.54 947.85C2190.27 947.817 2189.99 947.8 2189.69 947.8C2187.56 947.8 2185.82 948.417 2184.49 949.65C2183.19 950.85 2182.54 952.733 2182.54 955.3V968H2174.74ZM2209.23 968.4C2206.16 968.4 2203.46 967.8 2201.13 966.6C2198.83 965.4 2197.05 963.767 2195.78 961.7C2194.51 959.6 2193.88 957.217 2193.88 954.55C2193.88 951.85 2194.5 949.467 2195.73 947.4C2197 945.3 2198.71 943.667 2200.88 942.5C2203.05 941.3 2205.5 940.7 2208.23 940.7C2210.86 940.7 2213.23 941.267 2215.33 942.4C2217.46 943.5 2219.15 945.1 2220.38 947.2C2221.61 949.267 2222.23 951.75 2222.23 954.65C2222.23 954.95 2222.21 955.3 2222.18 955.7C2222.15 956.067 2222.11 956.417 2222.08 956.75H2200.23V952.2H2217.98L2214.98 953.55C2214.98 952.15 2214.7 950.933 2214.13 949.9C2213.56 948.867 2212.78 948.067 2211.78 947.5C2210.78 946.9 2209.61 946.6 2208.28 946.6C2206.95 946.6 2205.76 946.9 2204.73 947.5C2203.73 948.067 2202.95 948.883 2202.38 949.95C2201.81 950.983 2201.53 952.217 2201.53 953.65V954.85C2201.53 956.317 2201.85 957.617 2202.48 958.75C2203.15 959.85 2204.06 960.7 2205.23 961.3C2206.43 961.867 2207.83 962.15 2209.43 962.15C2210.86 962.15 2212.11 961.933 2213.18 961.5C2214.28 961.067 2215.28 960.417 2216.18 959.55L2220.33 964.05C2219.1 965.45 2217.55 966.533 2215.68 967.3C2213.81 968.033 2211.66 968.4 2209.23 968.4ZM2243.77 940.7C2245.91 940.7 2247.81 941.133 2249.47 942C2251.17 942.833 2252.51 944.133 2253.47 945.9C2254.44 947.633 2254.92 949.867 2254.92 952.6V968H2247.12V953.8C2247.12 951.633 2246.64 950.033 2245.67 949C2244.74 947.967 2243.41 947.45 2241.67 947.45C2240.44 947.45 2239.32 947.717 2238.32 948.25C2237.36 948.75 2236.59 949.533 2236.02 950.6C2235.49 951.667 2235.22 953.033 2235.22 954.7V968H2227.42V941.1H2234.87V948.55L2233.47 946.3C2234.44 944.5 2235.82 943.117 2237.62 942.15C2239.42 941.183 2241.47 940.7 2243.77 940.7ZM2275.19 968.4C2272.29 968.4 2269.71 967.817 2267.44 966.65C2265.17 965.45 2263.39 963.8 2262.09 961.7C2260.82 959.6 2260.19 957.217 2260.19 954.55C2260.19 951.85 2260.82 949.467 2262.09 947.4C2263.39 945.3 2265.17 943.667 2267.44 942.5C2269.71 941.3 2272.29 940.7 2275.19 940.7C2278.02 940.7 2280.49 941.3 2282.59 942.5C2284.69 943.667 2286.24 945.35 2287.24 947.55L2281.19 950.8C2280.49 949.533 2279.61 948.6 2278.54 948C2277.51 947.4 2276.37 947.1 2275.14 947.1C2273.81 947.1 2272.61 947.4 2271.54 948C2270.47 948.6 2269.62 949.45 2268.99 950.55C2268.39 951.65 2268.09 952.983 2268.09 954.55C2268.09 956.117 2268.39 957.45 2268.99 958.55C2269.62 959.65 2270.47 960.5 2271.54 961.1C2272.61 961.7 2273.81 962 2275.14 962C2276.37 962 2277.51 961.717 2278.54 961.15C2279.61 960.55 2280.49 959.6 2281.19 958.3L2287.24 961.6C2286.24 963.767 2284.69 965.45 2282.59 966.65C2280.49 967.817 2278.02 968.4 2275.19 968.4ZM2304.74 968.4C2301.67 968.4 2298.97 967.8 2296.64 966.6C2294.34 965.4 2292.56 963.767 2291.29 961.7C2290.02 959.6 2289.39 957.217 2289.39 954.55C2289.39 951.85 2290.01 949.467 2291.24 947.4C2292.51 945.3 2294.22 943.667 2296.39 942.5C2298.56 941.3 2301.01 940.7 2303.74 940.7C2306.37 940.7 2308.74 941.267 2310.84 942.4C2312.97 943.5 2314.66 945.1 2315.89 947.2C2317.12 949.267 2317.74 951.75 2317.74 954.65C2317.74 954.95 2317.72 955.3 2317.69 955.7C2317.66 956.067 2317.62 956.417 2317.59 956.75H2295.74V952.2H2313.49L2310.49 953.55C2310.49 952.15 2310.21 950.933 2309.64 949.9C2309.07 948.867 2308.29 948.067 2307.29 947.5C2306.29 946.9 2305.12 946.6 2303.79 946.6C2302.46 946.6 2301.27 946.9 2300.24 947.5C2299.24 948.067 2298.46 948.883 2297.89 949.95C2297.32 950.983 2297.04 952.217 2297.04 953.65V954.85C2297.04 956.317 2297.36 957.617 2297.99 958.75C2298.66 959.85 2299.57 960.7 2300.74 961.3C2301.94 961.867 2303.34 962.15 2304.94 962.15C2306.37 962.15 2307.62 961.933 2308.69 961.5C2309.79 961.067 2310.79 960.417 2311.69 959.55L2315.84 964.05C2314.61 965.45 2313.06 966.533 2311.19 967.3C2309.32 968.033 2307.17 968.4 2304.74 968.4Z" fill="white"/>
<path d="M932.15 1667V1632H948.05C951.85 1632 955.2 1632.73 958.1 1634.2C961 1635.63 963.267 1637.65 964.9 1640.25C966.533 1642.85 967.35 1645.93 967.35 1649.5C967.35 1653.03 966.533 1656.12 964.9 1658.75C963.267 1661.35 961 1663.38 958.1 1664.85C955.2 1666.28 951.85 1667 948.05 1667H932.15ZM940.25 1660.35H947.65C949.983 1660.35 952 1659.92 953.7 1659.05C955.433 1658.15 956.767 1656.88 957.7 1655.25C958.667 1653.62 959.15 1651.7 959.15 1649.5C959.15 1647.27 958.667 1645.35 957.7 1643.75C956.767 1642.12 955.433 1640.87 953.7 1640C952 1639.1 949.983 1638.65 947.65 1638.65H940.25V1660.35ZM972.909 1667V1640.1H980.709V1667H972.909ZM976.809 1636.35C975.375 1636.35 974.209 1635.93 973.309 1635.1C972.409 1634.27 971.959 1633.23 971.959 1632C971.959 1630.77 972.409 1629.73 973.309 1628.9C974.209 1628.07 975.375 1627.65 976.809 1627.65C978.242 1627.65 979.409 1628.05 980.309 1628.85C981.209 1629.62 981.659 1630.62 981.659 1631.85C981.659 1633.15 981.209 1634.23 980.309 1635.1C979.442 1635.93 978.275 1636.35 976.809 1636.35ZM987.948 1667V1640.1H995.398V1647.7L994.348 1645.5C995.148 1643.6 996.431 1642.17 998.198 1641.2C999.964 1640.2 1002.11 1639.7 1004.65 1639.7V1646.9C1004.31 1646.87 1004.01 1646.85 1003.75 1646.85C1003.48 1646.82 1003.2 1646.8 1002.9 1646.8C1000.76 1646.8 999.031 1647.42 997.698 1648.65C996.398 1649.85 995.748 1651.73 995.748 1654.3V1667H987.948ZM1022.44 1667.4C1019.37 1667.4 1016.67 1666.8 1014.34 1665.6C1012.04 1664.4 1010.26 1662.77 1008.99 1660.7C1007.72 1658.6 1007.09 1656.22 1007.09 1653.55C1007.09 1650.85 1007.71 1648.47 1008.94 1646.4C1010.21 1644.3 1011.92 1642.67 1014.09 1641.5C1016.26 1640.3 1018.71 1639.7 1021.44 1639.7C1024.07 1639.7 1026.44 1640.27 1028.54 1641.4C1030.67 1642.5 1032.36 1644.1 1033.59 1646.2C1034.82 1648.27 1035.44 1650.75 1035.44 1653.65C1035.44 1653.95 1035.42 1654.3 1035.39 1654.7C1035.36 1655.07 1035.32 1655.42 1035.29 1655.75H1013.44V1651.2H1031.19L1028.19 1652.55C1028.19 1651.15 1027.91 1649.93 1027.34 1648.9C1026.77 1647.87 1025.99 1647.07 1024.99 1646.5C1023.99 1645.9 1022.82 1645.6 1021.49 1645.6C1020.16 1645.6 1018.97 1645.9 1017.94 1646.5C1016.94 1647.07 1016.16 1647.88 1015.59 1648.95C1015.02 1649.98 1014.74 1651.22 1014.74 1652.65V1653.85C1014.74 1655.32 1015.06 1656.62 1015.69 1657.75C1016.36 1658.85 1017.27 1659.7 1018.44 1660.3C1019.64 1660.87 1021.04 1661.15 1022.64 1661.15C1024.07 1661.15 1025.32 1660.93 1026.39 1660.5C1027.49 1660.07 1028.49 1659.42 1029.39 1658.55L1033.54 1663.05C1032.31 1664.45 1030.76 1665.53 1028.89 1666.3C1027.02 1667.03 1024.87 1667.4 1022.44 1667.4ZM1053.63 1667.4C1050.73 1667.4 1048.15 1666.82 1045.88 1665.65C1043.62 1664.45 1041.83 1662.8 1040.53 1660.7C1039.27 1658.6 1038.63 1656.22 1038.63 1653.55C1038.63 1650.85 1039.27 1648.47 1040.53 1646.4C1041.83 1644.3 1043.62 1642.67 1045.88 1641.5C1048.15 1640.3 1050.73 1639.7 1053.63 1639.7C1056.47 1639.7 1058.93 1640.3 1061.03 1641.5C1063.13 1642.67 1064.68 1644.35 1065.68 1646.55L1059.63 1649.8C1058.93 1648.53 1058.05 1647.6 1056.98 1647C1055.95 1646.4 1054.82 1646.1 1053.58 1646.1C1052.25 1646.1 1051.05 1646.4 1049.98 1647C1048.92 1647.6 1048.07 1648.45 1047.43 1649.55C1046.83 1650.65 1046.53 1651.98 1046.53 1653.55C1046.53 1655.12 1046.83 1656.45 1047.43 1657.55C1048.07 1658.65 1048.92 1659.5 1049.98 1660.1C1051.05 1660.7 1052.25 1661 1053.58 1661C1054.82 1661 1055.95 1660.72 1056.98 1660.15C1058.05 1659.55 1058.93 1658.6 1059.63 1657.3L1065.68 1660.6C1064.68 1662.77 1063.13 1664.45 1061.03 1665.65C1058.93 1666.82 1056.47 1667.4 1053.63 1667.4ZM1081.56 1667.4C1078.4 1667.4 1075.93 1666.6 1074.16 1665C1072.4 1663.37 1071.51 1660.95 1071.51 1657.75V1634.15H1079.31V1657.65C1079.31 1658.78 1079.61 1659.67 1080.21 1660.3C1080.81 1660.9 1081.63 1661.2 1082.66 1661.2C1083.9 1661.2 1084.95 1660.87 1085.81 1660.2L1087.91 1665.7C1087.11 1666.27 1086.15 1666.7 1085.01 1667C1083.91 1667.27 1082.76 1667.4 1081.56 1667.4ZM1067.36 1646.7V1640.7H1086.01V1646.7H1067.36ZM1092.29 1667V1640.1H1100.09V1667H1092.29ZM1096.19 1636.35C1094.76 1636.35 1093.59 1635.93 1092.69 1635.1C1091.79 1634.27 1091.34 1633.23 1091.34 1632C1091.34 1630.77 1091.79 1629.73 1092.69 1628.9C1093.59 1628.07 1094.76 1627.65 1096.19 1627.65C1097.63 1627.65 1098.79 1628.05 1099.69 1628.85C1100.59 1629.62 1101.04 1630.62 1101.04 1631.85C1101.04 1633.15 1100.59 1634.23 1099.69 1635.1C1098.83 1635.93 1097.66 1636.35 1096.19 1636.35ZM1120.13 1667.4C1117.27 1667.4 1114.72 1666.8 1112.48 1665.6C1110.28 1664.4 1108.53 1662.77 1107.23 1660.7C1105.97 1658.6 1105.33 1656.22 1105.33 1653.55C1105.33 1650.85 1105.97 1648.47 1107.23 1646.4C1108.53 1644.3 1110.28 1642.67 1112.48 1641.5C1114.72 1640.3 1117.27 1639.7 1120.13 1639.7C1122.97 1639.7 1125.5 1640.3 1127.73 1641.5C1129.97 1642.67 1131.72 1644.28 1132.98 1646.35C1134.25 1648.42 1134.88 1650.82 1134.88 1653.55C1134.88 1656.22 1134.25 1658.6 1132.98 1660.7C1131.72 1662.77 1129.97 1664.4 1127.73 1665.6C1125.5 1666.8 1122.97 1667.4 1120.13 1667.4ZM1120.13 1661C1121.43 1661 1122.6 1660.7 1123.63 1660.1C1124.67 1659.5 1125.48 1658.65 1126.08 1657.55C1126.68 1656.42 1126.98 1655.08 1126.98 1653.55C1126.98 1651.98 1126.68 1650.65 1126.08 1649.55C1125.48 1648.45 1124.67 1647.6 1123.63 1647C1122.6 1646.4 1121.43 1646.1 1120.13 1646.1C1118.83 1646.1 1117.67 1646.4 1116.63 1647C1115.6 1647.6 1114.77 1648.45 1114.13 1649.55C1113.53 1650.65 1113.23 1651.98 1113.23 1653.55C1113.23 1655.08 1113.53 1656.42 1114.13 1657.55C1114.77 1658.65 1115.6 1659.5 1116.63 1660.1C1117.67 1660.7 1118.83 1661 1120.13 1661ZM1156.45 1639.7C1158.58 1639.7 1160.48 1640.13 1162.15 1641C1163.85 1641.83 1165.18 1643.13 1166.15 1644.9C1167.11 1646.63 1167.6 1648.87 1167.6 1651.6V1667H1159.8V1652.8C1159.8 1650.63 1159.31 1649.03 1158.35 1648C1157.41 1646.97 1156.08 1646.45 1154.35 1646.45C1153.11 1646.45 1152 1646.72 1151 1647.25C1150.03 1647.75 1149.26 1648.53 1148.7 1649.6C1148.16 1650.67 1147.9 1652.03 1147.9 1653.7V1667H1140.1V1640.1H1147.55V1647.55L1146.15 1645.3C1147.11 1643.5 1148.5 1642.12 1150.3 1641.15C1152.1 1640.18 1154.15 1639.7 1156.45 1639.7Z" fill="white"/>
<path d="M162.65 1667.6C159.85 1667.6 157.167 1667.23 154.6 1666.5C152.033 1665.73 149.967 1664.75 148.4 1663.55L151.15 1657.45C152.65 1658.52 154.417 1659.4 156.45 1660.1C158.517 1660.77 160.6 1661.1 162.7 1661.1C164.3 1661.1 165.583 1660.95 166.55 1660.65C167.55 1660.32 168.283 1659.87 168.75 1659.3C169.217 1658.73 169.45 1658.08 169.45 1657.35C169.45 1656.42 169.083 1655.68 168.35 1655.15C167.617 1654.58 166.65 1654.13 165.45 1653.8C164.25 1653.43 162.917 1653.1 161.45 1652.8C160.017 1652.47 158.567 1652.07 157.1 1651.6C155.667 1651.13 154.35 1650.53 153.15 1649.8C151.95 1649.07 150.967 1648.1 150.2 1646.9C149.467 1645.7 149.1 1644.17 149.1 1642.3C149.1 1640.3 149.633 1638.48 150.7 1636.85C151.8 1635.18 153.433 1633.87 155.6 1632.9C157.8 1631.9 160.55 1631.4 163.85 1631.4C166.05 1631.4 168.217 1631.67 170.35 1632.2C172.483 1632.7 174.367 1633.47 176 1634.5L173.5 1640.65C171.867 1639.72 170.233 1639.03 168.6 1638.6C166.967 1638.13 165.367 1637.9 163.8 1637.9C162.233 1637.9 160.95 1638.08 159.95 1638.45C158.95 1638.82 158.233 1639.3 157.8 1639.9C157.367 1640.47 157.15 1641.13 157.15 1641.9C157.15 1642.8 157.517 1643.53 158.25 1644.1C158.983 1644.63 159.95 1645.07 161.15 1645.4C162.35 1645.73 163.667 1646.07 165.1 1646.4C166.567 1646.73 168.017 1647.12 169.45 1647.55C170.917 1647.98 172.25 1648.57 173.45 1649.3C174.65 1650.03 175.617 1651 176.35 1652.2C177.117 1653.4 177.5 1654.92 177.5 1656.75C177.5 1658.72 176.95 1660.52 175.85 1662.15C174.75 1663.78 173.1 1665.1 170.9 1666.1C168.733 1667.1 165.983 1667.6 162.65 1667.6ZM198.985 1667V1661.75L198.485 1660.6V1651.2C198.485 1649.53 197.968 1648.23 196.935 1647.3C195.935 1646.37 194.385 1645.9 192.285 1645.9C190.851 1645.9 189.435 1646.13 188.035 1646.6C186.668 1647.03 185.501 1647.63 184.535 1648.4L181.735 1642.95C183.201 1641.92 184.968 1641.12 187.035 1640.55C189.101 1639.98 191.201 1639.7 193.335 1639.7C197.435 1639.7 200.618 1640.67 202.885 1642.6C205.151 1644.53 206.285 1647.55 206.285 1651.65V1667H198.985ZM190.785 1667.4C188.685 1667.4 186.885 1667.05 185.385 1666.35C183.885 1665.62 182.735 1664.63 181.935 1663.4C181.135 1662.17 180.735 1660.78 180.735 1659.25C180.735 1657.65 181.118 1656.25 181.885 1655.05C182.685 1653.85 183.935 1652.92 185.635 1652.25C187.335 1651.55 189.551 1651.2 192.285 1651.2H199.435V1655.75H193.135C191.301 1655.75 190.035 1656.05 189.335 1656.65C188.668 1657.25 188.335 1658 188.335 1658.9C188.335 1659.9 188.718 1660.7 189.485 1661.3C190.285 1661.87 191.368 1662.15 192.735 1662.15C194.035 1662.15 195.201 1661.85 196.235 1661.25C197.268 1660.62 198.018 1659.7 198.485 1658.5L199.685 1662.1C199.118 1663.83 198.085 1665.15 196.585 1666.05C195.085 1666.95 193.151 1667.4 190.785 1667.4ZM213.344 1667V1629.9H221.144V1667H213.344ZM228.383 1667V1629.9H236.183V1667H228.383ZM256.772 1667.4C253.706 1667.4 251.006 1666.8 248.672 1665.6C246.372 1664.4 244.589 1662.77 243.322 1660.7C242.056 1658.6 241.422 1656.22 241.422 1653.55C241.422 1650.85 242.039 1648.47 243.272 1646.4C244.539 1644.3 246.256 1642.67 248.422 1641.5C250.589 1640.3 253.039 1639.7 255.772 1639.7C258.406 1639.7 260.772 1640.27 262.872 1641.4C265.006 1642.5 266.689 1644.1 267.922 1646.2C269.156 1648.27 269.772 1650.75 269.772 1653.65C269.772 1653.95 269.756 1654.3 269.722 1654.7C269.689 1655.07 269.656 1655.42 269.622 1655.75H247.772V1651.2H265.522L262.522 1652.55C262.522 1651.15 262.239 1649.93 261.672 1648.9C261.106 1647.87 260.322 1647.07 259.322 1646.5C258.322 1645.9 257.156 1645.6 255.822 1645.6C254.489 1645.6 253.306 1645.9 252.272 1646.5C251.272 1647.07 250.489 1647.88 249.922 1648.95C249.356 1649.98 249.072 1651.22 249.072 1652.65V1653.85C249.072 1655.32 249.389 1656.62 250.022 1657.75C250.689 1658.85 251.606 1659.7 252.772 1660.3C253.972 1660.87 255.372 1661.15 256.972 1661.15C258.406 1661.15 259.656 1660.93 260.722 1660.5C261.822 1660.07 262.822 1659.42 263.722 1658.55L267.872 1663.05C266.639 1664.45 265.089 1665.53 263.222 1666.3C261.356 1667.03 259.206 1667.4 256.772 1667.4ZM302.475 1667.6C299.609 1667.6 297.042 1666.9 294.775 1665.5C292.509 1664.07 290.725 1662 289.425 1659.3C288.125 1656.6 287.475 1653.33 287.475 1649.5C287.475 1645.67 288.125 1642.4 289.425 1639.7C290.725 1637 292.509 1634.95 294.775 1633.55C297.042 1632.12 299.609 1631.4 302.475 1631.4C305.375 1631.4 307.942 1632.12 310.175 1633.55C312.442 1634.95 314.225 1637 315.525 1639.7C316.825 1642.4 317.475 1645.67 317.475 1649.5C317.475 1653.33 316.825 1656.6 315.525 1659.3C314.225 1662 312.442 1664.07 310.175 1665.5C307.942 1666.9 305.375 1667.6 302.475 1667.6ZM302.475 1660.75C303.842 1660.75 305.025 1660.37 306.025 1659.6C307.059 1658.83 307.859 1657.62 308.425 1655.95C309.025 1654.28 309.325 1652.13 309.325 1649.5C309.325 1646.87 309.025 1644.72 308.425 1643.05C307.859 1641.38 307.059 1640.17 306.025 1639.4C305.025 1638.63 303.842 1638.25 302.475 1638.25C301.142 1638.25 299.959 1638.63 298.925 1639.4C297.925 1640.17 297.125 1641.38 296.525 1643.05C295.959 1644.72 295.675 1646.87 295.675 1649.5C295.675 1652.13 295.959 1654.28 296.525 1655.95C297.125 1657.62 297.925 1658.83 298.925 1659.6C299.959 1660.37 301.142 1660.75 302.475 1660.75ZM335.911 1667.6C332.978 1667.6 330.411 1667.17 328.211 1666.3C326.011 1665.4 324.294 1664.15 323.061 1662.55C321.828 1660.92 321.211 1659.02 321.211 1656.85C321.211 1654.68 321.811 1652.85 323.011 1651.35C324.244 1649.82 325.961 1648.67 328.161 1647.9C330.361 1647.1 332.944 1646.7 335.911 1646.7C338.911 1646.7 341.511 1647.1 343.711 1647.9C345.944 1648.67 347.661 1649.82 348.861 1651.35C350.094 1652.85 350.711 1654.68 350.711 1656.85C350.711 1659.02 350.094 1660.92 348.861 1662.55C347.628 1664.15 345.894 1665.4 343.661 1666.3C341.461 1667.17 338.878 1667.6 335.911 1667.6ZM335.911 1661.65C337.944 1661.65 339.544 1661.2 340.711 1660.3C341.911 1659.4 342.511 1658.17 342.511 1656.6C342.511 1655.03 341.911 1653.82 340.711 1652.95C339.544 1652.05 337.944 1651.6 335.911 1651.6C333.911 1651.6 332.328 1652.05 331.161 1652.95C329.994 1653.82 329.411 1655.03 329.411 1656.6C329.411 1658.17 329.994 1659.4 331.161 1660.3C332.328 1661.2 333.911 1661.65 335.911 1661.65ZM335.911 1650.8C333.211 1650.8 330.844 1650.43 328.811 1649.7C326.811 1648.97 325.244 1647.9 324.111 1646.5C323.011 1645.07 322.461 1643.37 322.461 1641.4C322.461 1639.33 323.028 1637.57 324.161 1636.1C325.294 1634.6 326.878 1633.45 328.911 1632.65C330.944 1631.82 333.278 1631.4 335.911 1631.4C338.611 1631.4 340.961 1631.82 342.961 1632.65C344.994 1633.45 346.578 1634.6 347.711 1636.1C348.878 1637.57 349.461 1639.33 349.461 1641.4C349.461 1643.37 348.894 1645.07 347.761 1646.5C346.661 1647.9 345.094 1648.97 343.061 1649.7C341.028 1650.43 338.644 1650.8 335.911 1650.8ZM335.911 1646.05C337.611 1646.05 338.944 1645.67 339.911 1644.9C340.911 1644.13 341.411 1643.08 341.411 1641.75C341.411 1640.35 340.894 1639.27 339.861 1638.5C338.861 1637.73 337.544 1637.35 335.911 1637.35C334.311 1637.35 333.011 1637.73 332.011 1638.5C331.011 1639.27 330.511 1640.35 330.511 1641.75C330.511 1643.08 330.994 1644.13 331.961 1644.9C332.928 1645.67 334.244 1646.05 335.911 1646.05Z" fill="white"/>
<path d="M169.65 268.6C166.85 268.6 164.167 268.233 161.6 267.5C159.033 266.733 156.967 265.75 155.4 264.55L158.15 258.45C159.65 259.517 161.417 260.4 163.45 261.1C165.517 261.767 167.6 262.1 169.7 262.1C171.3 262.1 172.583 261.95 173.55 261.65C174.55 261.317 175.283 260.867 175.75 260.3C176.217 259.733 176.45 259.083 176.45 258.35C176.45 257.417 176.083 256.683 175.35 256.15C174.617 255.583 173.65 255.133 172.45 254.8C171.25 254.433 169.917 254.1 168.45 253.8C167.017 253.467 165.567 253.067 164.1 252.6C162.667 252.133 161.35 251.533 160.15 250.8C158.95 250.067 157.967 249.1 157.2 247.9C156.467 246.7 156.1 245.167 156.1 243.3C156.1 241.3 156.633 239.483 157.7 237.85C158.8 236.183 160.433 234.867 162.6 233.9C164.8 232.9 167.55 232.4 170.85 232.4C173.05 232.4 175.217 232.667 177.35 233.2C179.483 233.7 181.367 234.467 183 235.5L180.5 241.65C178.867 240.717 177.233 240.033 175.6 239.6C173.967 239.133 172.367 238.9 170.8 238.9C169.233 238.9 167.95 239.083 166.95 239.45C165.95 239.817 165.233 240.3 164.8 240.9C164.367 241.467 164.15 242.133 164.15 242.9C164.15 243.8 164.517 244.533 165.25 245.1C165.983 245.633 166.95 246.067 168.15 246.4C169.35 246.733 170.667 247.067 172.1 247.4C173.567 247.733 175.017 248.117 176.45 248.55C177.917 248.983 179.25 249.567 180.45 250.3C181.65 251.033 182.617 252 183.35 253.2C184.117 254.4 184.5 255.917 184.5 257.75C184.5 259.717 183.95 261.517 182.85 263.15C181.75 264.783 180.1 266.1 177.9 267.1C175.733 268.1 172.983 268.6 169.65 268.6ZM205.985 268V262.75L205.485 261.6V252.2C205.485 250.533 204.968 249.233 203.935 248.3C202.935 247.367 201.385 246.9 199.285 246.9C197.851 246.9 196.435 247.133 195.035 247.6C193.668 248.033 192.501 248.633 191.535 249.4L188.735 243.95C190.201 242.917 191.968 242.117 194.035 241.55C196.101 240.983 198.201 240.7 200.335 240.7C204.435 240.7 207.618 241.667 209.885 243.6C212.151 245.533 213.285 248.55 213.285 252.65V268H205.985ZM197.785 268.4C195.685 268.4 193.885 268.05 192.385 267.35C190.885 266.617 189.735 265.633 188.935 264.4C188.135 263.167 187.735 261.783 187.735 260.25C187.735 258.65 188.118 257.25 188.885 256.05C189.685 254.85 190.935 253.917 192.635 253.25C194.335 252.55 196.551 252.2 199.285 252.2H206.435V256.75H200.135C198.301 256.75 197.035 257.05 196.335 257.65C195.668 258.25 195.335 259 195.335 259.9C195.335 260.9 195.718 261.7 196.485 262.3C197.285 262.867 198.368 263.15 199.735 263.15C201.035 263.15 202.201 262.85 203.235 262.25C204.268 261.617 205.018 260.7 205.485 259.5L206.685 263.1C206.118 264.833 205.085 266.15 203.585 267.05C202.085 267.95 200.151 268.4 197.785 268.4ZM220.344 268V230.9H228.144V268H220.344ZM235.383 268V230.9H243.183V268H235.383ZM263.772 268.4C260.706 268.4 258.006 267.8 255.672 266.6C253.372 265.4 251.589 263.767 250.322 261.7C249.056 259.6 248.422 257.217 248.422 254.55C248.422 251.85 249.039 249.467 250.272 247.4C251.539 245.3 253.256 243.667 255.422 242.5C257.589 241.3 260.039 240.7 262.772 240.7C265.406 240.7 267.772 241.267 269.872 242.4C272.006 243.5 273.689 245.1 274.922 247.2C276.156 249.267 276.772 251.75 276.772 254.65C276.772 254.95 276.756 255.3 276.722 255.7C276.689 256.067 276.656 256.417 276.622 256.75H254.772V252.2H272.522L269.522 253.55C269.522 252.15 269.239 250.933 268.672 249.9C268.106 248.867 267.322 248.067 266.322 247.5C265.322 246.9 264.156 246.6 262.822 246.6C261.489 246.6 260.306 246.9 259.272 247.5C258.272 248.067 257.489 248.883 256.922 249.95C256.356 250.983 256.072 252.217 256.072 253.65V254.85C256.072 256.317 256.389 257.617 257.022 258.75C257.689 259.85 258.606 260.7 259.772 261.3C260.972 261.867 262.372 262.15 263.972 262.15C265.406 262.15 266.656 261.933 267.722 261.5C268.822 261.067 269.822 260.417 270.722 259.55L274.872 264.05C273.639 265.45 272.089 266.533 270.222 267.3C268.356 268.033 266.206 268.4 263.772 268.4ZM309.475 268.6C306.609 268.6 304.042 267.9 301.775 266.5C299.509 265.067 297.725 263 296.425 260.3C295.125 257.6 294.475 254.333 294.475 250.5C294.475 246.667 295.125 243.4 296.425 240.7C297.725 238 299.509 235.95 301.775 234.55C304.042 233.117 306.609 232.4 309.475 232.4C312.375 232.4 314.942 233.117 317.175 234.55C319.442 235.95 321.225 238 322.525 240.7C323.825 243.4 324.475 246.667 324.475 250.5C324.475 254.333 323.825 257.6 322.525 260.3C321.225 263 319.442 265.067 317.175 266.5C314.942 267.9 312.375 268.6 309.475 268.6ZM309.475 261.75C310.842 261.75 312.025 261.367 313.025 260.6C314.059 259.833 314.859 258.617 315.425 256.95C316.025 255.283 316.325 253.133 316.325 250.5C316.325 247.867 316.025 245.717 315.425 244.05C314.859 242.383 314.059 241.167 313.025 240.4C312.025 239.633 310.842 239.25 309.475 239.25C308.142 239.25 306.959 239.633 305.925 240.4C304.925 241.167 304.125 242.383 303.525 244.05C302.959 245.717 302.675 247.867 302.675 250.5C302.675 253.133 302.959 255.283 303.525 256.95C304.125 258.617 304.925 259.833 305.925 260.6C306.959 261.367 308.142 261.75 309.475 261.75ZM333.616 268V236L337.116 239.5H326.616V233H341.716V268H333.616Z" fill="white"/>
<path d="M1164.65 268.6C1161.85 268.6 1159.17 268.233 1156.6 267.5C1154.03 266.733 1151.97 265.75 1150.4 264.55L1153.15 258.45C1154.65 259.517 1156.42 260.4 1158.45 261.1C1160.52 261.767 1162.6 262.1 1164.7 262.1C1166.3 262.1 1167.58 261.95 1168.55 261.65C1169.55 261.317 1170.28 260.867 1170.75 260.3C1171.22 259.733 1171.45 259.083 1171.45 258.35C1171.45 257.417 1171.08 256.683 1170.35 256.15C1169.62 255.583 1168.65 255.133 1167.45 254.8C1166.25 254.433 1164.92 254.1 1163.45 253.8C1162.02 253.467 1160.57 253.067 1159.1 252.6C1157.67 252.133 1156.35 251.533 1155.15 250.8C1153.95 250.067 1152.97 249.1 1152.2 247.9C1151.47 246.7 1151.1 245.167 1151.1 243.3C1151.1 241.3 1151.63 239.483 1152.7 237.85C1153.8 236.183 1155.43 234.867 1157.6 233.9C1159.8 232.9 1162.55 232.4 1165.85 232.4C1168.05 232.4 1170.22 232.667 1172.35 233.2C1174.48 233.7 1176.37 234.467 1178 235.5L1175.5 241.65C1173.87 240.717 1172.23 240.033 1170.6 239.6C1168.97 239.133 1167.37 238.9 1165.8 238.9C1164.23 238.9 1162.95 239.083 1161.95 239.45C1160.95 239.817 1160.23 240.3 1159.8 240.9C1159.37 241.467 1159.15 242.133 1159.15 242.9C1159.15 243.8 1159.52 244.533 1160.25 245.1C1160.98 245.633 1161.95 246.067 1163.15 246.4C1164.35 246.733 1165.67 247.067 1167.1 247.4C1168.57 247.733 1170.02 248.117 1171.45 248.55C1172.92 248.983 1174.25 249.567 1175.45 250.3C1176.65 251.033 1177.62 252 1178.35 253.2C1179.12 254.4 1179.5 255.917 1179.5 257.75C1179.5 259.717 1178.95 261.517 1177.85 263.15C1176.75 264.783 1175.1 266.1 1172.9 267.1C1170.73 268.1 1167.98 268.6 1164.65 268.6ZM1200.98 268V262.75L1200.48 261.6V252.2C1200.48 250.533 1199.97 249.233 1198.93 248.3C1197.93 247.367 1196.38 246.9 1194.28 246.9C1192.85 246.9 1191.43 247.133 1190.03 247.6C1188.67 248.033 1187.5 248.633 1186.53 249.4L1183.73 243.95C1185.2 242.917 1186.97 242.117 1189.03 241.55C1191.1 240.983 1193.2 240.7 1195.33 240.7C1199.43 240.7 1202.62 241.667 1204.88 243.6C1207.15 245.533 1208.28 248.55 1208.28 252.65V268H1200.98ZM1192.78 268.4C1190.68 268.4 1188.88 268.05 1187.38 267.35C1185.88 266.617 1184.73 265.633 1183.93 264.4C1183.13 263.167 1182.73 261.783 1182.73 260.25C1182.73 258.65 1183.12 257.25 1183.88 256.05C1184.68 254.85 1185.93 253.917 1187.63 253.25C1189.33 252.55 1191.55 252.2 1194.28 252.2H1201.43V256.75H1195.13C1193.3 256.75 1192.03 257.05 1191.33 257.65C1190.67 258.25 1190.33 259 1190.33 259.9C1190.33 260.9 1190.72 261.7 1191.48 262.3C1192.28 262.867 1193.37 263.15 1194.73 263.15C1196.03 263.15 1197.2 262.85 1198.23 262.25C1199.27 261.617 1200.02 260.7 1200.48 259.5L1201.68 263.1C1201.12 264.833 1200.08 266.15 1198.58 267.05C1197.08 267.95 1195.15 268.4 1192.78 268.4ZM1215.34 268V230.9H1223.14V268H1215.34ZM1230.38 268V230.9H1238.18V268H1230.38ZM1258.77 268.4C1255.71 268.4 1253.01 267.8 1250.67 266.6C1248.37 265.4 1246.59 263.767 1245.32 261.7C1244.06 259.6 1243.42 257.217 1243.42 254.55C1243.42 251.85 1244.04 249.467 1245.27 247.4C1246.54 245.3 1248.26 243.667 1250.42 242.5C1252.59 241.3 1255.04 240.7 1257.77 240.7C1260.41 240.7 1262.77 241.267 1264.87 242.4C1267.01 243.5 1268.69 245.1 1269.92 247.2C1271.16 249.267 1271.77 251.75 1271.77 254.65C1271.77 254.95 1271.76 255.3 1271.72 255.7C1271.69 256.067 1271.66 256.417 1271.62 256.75H1249.77V252.2H1267.52L1264.52 253.55C1264.52 252.15 1264.24 250.933 1263.67 249.9C1263.11 248.867 1262.32 248.067 1261.32 247.5C1260.32 246.9 1259.16 246.6 1257.82 246.6C1256.49 246.6 1255.31 246.9 1254.27 247.5C1253.27 248.067 1252.49 248.883 1251.92 249.95C1251.36 250.983 1251.07 252.217 1251.07 253.65V254.85C1251.07 256.317 1251.39 257.617 1252.02 258.75C1252.69 259.85 1253.61 260.7 1254.77 261.3C1255.97 261.867 1257.37 262.15 1258.97 262.15C1260.41 262.15 1261.66 261.933 1262.72 261.5C1263.82 261.067 1264.82 260.417 1265.72 259.55L1269.87 264.05C1268.64 265.45 1267.09 266.533 1265.22 267.3C1263.36 268.033 1261.21 268.4 1258.77 268.4ZM1304.48 268.6C1301.61 268.6 1299.04 267.9 1296.78 266.5C1294.51 265.067 1292.73 263 1291.43 260.3C1290.13 257.6 1289.48 254.333 1289.48 250.5C1289.48 246.667 1290.13 243.4 1291.43 240.7C1292.73 238 1294.51 235.95 1296.78 234.55C1299.04 233.117 1301.61 232.4 1304.48 232.4C1307.38 232.4 1309.94 233.117 1312.18 234.55C1314.44 235.95 1316.23 238 1317.53 240.7C1318.83 243.4 1319.48 246.667 1319.48 250.5C1319.48 254.333 1318.83 257.6 1317.53 260.3C1316.23 263 1314.44 265.067 1312.18 266.5C1309.94 267.9 1307.38 268.6 1304.48 268.6ZM1304.48 261.75C1305.84 261.75 1307.03 261.367 1308.03 260.6C1309.06 259.833 1309.86 258.617 1310.43 256.95C1311.03 255.283 1311.33 253.133 1311.33 250.5C1311.33 247.867 1311.03 245.717 1310.43 244.05C1309.86 242.383 1309.06 241.167 1308.03 240.4C1307.03 239.633 1305.84 239.25 1304.48 239.25C1303.14 239.25 1301.96 239.633 1300.93 240.4C1299.93 241.167 1299.13 242.383 1298.53 244.05C1297.96 245.717 1297.68 247.867 1297.68 250.5C1297.68 253.133 1297.96 255.283 1298.53 256.95C1299.13 258.617 1299.93 259.833 1300.93 260.6C1301.96 261.367 1303.14 261.75 1304.48 261.75ZM1322.92 268V262.75L1336.42 250C1337.48 249.033 1338.27 248.167 1338.77 247.4C1339.27 246.633 1339.6 245.933 1339.77 245.3C1339.97 244.667 1340.07 244.083 1340.07 243.55C1340.07 242.15 1339.58 241.083 1338.62 240.35C1337.68 239.583 1336.3 239.2 1334.47 239.2C1333 239.2 1331.63 239.483 1330.37 240.05C1329.13 240.617 1328.08 241.5 1327.22 242.7L1321.32 238.9C1322.65 236.9 1324.52 235.317 1326.92 234.15C1329.32 232.983 1332.08 232.4 1335.22 232.4C1337.82 232.4 1340.08 232.833 1342.02 233.7C1343.98 234.533 1345.5 235.717 1346.57 237.25C1347.67 238.783 1348.22 240.617 1348.22 242.75C1348.22 243.883 1348.07 245.017 1347.77 246.15C1347.5 247.25 1346.93 248.417 1346.07 249.65C1345.23 250.883 1344 252.267 1342.37 253.8L1331.17 264.35L1329.62 261.4H1349.37V268H1322.92Z" fill="white"/>
<path d="M2164.65 268.6C2161.85 268.6 2159.17 268.233 2156.6 267.5C2154.03 266.733 2151.97 265.75 2150.4 264.55L2153.15 258.45C2154.65 259.517 2156.42 260.4 2158.45 261.1C2160.52 261.767 2162.6 262.1 2164.7 262.1C2166.3 262.1 2167.58 261.95 2168.55 261.65C2169.55 261.317 2170.28 260.867 2170.75 260.3C2171.22 259.733 2171.45 259.083 2171.45 258.35C2171.45 257.417 2171.08 256.683 2170.35 256.15C2169.62 255.583 2168.65 255.133 2167.45 254.8C2166.25 254.433 2164.92 254.1 2163.45 253.8C2162.02 253.467 2160.57 253.067 2159.1 252.6C2157.67 252.133 2156.35 251.533 2155.15 250.8C2153.95 250.067 2152.97 249.1 2152.2 247.9C2151.47 246.7 2151.1 245.167 2151.1 243.3C2151.1 241.3 2151.63 239.483 2152.7 237.85C2153.8 236.183 2155.43 234.867 2157.6 233.9C2159.8 232.9 2162.55 232.4 2165.85 232.4C2168.05 232.4 2170.22 232.667 2172.35 233.2C2174.48 233.7 2176.37 234.467 2178 235.5L2175.5 241.65C2173.87 240.717 2172.23 240.033 2170.6 239.6C2168.97 239.133 2167.37 238.9 2165.8 238.9C2164.23 238.9 2162.95 239.083 2161.95 239.45C2160.95 239.817 2160.23 240.3 2159.8 240.9C2159.37 241.467 2159.15 242.133 2159.15 242.9C2159.15 243.8 2159.52 244.533 2160.25 245.1C2160.98 245.633 2161.95 246.067 2163.15 246.4C2164.35 246.733 2165.67 247.067 2167.1 247.4C2168.57 247.733 2170.02 248.117 2171.45 248.55C2172.92 248.983 2174.25 249.567 2175.45 250.3C2176.65 251.033 2177.62 252 2178.35 253.2C2179.12 254.4 2179.5 255.917 2179.5 257.75C2179.5 259.717 2178.95 261.517 2177.85 263.15C2176.75 264.783 2175.1 266.1 2172.9 267.1C2170.73 268.1 2167.98 268.6 2164.65 268.6ZM2200.98 268V262.75L2200.48 261.6V252.2C2200.48 250.533 2199.97 249.233 2198.93 248.3C2197.93 247.367 2196.38 246.9 2194.28 246.9C2192.85 246.9 2191.43 247.133 2190.03 247.6C2188.67 248.033 2187.5 248.633 2186.53 249.4L2183.73 243.95C2185.2 242.917 2186.97 242.117 2189.03 241.55C2191.1 240.983 2193.2 240.7 2195.33 240.7C2199.43 240.7 2202.62 241.667 2204.88 243.6C2207.15 245.533 2208.28 248.55 2208.28 252.65V268H2200.98ZM2192.78 268.4C2190.68 268.4 2188.88 268.05 2187.38 267.35C2185.88 266.617 2184.73 265.633 2183.93 264.4C2183.13 263.167 2182.73 261.783 2182.73 260.25C2182.73 258.65 2183.12 257.25 2183.88 256.05C2184.68 254.85 2185.93 253.917 2187.63 253.25C2189.33 252.55 2191.55 252.2 2194.28 252.2H2201.43V256.75H2195.13C2193.3 256.75 2192.03 257.05 2191.33 257.65C2190.67 258.25 2190.33 259 2190.33 259.9C2190.33 260.9 2190.72 261.7 2191.48 262.3C2192.28 262.867 2193.37 263.15 2194.73 263.15C2196.03 263.15 2197.2 262.85 2198.23 262.25C2199.27 261.617 2200.02 260.7 2200.48 259.5L2201.68 263.1C2201.12 264.833 2200.08 266.15 2198.58 267.05C2197.08 267.95 2195.15 268.4 2192.78 268.4ZM2215.34 268V230.9H2223.14V268H2215.34ZM2230.38 268V230.9H2238.18V268H2230.38ZM2258.77 268.4C2255.71 268.4 2253.01 267.8 2250.67 266.6C2248.37 265.4 2246.59 263.767 2245.32 261.7C2244.06 259.6 2243.42 257.217 2243.42 254.55C2243.42 251.85 2244.04 249.467 2245.27 247.4C2246.54 245.3 2248.26 243.667 2250.42 242.5C2252.59 241.3 2255.04 240.7 2257.77 240.7C2260.41 240.7 2262.77 241.267 2264.87 242.4C2267.01 243.5 2268.69 245.1 2269.92 247.2C2271.16 249.267 2271.77 251.75 2271.77 254.65C2271.77 254.95 2271.76 255.3 2271.72 255.7C2271.69 256.067 2271.66 256.417 2271.62 256.75H2249.77V252.2H2267.52L2264.52 253.55C2264.52 252.15 2264.24 250.933 2263.67 249.9C2263.11 248.867 2262.32 248.067 2261.32 247.5C2260.32 246.9 2259.16 246.6 2257.82 246.6C2256.49 246.6 2255.31 246.9 2254.27 247.5C2253.27 248.067 2252.49 248.883 2251.92 249.95C2251.36 250.983 2251.07 252.217 2251.07 253.65V254.85C2251.07 256.317 2251.39 257.617 2252.02 258.75C2252.69 259.85 2253.61 260.7 2254.77 261.3C2255.97 261.867 2257.37 262.15 2258.97 262.15C2260.41 262.15 2261.66 261.933 2262.72 261.5C2263.82 261.067 2264.82 260.417 2265.72 259.55L2269.87 264.05C2268.64 265.45 2267.09 266.533 2265.22 267.3C2263.36 268.033 2261.21 268.4 2258.77 268.4ZM2304.48 268.6C2301.61 268.6 2299.04 267.9 2296.78 266.5C2294.51 265.067 2292.73 263 2291.43 260.3C2290.13 257.6 2289.48 254.333 2289.48 250.5C2289.48 246.667 2290.13 243.4 2291.43 240.7C2292.73 238 2294.51 235.95 2296.78 234.55C2299.04 233.117 2301.61 232.4 2304.48 232.4C2307.38 232.4 2309.94 233.117 2312.18 234.55C2314.44 235.95 2316.23 238 2317.53 240.7C2318.83 243.4 2319.48 246.667 2319.48 250.5C2319.48 254.333 2318.83 257.6 2317.53 260.3C2316.23 263 2314.44 265.067 2312.18 266.5C2309.94 267.9 2307.38 268.6 2304.48 268.6ZM2304.48 261.75C2305.84 261.75 2307.03 261.367 2308.03 260.6C2309.06 259.833 2309.86 258.617 2310.43 256.95C2311.03 255.283 2311.33 253.133 2311.33 250.5C2311.33 247.867 2311.03 245.717 2310.43 244.05C2309.86 242.383 2309.06 241.167 2308.03 240.4C2307.03 239.633 2305.84 239.25 2304.48 239.25C2303.14 239.25 2301.96 239.633 2300.93 240.4C2299.93 241.167 2299.13 242.383 2298.53 244.05C2297.96 245.717 2297.68 247.867 2297.68 250.5C2297.68 253.133 2297.96 255.283 2298.53 256.95C2299.13 258.617 2299.93 259.833 2300.93 260.6C2301.96 261.367 2303.14 261.75 2304.48 261.75ZM2334.27 268.6C2331.84 268.6 2329.42 268.283 2327.02 267.65C2324.62 266.983 2322.59 266.05 2320.92 264.85L2324.07 258.65C2325.41 259.617 2326.96 260.383 2328.72 260.95C2330.49 261.517 2332.27 261.8 2334.07 261.8C2336.11 261.8 2337.71 261.4 2338.87 260.6C2340.04 259.8 2340.62 258.7 2340.62 257.3C2340.62 255.967 2340.11 254.917 2339.07 254.15C2338.04 253.383 2336.37 253 2334.07 253H2330.37V247.65L2340.12 236.6L2341.02 239.5H2322.67V233H2347.17V238.25L2337.47 249.3L2333.37 246.95H2335.72C2340.02 246.95 2343.27 247.917 2345.47 249.85C2347.67 251.783 2348.77 254.267 2348.77 257.3C2348.77 259.267 2348.26 261.117 2347.22 262.85C2346.19 264.55 2344.61 265.933 2342.47 267C2340.34 268.067 2337.61 268.6 2334.27 268.6Z" fill="white"/>
<path d="M2761.65 268.6C2758.85 268.6 2756.17 268.233 2753.6 267.5C2751.03 266.733 2748.97 265.75 2747.4 264.55L2750.15 258.45C2751.65 259.517 2753.42 260.4 2755.45 261.1C2757.52 261.767 2759.6 262.1 2761.7 262.1C2763.3 262.1 2764.58 261.95 2765.55 261.65C2766.55 261.317 2767.28 260.867 2767.75 260.3C2768.22 259.733 2768.45 259.083 2768.45 258.35C2768.45 257.417 2768.08 256.683 2767.35 256.15C2766.62 255.583 2765.65 255.133 2764.45 254.8C2763.25 254.433 2761.92 254.1 2760.45 253.8C2759.02 253.467 2757.57 253.067 2756.1 252.6C2754.67 252.133 2753.35 251.533 2752.15 250.8C2750.95 250.067 2749.97 249.1 2749.2 247.9C2748.47 246.7 2748.1 245.167 2748.1 243.3C2748.1 241.3 2748.63 239.483 2749.7 237.85C2750.8 236.183 2752.43 234.867 2754.6 233.9C2756.8 232.9 2759.55 232.4 2762.85 232.4C2765.05 232.4 2767.22 232.667 2769.35 233.2C2771.48 233.7 2773.37 234.467 2775 235.5L2772.5 241.65C2770.87 240.717 2769.23 240.033 2767.6 239.6C2765.97 239.133 2764.37 238.9 2762.8 238.9C2761.23 238.9 2759.95 239.083 2758.95 239.45C2757.95 239.817 2757.23 240.3 2756.8 240.9C2756.37 241.467 2756.15 242.133 2756.15 242.9C2756.15 243.8 2756.52 244.533 2757.25 245.1C2757.98 245.633 2758.95 246.067 2760.15 246.4C2761.35 246.733 2762.67 247.067 2764.1 247.4C2765.57 247.733 2767.02 248.117 2768.45 248.55C2769.92 248.983 2771.25 249.567 2772.45 250.3C2773.65 251.033 2774.62 252 2775.35 253.2C2776.12 254.4 2776.5 255.917 2776.5 257.75C2776.5 259.717 2775.95 261.517 2774.85 263.15C2773.75 264.783 2772.1 266.1 2769.9 267.1C2767.73 268.1 2764.98 268.6 2761.65 268.6ZM2797.98 268V262.75L2797.48 261.6V252.2C2797.48 250.533 2796.97 249.233 2795.93 248.3C2794.93 247.367 2793.38 246.9 2791.28 246.9C2789.85 246.9 2788.43 247.133 2787.03 247.6C2785.67 248.033 2784.5 248.633 2783.53 249.4L2780.73 243.95C2782.2 242.917 2783.97 242.117 2786.03 241.55C2788.1 240.983 2790.2 240.7 2792.33 240.7C2796.43 240.7 2799.62 241.667 2801.88 243.6C2804.15 245.533 2805.28 248.55 2805.28 252.65V268H2797.98ZM2789.78 268.4C2787.68 268.4 2785.88 268.05 2784.38 267.35C2782.88 266.617 2781.73 265.633 2780.93 264.4C2780.13 263.167 2779.73 261.783 2779.73 260.25C2779.73 258.65 2780.12 257.25 2780.88 256.05C2781.68 254.85 2782.93 253.917 2784.63 253.25C2786.33 252.55 2788.55 252.2 2791.28 252.2H2798.43V256.75H2792.13C2790.3 256.75 2789.03 257.05 2788.33 257.65C2787.67 258.25 2787.33 259 2787.33 259.9C2787.33 260.9 2787.72 261.7 2788.48 262.3C2789.28 262.867 2790.37 263.15 2791.73 263.15C2793.03 263.15 2794.2 262.85 2795.23 262.25C2796.27 261.617 2797.02 260.7 2797.48 259.5L2798.68 263.1C2798.12 264.833 2797.08 266.15 2795.58 267.05C2794.08 267.95 2792.15 268.4 2789.78 268.4ZM2812.34 268V230.9H2820.14V268H2812.34ZM2827.38 268V230.9H2835.18V268H2827.38ZM2855.77 268.4C2852.71 268.4 2850.01 267.8 2847.67 266.6C2845.37 265.4 2843.59 263.767 2842.32 261.7C2841.06 259.6 2840.42 257.217 2840.42 254.55C2840.42 251.85 2841.04 249.467 2842.27 247.4C2843.54 245.3 2845.26 243.667 2847.42 242.5C2849.59 241.3 2852.04 240.7 2854.77 240.7C2857.41 240.7 2859.77 241.267 2861.87 242.4C2864.01 243.5 2865.69 245.1 2866.92 247.2C2868.16 249.267 2868.77 251.75 2868.77 254.65C2868.77 254.95 2868.76 255.3 2868.72 255.7C2868.69 256.067 2868.66 256.417 2868.62 256.75H2846.77V252.2H2864.52L2861.52 253.55C2861.52 252.15 2861.24 250.933 2860.67 249.9C2860.11 248.867 2859.32 248.067 2858.32 247.5C2857.32 246.9 2856.16 246.6 2854.82 246.6C2853.49 246.6 2852.31 246.9 2851.27 247.5C2850.27 248.067 2849.49 248.883 2848.92 249.95C2848.36 250.983 2848.07 252.217 2848.07 253.65V254.85C2848.07 256.317 2848.39 257.617 2849.02 258.75C2849.69 259.85 2850.61 260.7 2851.77 261.3C2852.97 261.867 2854.37 262.15 2855.97 262.15C2857.41 262.15 2858.66 261.933 2859.72 261.5C2860.82 261.067 2861.82 260.417 2862.72 259.55L2866.87 264.05C2865.64 265.45 2864.09 266.533 2862.22 267.3C2860.36 268.033 2858.21 268.4 2855.77 268.4ZM2901.48 268.6C2898.61 268.6 2896.04 267.9 2893.78 266.5C2891.51 265.067 2889.73 263 2888.43 260.3C2887.13 257.6 2886.48 254.333 2886.48 250.5C2886.48 246.667 2887.13 243.4 2888.43 240.7C2889.73 238 2891.51 235.95 2893.78 234.55C2896.04 233.117 2898.61 232.4 2901.48 232.4C2904.38 232.4 2906.94 233.117 2909.18 234.55C2911.44 235.95 2913.23 238 2914.53 240.7C2915.83 243.4 2916.48 246.667 2916.48 250.5C2916.48 254.333 2915.83 257.6 2914.53 260.3C2913.23 263 2911.44 265.067 2909.18 266.5C2906.94 267.9 2904.38 268.6 2901.48 268.6ZM2901.48 261.75C2902.84 261.75 2904.03 261.367 2905.03 260.6C2906.06 259.833 2906.86 258.617 2907.43 256.95C2908.03 255.283 2908.33 253.133 2908.33 250.5C2908.33 247.867 2908.03 245.717 2907.43 244.05C2906.86 242.383 2906.06 241.167 2905.03 240.4C2904.03 239.633 2902.84 239.25 2901.48 239.25C2900.14 239.25 2898.96 239.633 2897.93 240.4C2896.93 241.167 2896.13 242.383 2895.53 244.05C2894.96 245.717 2894.68 247.867 2894.68 250.5C2894.68 253.133 2894.96 255.283 2895.53 256.95C2896.13 258.617 2896.93 259.833 2897.93 260.6C2898.96 261.367 2900.14 261.75 2901.48 261.75ZM2920.01 260.65V255.2L2936.51 233H2945.01L2928.86 255.2L2924.91 254.05H2952.46V260.65H2920.01ZM2938.86 268V260.65L2939.11 254.05V247.5H2946.76V268H2938.86Z" fill="white"/>
<path d="M2762.65 968.6C2759.85 968.6 2757.17 968.233 2754.6 967.5C2752.03 966.733 2749.97 965.75 2748.4 964.55L2751.15 958.45C2752.65 959.517 2754.42 960.4 2756.45 961.1C2758.52 961.767 2760.6 962.1 2762.7 962.1C2764.3 962.1 2765.58 961.95 2766.55 961.65C2767.55 961.317 2768.28 960.867 2768.75 960.3C2769.22 959.733 2769.45 959.083 2769.45 958.35C2769.45 957.417 2769.08 956.683 2768.35 956.15C2767.62 955.583 2766.65 955.133 2765.45 954.8C2764.25 954.433 2762.92 954.1 2761.45 953.8C2760.02 953.467 2758.57 953.067 2757.1 952.6C2755.67 952.133 2754.35 951.533 2753.15 950.8C2751.95 950.067 2750.97 949.1 2750.2 947.9C2749.47 946.7 2749.1 945.167 2749.1 943.3C2749.1 941.3 2749.63 939.483 2750.7 937.85C2751.8 936.183 2753.43 934.867 2755.6 933.9C2757.8 932.9 2760.55 932.4 2763.85 932.4C2766.05 932.4 2768.22 932.667 2770.35 933.2C2772.48 933.7 2774.37 934.467 2776 935.5L2773.5 941.65C2771.87 940.717 2770.23 940.033 2768.6 939.6C2766.97 939.133 2765.37 938.9 2763.8 938.9C2762.23 938.9 2760.95 939.083 2759.95 939.45C2758.95 939.817 2758.23 940.3 2757.8 940.9C2757.37 941.467 2757.15 942.133 2757.15 942.9C2757.15 943.8 2757.52 944.533 2758.25 945.1C2758.98 945.633 2759.95 946.067 2761.15 946.4C2762.35 946.733 2763.67 947.067 2765.1 947.4C2766.57 947.733 2768.02 948.117 2769.45 948.55C2770.92 948.983 2772.25 949.567 2773.45 950.3C2774.65 951.033 2775.62 952 2776.35 953.2C2777.12 954.4 2777.5 955.917 2777.5 957.75C2777.5 959.717 2776.95 961.517 2775.85 963.15C2774.75 964.783 2773.1 966.1 2770.9 967.1C2768.73 968.1 2765.98 968.6 2762.65 968.6ZM2798.98 968V962.75L2798.48 961.6V952.2C2798.48 950.533 2797.97 949.233 2796.93 948.3C2795.93 947.367 2794.38 946.9 2792.28 946.9C2790.85 946.9 2789.43 947.133 2788.03 947.6C2786.67 948.033 2785.5 948.633 2784.53 949.4L2781.73 943.95C2783.2 942.917 2784.97 942.117 2787.03 941.55C2789.1 940.983 2791.2 940.7 2793.33 940.7C2797.43 940.7 2800.62 941.667 2802.88 943.6C2805.15 945.533 2806.28 948.55 2806.28 952.65V968H2798.98ZM2790.78 968.4C2788.68 968.4 2786.88 968.05 2785.38 967.35C2783.88 966.617 2782.73 965.633 2781.93 964.4C2781.13 963.167 2780.73 961.783 2780.73 960.25C2780.73 958.65 2781.12 957.25 2781.88 956.05C2782.68 954.85 2783.93 953.917 2785.63 953.25C2787.33 952.55 2789.55 952.2 2792.28 952.2H2799.43V956.75H2793.13C2791.3 956.75 2790.03 957.05 2789.33 957.65C2788.67 958.25 2788.33 959 2788.33 959.9C2788.33 960.9 2788.72 961.7 2789.48 962.3C2790.28 962.867 2791.37 963.15 2792.73 963.15C2794.03 963.15 2795.2 962.85 2796.23 962.25C2797.27 961.617 2798.02 960.7 2798.48 959.5L2799.68 963.1C2799.12 964.833 2798.08 966.15 2796.58 967.05C2795.08 967.95 2793.15 968.4 2790.78 968.4ZM2813.34 968V930.9H2821.14V968H2813.34ZM2828.38 968V930.9H2836.18V968H2828.38ZM2856.77 968.4C2853.71 968.4 2851.01 967.8 2848.67 966.6C2846.37 965.4 2844.59 963.767 2843.32 961.7C2842.06 959.6 2841.42 957.217 2841.42 954.55C2841.42 951.85 2842.04 949.467 2843.27 947.4C2844.54 945.3 2846.26 943.667 2848.42 942.5C2850.59 941.3 2853.04 940.7 2855.77 940.7C2858.41 940.7 2860.77 941.267 2862.87 942.4C2865.01 943.5 2866.69 945.1 2867.92 947.2C2869.16 949.267 2869.77 951.75 2869.77 954.65C2869.77 954.95 2869.76 955.3 2869.72 955.7C2869.69 956.067 2869.66 956.417 2869.62 956.75H2847.77V952.2H2865.52L2862.52 953.55C2862.52 952.15 2862.24 950.933 2861.67 949.9C2861.11 948.867 2860.32 948.067 2859.32 947.5C2858.32 946.9 2857.16 946.6 2855.82 946.6C2854.49 946.6 2853.31 946.9 2852.27 947.5C2851.27 948.067 2850.49 948.883 2849.92 949.95C2849.36 950.983 2849.07 952.217 2849.07 953.65V954.85C2849.07 956.317 2849.39 957.617 2850.02 958.75C2850.69 959.85 2851.61 960.7 2852.77 961.3C2853.97 961.867 2855.37 962.15 2856.97 962.15C2858.41 962.15 2859.66 961.933 2860.72 961.5C2861.82 961.067 2862.82 960.417 2863.72 959.55L2867.87 964.05C2866.64 965.45 2865.09 966.533 2863.22 967.3C2861.36 968.033 2859.21 968.4 2856.77 968.4ZM2902.48 968.6C2899.61 968.6 2897.04 967.9 2894.78 966.5C2892.51 965.067 2890.73 963 2889.43 960.3C2888.13 957.6 2887.48 954.333 2887.48 950.5C2887.48 946.667 2888.13 943.4 2889.43 940.7C2890.73 938 2892.51 935.95 2894.78 934.55C2897.04 933.117 2899.61 932.4 2902.48 932.4C2905.38 932.4 2907.94 933.117 2910.18 934.55C2912.44 935.95 2914.23 938 2915.53 940.7C2916.83 943.4 2917.48 946.667 2917.48 950.5C2917.48 954.333 2916.83 957.6 2915.53 960.3C2914.23 963 2912.44 965.067 2910.18 966.5C2907.94 967.9 2905.38 968.6 2902.48 968.6ZM2902.48 961.75C2903.84 961.75 2905.03 961.367 2906.03 960.6C2907.06 959.833 2907.86 958.617 2908.43 956.95C2909.03 955.283 2909.33 953.133 2909.33 950.5C2909.33 947.867 2909.03 945.717 2908.43 944.05C2907.86 942.383 2907.06 941.167 2906.03 940.4C2905.03 939.633 2903.84 939.25 2902.48 939.25C2901.14 939.25 2899.96 939.633 2898.93 940.4C2897.93 941.167 2897.13 942.383 2896.53 944.05C2895.96 945.717 2895.68 947.867 2895.68 950.5C2895.68 953.133 2895.96 955.283 2896.53 956.95C2897.13 958.617 2897.93 959.833 2898.93 960.6C2899.96 961.367 2901.14 961.75 2902.48 961.75ZM2926.86 968L2940.96 936.1L2943.06 939.6H2924.21L2927.81 935.8V945.3H2920.61V933H2948.66V938.25L2935.66 968H2926.86Z" fill="white"/>
<path d="M763.65 968.6C760.85 968.6 758.167 968.233 755.6 967.5C753.033 966.733 750.967 965.75 749.4 964.55L752.15 958.45C753.65 959.517 755.417 960.4 757.45 961.1C759.517 961.767 761.6 962.1 763.7 962.1C765.3 962.1 766.583 961.95 767.55 961.65C768.55 961.317 769.283 960.867 769.75 960.3C770.217 959.733 770.45 959.083 770.45 958.35C770.45 957.417 770.083 956.683 769.35 956.15C768.617 955.583 767.65 955.133 766.45 954.8C765.25 954.433 763.917 954.1 762.45 953.8C761.017 953.467 759.567 953.067 758.1 952.6C756.667 952.133 755.35 951.533 754.15 950.8C752.95 950.067 751.967 949.1 751.2 947.9C750.467 946.7 750.1 945.167 750.1 943.3C750.1 941.3 750.633 939.483 751.7 937.85C752.8 936.183 754.433 934.867 756.6 933.9C758.8 932.9 761.55 932.4 764.85 932.4C767.05 932.4 769.217 932.667 771.35 933.2C773.483 933.7 775.367 934.467 777 935.5L774.5 941.65C772.867 940.717 771.233 940.033 769.6 939.6C767.967 939.133 766.367 938.9 764.8 938.9C763.233 938.9 761.95 939.083 760.95 939.45C759.95 939.817 759.233 940.3 758.8 940.9C758.367 941.467 758.15 942.133 758.15 942.9C758.15 943.8 758.517 944.533 759.25 945.1C759.983 945.633 760.95 946.067 762.15 946.4C763.35 946.733 764.667 947.067 766.1 947.4C767.567 947.733 769.017 948.117 770.45 948.55C771.917 948.983 773.25 949.567 774.45 950.3C775.65 951.033 776.617 952 777.35 953.2C778.117 954.4 778.5 955.917 778.5 957.75C778.5 959.717 777.95 961.517 776.85 963.15C775.75 964.783 774.1 966.1 771.9 967.1C769.733 968.1 766.983 968.6 763.65 968.6ZM799.985 968V962.75L799.485 961.6V952.2C799.485 950.533 798.968 949.233 797.935 948.3C796.935 947.367 795.385 946.9 793.285 946.9C791.851 946.9 790.435 947.133 789.035 947.6C787.668 948.033 786.501 948.633 785.535 949.4L782.735 943.95C784.201 942.917 785.968 942.117 788.035 941.55C790.101 940.983 792.201 940.7 794.335 940.7C798.435 940.7 801.618 941.667 803.885 943.6C806.151 945.533 807.285 948.55 807.285 952.65V968H799.985ZM791.785 968.4C789.685 968.4 787.885 968.05 786.385 967.35C784.885 966.617 783.735 965.633 782.935 964.4C782.135 963.167 781.735 961.783 781.735 960.25C781.735 958.65 782.118 957.25 782.885 956.05C783.685 954.85 784.935 953.917 786.635 953.25C788.335 952.55 790.551 952.2 793.285 952.2H800.435V956.75H794.135C792.301 956.75 791.035 957.05 790.335 957.65C789.668 958.25 789.335 959 789.335 959.9C789.335 960.9 789.718 961.7 790.485 962.3C791.285 962.867 792.368 963.15 793.735 963.15C795.035 963.15 796.201 962.85 797.235 962.25C798.268 961.617 799.018 960.7 799.485 959.5L800.685 963.1C800.118 964.833 799.085 966.15 797.585 967.05C796.085 967.95 794.151 968.4 791.785 968.4ZM814.344 968V930.9H822.144V968H814.344ZM829.383 968V930.9H837.183V968H829.383ZM857.772 968.4C854.706 968.4 852.006 967.8 849.672 966.6C847.372 965.4 845.589 963.767 844.322 961.7C843.056 959.6 842.422 957.217 842.422 954.55C842.422 951.85 843.039 949.467 844.272 947.4C845.539 945.3 847.256 943.667 849.422 942.5C851.589 941.3 854.039 940.7 856.772 940.7C859.406 940.7 861.772 941.267 863.872 942.4C866.006 943.5 867.689 945.1 868.922 947.2C870.156 949.267 870.772 951.75 870.772 954.65C870.772 954.95 870.756 955.3 870.722 955.7C870.689 956.067 870.656 956.417 870.622 956.75H848.772V952.2H866.522L863.522 953.55C863.522 952.15 863.239 950.933 862.672 949.9C862.106 948.867 861.322 948.067 860.322 947.5C859.322 946.9 858.156 946.6 856.822 946.6C855.489 946.6 854.306 946.9 853.272 947.5C852.272 948.067 851.489 948.883 850.922 949.95C850.356 950.983 850.072 952.217 850.072 953.65V954.85C850.072 956.317 850.389 957.617 851.022 958.75C851.689 959.85 852.606 960.7 853.772 961.3C854.972 961.867 856.372 962.15 857.972 962.15C859.406 962.15 860.656 961.933 861.722 961.5C862.822 961.067 863.822 960.417 864.722 959.55L868.872 964.05C867.639 965.45 866.089 966.533 864.222 967.3C862.356 968.033 860.206 968.4 857.772 968.4ZM903.475 968.6C900.609 968.6 898.042 967.9 895.775 966.5C893.509 965.067 891.725 963 890.425 960.3C889.125 957.6 888.475 954.333 888.475 950.5C888.475 946.667 889.125 943.4 890.425 940.7C891.725 938 893.509 935.95 895.775 934.55C898.042 933.117 900.609 932.4 903.475 932.4C906.375 932.4 908.942 933.117 911.175 934.55C913.442 935.95 915.225 938 916.525 940.7C917.825 943.4 918.475 946.667 918.475 950.5C918.475 954.333 917.825 957.6 916.525 960.3C915.225 963 913.442 965.067 911.175 966.5C908.942 967.9 906.375 968.6 903.475 968.6ZM903.475 961.75C904.842 961.75 906.025 961.367 907.025 960.6C908.059 959.833 908.859 958.617 909.425 956.95C910.025 955.283 910.325 953.133 910.325 950.5C910.325 947.867 910.025 945.717 909.425 944.05C908.859 942.383 908.059 941.167 907.025 940.4C906.025 939.633 904.842 939.25 903.475 939.25C902.142 939.25 900.959 939.633 899.925 940.4C898.925 941.167 898.125 942.383 897.525 944.05C896.959 945.717 896.675 947.867 896.675 950.5C896.675 953.133 896.959 955.283 897.525 956.95C898.125 958.617 898.925 959.833 899.925 960.6C900.959 961.367 902.142 961.75 903.475 961.75ZM938.061 968.6C934.861 968.6 932.078 967.933 929.711 966.6C927.378 965.267 925.578 963.317 924.311 960.75C923.044 958.183 922.411 955.017 922.411 951.25C922.411 947.217 923.161 943.8 924.661 941C926.194 938.2 928.294 936.067 930.961 934.6C933.661 933.133 936.761 932.4 940.261 932.4C942.128 932.4 943.911 932.6 945.611 933C947.311 933.4 948.778 934 950.011 934.8L947.011 940.75C946.044 940.083 945.011 939.633 943.911 939.4C942.811 939.133 941.661 939 940.461 939C937.428 939 935.028 939.917 933.261 941.75C931.494 943.583 930.611 946.3 930.611 949.9C930.611 950.5 930.611 951.167 930.611 951.9C930.644 952.633 930.744 953.367 930.911 954.1L928.661 952C929.294 950.7 930.111 949.617 931.111 948.75C932.111 947.85 933.294 947.183 934.661 946.75C936.061 946.283 937.594 946.05 939.261 946.05C941.528 946.05 943.561 946.5 945.361 947.4C947.161 948.3 948.594 949.567 949.661 951.2C950.761 952.833 951.311 954.75 951.311 956.95C951.311 959.317 950.711 961.383 949.511 963.15C948.344 964.883 946.761 966.233 944.761 967.2C942.794 968.133 940.561 968.6 938.061 968.6ZM937.611 962.55C938.744 962.55 939.744 962.35 940.611 961.95C941.511 961.517 942.211 960.9 942.711 960.1C943.211 959.3 943.461 958.383 943.461 957.35C943.461 955.75 942.911 954.483 941.811 953.55C940.744 952.583 939.311 952.1 937.511 952.1C936.311 952.1 935.261 952.333 934.361 952.8C933.461 953.233 932.744 953.85 932.211 954.65C931.711 955.417 931.461 956.317 931.461 957.35C931.461 958.35 931.711 959.25 932.211 960.05C932.711 960.817 933.411 961.433 934.311 961.9C935.211 962.333 936.311 962.55 937.611 962.55Z" fill="white"/>
<path d="M162.65 968.6C159.85 968.6 157.167 968.233 154.6 967.5C152.033 966.733 149.967 965.75 148.4 964.55L151.15 958.45C152.65 959.517 154.417 960.4 156.45 961.1C158.517 961.767 160.6 962.1 162.7 962.1C164.3 962.1 165.583 961.95 166.55 961.65C167.55 961.317 168.283 960.867 168.75 960.3C169.217 959.733 169.45 959.083 169.45 958.35C169.45 957.417 169.083 956.683 168.35 956.15C167.617 955.583 166.65 955.133 165.45 954.8C164.25 954.433 162.917 954.1 161.45 953.8C160.017 953.467 158.567 953.067 157.1 952.6C155.667 952.133 154.35 951.533 153.15 950.8C151.95 950.067 150.967 949.1 150.2 947.9C149.467 946.7 149.1 945.167 149.1 943.3C149.1 941.3 149.633 939.483 150.7 937.85C151.8 936.183 153.433 934.867 155.6 933.9C157.8 932.9 160.55 932.4 163.85 932.4C166.05 932.4 168.217 932.667 170.35 933.2C172.483 933.7 174.367 934.467 176 935.5L173.5 941.65C171.867 940.717 170.233 940.033 168.6 939.6C166.967 939.133 165.367 938.9 163.8 938.9C162.233 938.9 160.95 939.083 159.95 939.45C158.95 939.817 158.233 940.3 157.8 940.9C157.367 941.467 157.15 942.133 157.15 942.9C157.15 943.8 157.517 944.533 158.25 945.1C158.983 945.633 159.95 946.067 161.15 946.4C162.35 946.733 163.667 947.067 165.1 947.4C166.567 947.733 168.017 948.117 169.45 948.55C170.917 948.983 172.25 949.567 173.45 950.3C174.65 951.033 175.617 952 176.35 953.2C177.117 954.4 177.5 955.917 177.5 957.75C177.5 959.717 176.95 961.517 175.85 963.15C174.75 964.783 173.1 966.1 170.9 967.1C168.733 968.1 165.983 968.6 162.65 968.6ZM198.985 968V962.75L198.485 961.6V952.2C198.485 950.533 197.968 949.233 196.935 948.3C195.935 947.367 194.385 946.9 192.285 946.9C190.851 946.9 189.435 947.133 188.035 947.6C186.668 948.033 185.501 948.633 184.535 949.4L181.735 943.95C183.201 942.917 184.968 942.117 187.035 941.55C189.101 940.983 191.201 940.7 193.335 940.7C197.435 940.7 200.618 941.667 202.885 943.6C205.151 945.533 206.285 948.55 206.285 952.65V968H198.985ZM190.785 968.4C188.685 968.4 186.885 968.05 185.385 967.35C183.885 966.617 182.735 965.633 181.935 964.4C181.135 963.167 180.735 961.783 180.735 960.25C180.735 958.65 181.118 957.25 181.885 956.05C182.685 954.85 183.935 953.917 185.635 953.25C187.335 952.55 189.551 952.2 192.285 952.2H199.435V956.75H193.135C191.301 956.75 190.035 957.05 189.335 957.65C188.668 958.25 188.335 959 188.335 959.9C188.335 960.9 188.718 961.7 189.485 962.3C190.285 962.867 191.368 963.15 192.735 963.15C194.035 963.15 195.201 962.85 196.235 962.25C197.268 961.617 198.018 960.7 198.485 959.5L199.685 963.1C199.118 964.833 198.085 966.15 196.585 967.05C195.085 967.95 193.151 968.4 190.785 968.4ZM213.344 968V930.9H221.144V968H213.344ZM228.383 968V930.9H236.183V968H228.383ZM256.772 968.4C253.706 968.4 251.006 967.8 248.672 966.6C246.372 965.4 244.589 963.767 243.322 961.7C242.056 959.6 241.422 957.217 241.422 954.55C241.422 951.85 242.039 949.467 243.272 947.4C244.539 945.3 246.256 943.667 248.422 942.5C250.589 941.3 253.039 940.7 255.772 940.7C258.406 940.7 260.772 941.267 262.872 942.4C265.006 943.5 266.689 945.1 267.922 947.2C269.156 949.267 269.772 951.75 269.772 954.65C269.772 954.95 269.756 955.3 269.722 955.7C269.689 956.067 269.656 956.417 269.622 956.75H247.772V952.2H265.522L262.522 953.55C262.522 952.15 262.239 950.933 261.672 949.9C261.106 948.867 260.322 948.067 259.322 947.5C258.322 946.9 257.156 946.6 255.822 946.6C254.489 946.6 253.306 946.9 252.272 947.5C251.272 948.067 250.489 948.883 249.922 949.95C249.356 950.983 249.072 952.217 249.072 953.65V954.85C249.072 956.317 249.389 957.617 250.022 958.75C250.689 959.85 251.606 960.7 252.772 961.3C253.972 961.867 255.372 962.15 256.972 962.15C258.406 962.15 259.656 961.933 260.722 961.5C261.822 961.067 262.822 960.417 263.722 959.55L267.872 964.05C266.639 965.45 265.089 966.533 263.222 967.3C261.356 968.033 259.206 968.4 256.772 968.4ZM302.475 968.6C299.609 968.6 297.042 967.9 294.775 966.5C292.509 965.067 290.725 963 289.425 960.3C288.125 957.6 287.475 954.333 287.475 950.5C287.475 946.667 288.125 943.4 289.425 940.7C290.725 938 292.509 935.95 294.775 934.55C297.042 933.117 299.609 932.4 302.475 932.4C305.375 932.4 307.942 933.117 310.175 934.55C312.442 935.95 314.225 938 315.525 940.7C316.825 943.4 317.475 946.667 317.475 950.5C317.475 954.333 316.825 957.6 315.525 960.3C314.225 963 312.442 965.067 310.175 966.5C307.942 967.9 305.375 968.6 302.475 968.6ZM302.475 961.75C303.842 961.75 305.025 961.367 306.025 960.6C307.059 959.833 307.859 958.617 308.425 956.95C309.025 955.283 309.325 953.133 309.325 950.5C309.325 947.867 309.025 945.717 308.425 944.05C307.859 942.383 307.059 941.167 306.025 940.4C305.025 939.633 303.842 939.25 302.475 939.25C301.142 939.25 299.959 939.633 298.925 940.4C297.925 941.167 297.125 942.383 296.525 944.05C295.959 945.717 295.675 947.867 295.675 950.5C295.675 953.133 295.959 955.283 296.525 956.95C297.125 958.617 297.925 959.833 298.925 960.6C299.959 961.367 301.142 961.75 302.475 961.75ZM333.311 968.6C330.878 968.6 328.461 968.283 326.061 967.65C323.694 966.983 321.661 966.05 319.961 964.85L323.161 958.65C324.494 959.617 326.028 960.383 327.761 960.95C329.528 961.517 331.311 961.8 333.111 961.8C335.144 961.8 336.744 961.4 337.911 960.6C339.078 959.8 339.661 958.683 339.661 957.25C339.661 956.35 339.428 955.55 338.961 954.85C338.494 954.15 337.661 953.617 336.461 953.25C335.294 952.883 333.644 952.7 331.511 952.7H322.561L324.361 933H345.711V939.5H327.261L331.461 935.8L330.211 949.85L326.011 946.15H333.411C336.878 946.15 339.661 946.633 341.761 947.6C343.894 948.533 345.444 949.817 346.411 951.45C347.378 953.083 347.861 954.933 347.861 957C347.861 959.067 347.344 960.983 346.311 962.75C345.278 964.483 343.678 965.9 341.511 967C339.378 968.067 336.644 968.6 333.311 968.6Z" fill="white"/>
<path d="M1762.65 1667.6C1759.85 1667.6 1757.17 1667.23 1754.6 1666.5C1752.03 1665.73 1749.97 1664.75 1748.4 1663.55L1751.15 1657.45C1752.65 1658.52 1754.42 1659.4 1756.45 1660.1C1758.52 1660.77 1760.6 1661.1 1762.7 1661.1C1764.3 1661.1 1765.58 1660.95 1766.55 1660.65C1767.55 1660.32 1768.28 1659.87 1768.75 1659.3C1769.22 1658.73 1769.45 1658.08 1769.45 1657.35C1769.45 1656.42 1769.08 1655.68 1768.35 1655.15C1767.62 1654.58 1766.65 1654.13 1765.45 1653.8C1764.25 1653.43 1762.92 1653.1 1761.45 1652.8C1760.02 1652.47 1758.57 1652.07 1757.1 1651.6C1755.67 1651.13 1754.35 1650.53 1753.15 1649.8C1751.95 1649.07 1750.97 1648.1 1750.2 1646.9C1749.47 1645.7 1749.1 1644.17 1749.1 1642.3C1749.1 1640.3 1749.63 1638.48 1750.7 1636.85C1751.8 1635.18 1753.43 1633.87 1755.6 1632.9C1757.8 1631.9 1760.55 1631.4 1763.85 1631.4C1766.05 1631.4 1768.22 1631.67 1770.35 1632.2C1772.48 1632.7 1774.37 1633.47 1776 1634.5L1773.5 1640.65C1771.87 1639.72 1770.23 1639.03 1768.6 1638.6C1766.97 1638.13 1765.37 1637.9 1763.8 1637.9C1762.23 1637.9 1760.95 1638.08 1759.95 1638.45C1758.95 1638.82 1758.23 1639.3 1757.8 1639.9C1757.37 1640.47 1757.15 1641.13 1757.15 1641.9C1757.15 1642.8 1757.52 1643.53 1758.25 1644.1C1758.98 1644.63 1759.95 1645.07 1761.15 1645.4C1762.35 1645.73 1763.67 1646.07 1765.1 1646.4C1766.57 1646.73 1768.02 1647.12 1769.45 1647.55C1770.92 1647.98 1772.25 1648.57 1773.45 1649.3C1774.65 1650.03 1775.62 1651 1776.35 1652.2C1777.12 1653.4 1777.5 1654.92 1777.5 1656.75C1777.5 1658.72 1776.95 1660.52 1775.85 1662.15C1774.75 1663.78 1773.1 1665.1 1770.9 1666.1C1768.73 1667.1 1765.98 1667.6 1762.65 1667.6ZM1798.98 1667V1661.75L1798.48 1660.6V1651.2C1798.48 1649.53 1797.97 1648.23 1796.93 1647.3C1795.93 1646.37 1794.38 1645.9 1792.28 1645.9C1790.85 1645.9 1789.43 1646.13 1788.03 1646.6C1786.67 1647.03 1785.5 1647.63 1784.53 1648.4L1781.73 1642.95C1783.2 1641.92 1784.97 1641.12 1787.03 1640.55C1789.1 1639.98 1791.2 1639.7 1793.33 1639.7C1797.43 1639.7 1800.62 1640.67 1802.88 1642.6C1805.15 1644.53 1806.28 1647.55 1806.28 1651.65V1667H1798.98ZM1790.78 1667.4C1788.68 1667.4 1786.88 1667.05 1785.38 1666.35C1783.88 1665.62 1782.73 1664.63 1781.93 1663.4C1781.13 1662.17 1780.73 1660.78 1780.73 1659.25C1780.73 1657.65 1781.12 1656.25 1781.88 1655.05C1782.68 1653.85 1783.93 1652.92 1785.63 1652.25C1787.33 1651.55 1789.55 1651.2 1792.28 1651.2H1799.43V1655.75H1793.13C1791.3 1655.75 1790.03 1656.05 1789.33 1656.65C1788.67 1657.25 1788.33 1658 1788.33 1658.9C1788.33 1659.9 1788.72 1660.7 1789.48 1661.3C1790.28 1661.87 1791.37 1662.15 1792.73 1662.15C1794.03 1662.15 1795.2 1661.85 1796.23 1661.25C1797.27 1660.62 1798.02 1659.7 1798.48 1658.5L1799.68 1662.1C1799.12 1663.83 1798.08 1665.15 1796.58 1666.05C1795.08 1666.95 1793.15 1667.4 1790.78 1667.4ZM1813.34 1667V1629.9H1821.14V1667H1813.34ZM1828.38 1667V1629.9H1836.18V1667H1828.38ZM1856.77 1667.4C1853.71 1667.4 1851.01 1666.8 1848.67 1665.6C1846.37 1664.4 1844.59 1662.77 1843.32 1660.7C1842.06 1658.6 1841.42 1656.22 1841.42 1653.55C1841.42 1650.85 1842.04 1648.47 1843.27 1646.4C1844.54 1644.3 1846.26 1642.67 1848.42 1641.5C1850.59 1640.3 1853.04 1639.7 1855.77 1639.7C1858.41 1639.7 1860.77 1640.27 1862.87 1641.4C1865.01 1642.5 1866.69 1644.1 1867.92 1646.2C1869.16 1648.27 1869.77 1650.75 1869.77 1653.65C1869.77 1653.95 1869.76 1654.3 1869.72 1654.7C1869.69 1655.07 1869.66 1655.42 1869.62 1655.75H1847.77V1651.2H1865.52L1862.52 1652.55C1862.52 1651.15 1862.24 1649.93 1861.67 1648.9C1861.11 1647.87 1860.32 1647.07 1859.32 1646.5C1858.32 1645.9 1857.16 1645.6 1855.82 1645.6C1854.49 1645.6 1853.31 1645.9 1852.27 1646.5C1851.27 1647.07 1850.49 1647.88 1849.92 1648.95C1849.36 1649.98 1849.07 1651.22 1849.07 1652.65V1653.85C1849.07 1655.32 1849.39 1656.62 1850.02 1657.75C1850.69 1658.85 1851.61 1659.7 1852.77 1660.3C1853.97 1660.87 1855.37 1661.15 1856.97 1661.15C1858.41 1661.15 1859.66 1660.93 1860.72 1660.5C1861.82 1660.07 1862.82 1659.42 1863.72 1658.55L1867.87 1663.05C1866.64 1664.45 1865.09 1665.53 1863.22 1666.3C1861.36 1667.03 1859.21 1667.4 1856.77 1667.4ZM1902.48 1667.6C1899.61 1667.6 1897.04 1666.9 1894.78 1665.5C1892.51 1664.07 1890.73 1662 1889.43 1659.3C1888.13 1656.6 1887.48 1653.33 1887.48 1649.5C1887.48 1645.67 1888.13 1642.4 1889.43 1639.7C1890.73 1637 1892.51 1634.95 1894.78 1633.55C1897.04 1632.12 1899.61 1631.4 1902.48 1631.4C1905.38 1631.4 1907.94 1632.12 1910.18 1633.55C1912.44 1634.95 1914.23 1637 1915.53 1639.7C1916.83 1642.4 1917.48 1645.67 1917.48 1649.5C1917.48 1653.33 1916.83 1656.6 1915.53 1659.3C1914.23 1662 1912.44 1664.07 1910.18 1665.5C1907.94 1666.9 1905.38 1667.6 1902.48 1667.6ZM1902.48 1660.75C1903.84 1660.75 1905.03 1660.37 1906.03 1659.6C1907.06 1658.83 1907.86 1657.62 1908.43 1655.95C1909.03 1654.28 1909.33 1652.13 1909.33 1649.5C1909.33 1646.87 1909.03 1644.72 1908.43 1643.05C1907.86 1641.38 1907.06 1640.17 1906.03 1639.4C1905.03 1638.63 1903.84 1638.25 1902.48 1638.25C1901.14 1638.25 1899.96 1638.63 1898.93 1639.4C1897.93 1640.17 1897.13 1641.38 1896.53 1643.05C1895.96 1644.72 1895.68 1646.87 1895.68 1649.5C1895.68 1652.13 1895.96 1654.28 1896.53 1655.95C1897.13 1657.62 1897.93 1658.83 1898.93 1659.6C1899.96 1660.37 1901.14 1660.75 1902.48 1660.75ZM1933.71 1631.4C1936.94 1631.4 1939.73 1632.07 1942.06 1633.4C1944.39 1634.73 1946.19 1636.68 1947.46 1639.25C1948.73 1641.78 1949.36 1644.95 1949.36 1648.75C1949.36 1652.78 1948.59 1656.2 1947.06 1659C1945.56 1661.8 1943.48 1663.93 1940.81 1665.4C1938.14 1666.87 1935.04 1667.6 1931.51 1667.6C1929.68 1667.6 1927.91 1667.4 1926.21 1667C1924.51 1666.6 1923.04 1666 1921.81 1665.2L1924.81 1659.25C1925.78 1659.92 1926.81 1660.38 1927.91 1660.65C1929.01 1660.88 1930.16 1661 1931.36 1661C1934.36 1661 1936.74 1660.08 1938.51 1658.25C1940.31 1656.42 1941.21 1653.7 1941.21 1650.1C1941.21 1649.5 1941.19 1648.83 1941.16 1648.1C1941.13 1647.37 1941.04 1646.63 1940.91 1645.9L1943.11 1648C1942.54 1649.3 1941.74 1650.4 1940.71 1651.3C1939.68 1652.17 1938.48 1652.83 1937.11 1653.3C1935.74 1653.73 1934.21 1653.95 1932.51 1653.95C1930.28 1653.95 1928.24 1653.5 1926.41 1652.6C1924.61 1651.7 1923.16 1650.43 1922.06 1648.8C1920.99 1647.17 1920.46 1645.25 1920.46 1643.05C1920.46 1640.65 1921.04 1638.58 1922.21 1636.85C1923.41 1635.12 1925.01 1633.78 1927.01 1632.85C1929.04 1631.88 1931.28 1631.4 1933.71 1631.4ZM1934.21 1637.45C1933.04 1637.45 1932.03 1637.67 1931.16 1638.1C1930.29 1638.5 1929.61 1639.1 1929.11 1639.9C1928.61 1640.67 1928.36 1641.58 1928.36 1642.65C1928.36 1644.25 1928.89 1645.53 1929.96 1646.5C1931.06 1647.43 1932.51 1647.9 1934.31 1647.9C1935.48 1647.9 1936.51 1647.68 1937.41 1647.25C1938.34 1646.78 1939.06 1646.15 1939.56 1645.35C1940.06 1644.55 1940.31 1643.65 1940.31 1642.65C1940.31 1641.65 1940.06 1640.77 1939.56 1640C1939.09 1639.2 1938.41 1638.58 1937.51 1638.15C1936.61 1637.68 1935.51 1637.45 1934.21 1637.45Z" fill="white"/>
<path d="M2768.65 1667.6C2765.85 1667.6 2763.17 1667.23 2760.6 1666.5C2758.03 1665.73 2755.97 1664.75 2754.4 1663.55L2757.15 1657.45C2758.65 1658.52 2760.42 1659.4 2762.45 1660.1C2764.52 1660.77 2766.6 1661.1 2768.7 1661.1C2770.3 1661.1 2771.58 1660.95 2772.55 1660.65C2773.55 1660.32 2774.28 1659.87 2774.75 1659.3C2775.22 1658.73 2775.45 1658.08 2775.45 1657.35C2775.45 1656.42 2775.08 1655.68 2774.35 1655.15C2773.62 1654.58 2772.65 1654.13 2771.45 1653.8C2770.25 1653.43 2768.92 1653.1 2767.45 1652.8C2766.02 1652.47 2764.57 1652.07 2763.1 1651.6C2761.67 1651.13 2760.35 1650.53 2759.15 1649.8C2757.95 1649.07 2756.97 1648.1 2756.2 1646.9C2755.47 1645.7 2755.1 1644.17 2755.1 1642.3C2755.1 1640.3 2755.63 1638.48 2756.7 1636.85C2757.8 1635.18 2759.43 1633.87 2761.6 1632.9C2763.8 1631.9 2766.55 1631.4 2769.85 1631.4C2772.05 1631.4 2774.22 1631.67 2776.35 1632.2C2778.48 1632.7 2780.37 1633.47 2782 1634.5L2779.5 1640.65C2777.87 1639.72 2776.23 1639.03 2774.6 1638.6C2772.97 1638.13 2771.37 1637.9 2769.8 1637.9C2768.23 1637.9 2766.95 1638.08 2765.95 1638.45C2764.95 1638.82 2764.23 1639.3 2763.8 1639.9C2763.37 1640.47 2763.15 1641.13 2763.15 1641.9C2763.15 1642.8 2763.52 1643.53 2764.25 1644.1C2764.98 1644.63 2765.95 1645.07 2767.15 1645.4C2768.35 1645.73 2769.67 1646.07 2771.1 1646.4C2772.57 1646.73 2774.02 1647.12 2775.45 1647.55C2776.92 1647.98 2778.25 1648.57 2779.45 1649.3C2780.65 1650.03 2781.62 1651 2782.35 1652.2C2783.12 1653.4 2783.5 1654.92 2783.5 1656.75C2783.5 1658.72 2782.95 1660.52 2781.85 1662.15C2780.75 1663.78 2779.1 1665.1 2776.9 1666.1C2774.73 1667.1 2771.98 1667.6 2768.65 1667.6ZM2804.98 1667V1661.75L2804.48 1660.6V1651.2C2804.48 1649.53 2803.97 1648.23 2802.93 1647.3C2801.93 1646.37 2800.38 1645.9 2798.28 1645.9C2796.85 1645.9 2795.43 1646.13 2794.03 1646.6C2792.67 1647.03 2791.5 1647.63 2790.53 1648.4L2787.73 1642.95C2789.2 1641.92 2790.97 1641.12 2793.03 1640.55C2795.1 1639.98 2797.2 1639.7 2799.33 1639.7C2803.43 1639.7 2806.62 1640.67 2808.88 1642.6C2811.15 1644.53 2812.28 1647.55 2812.28 1651.65V1667H2804.98ZM2796.78 1667.4C2794.68 1667.4 2792.88 1667.05 2791.38 1666.35C2789.88 1665.62 2788.73 1664.63 2787.93 1663.4C2787.13 1662.17 2786.73 1660.78 2786.73 1659.25C2786.73 1657.65 2787.12 1656.25 2787.88 1655.05C2788.68 1653.85 2789.93 1652.92 2791.63 1652.25C2793.33 1651.55 2795.55 1651.2 2798.28 1651.2H2805.43V1655.75H2799.13C2797.3 1655.75 2796.03 1656.05 2795.33 1656.65C2794.67 1657.25 2794.33 1658 2794.33 1658.9C2794.33 1659.9 2794.72 1660.7 2795.48 1661.3C2796.28 1661.87 2797.37 1662.15 2798.73 1662.15C2800.03 1662.15 2801.2 1661.85 2802.23 1661.25C2803.27 1660.62 2804.02 1659.7 2804.48 1658.5L2805.68 1662.1C2805.12 1663.83 2804.08 1665.15 2802.58 1666.05C2801.08 1666.95 2799.15 1667.4 2796.78 1667.4ZM2819.34 1667V1629.9H2827.14V1667H2819.34ZM2834.38 1667V1629.9H2842.18V1667H2834.38ZM2862.77 1667.4C2859.71 1667.4 2857.01 1666.8 2854.67 1665.6C2852.37 1664.4 2850.59 1662.77 2849.32 1660.7C2848.06 1658.6 2847.42 1656.22 2847.42 1653.55C2847.42 1650.85 2848.04 1648.47 2849.27 1646.4C2850.54 1644.3 2852.26 1642.67 2854.42 1641.5C2856.59 1640.3 2859.04 1639.7 2861.77 1639.7C2864.41 1639.7 2866.77 1640.27 2868.87 1641.4C2871.01 1642.5 2872.69 1644.1 2873.92 1646.2C2875.16 1648.27 2875.77 1650.75 2875.77 1653.65C2875.77 1653.95 2875.76 1654.3 2875.72 1654.7C2875.69 1655.07 2875.66 1655.42 2875.62 1655.75H2853.77V1651.2H2871.52L2868.52 1652.55C2868.52 1651.15 2868.24 1649.93 2867.67 1648.9C2867.11 1647.87 2866.32 1647.07 2865.32 1646.5C2864.32 1645.9 2863.16 1645.6 2861.82 1645.6C2860.49 1645.6 2859.31 1645.9 2858.27 1646.5C2857.27 1647.07 2856.49 1647.88 2855.92 1648.95C2855.36 1649.98 2855.07 1651.22 2855.07 1652.65V1653.85C2855.07 1655.32 2855.39 1656.62 2856.02 1657.75C2856.69 1658.85 2857.61 1659.7 2858.77 1660.3C2859.97 1660.87 2861.37 1661.15 2862.97 1661.15C2864.41 1661.15 2865.66 1660.93 2866.72 1660.5C2867.82 1660.07 2868.82 1659.42 2869.72 1658.55L2873.87 1663.05C2872.64 1664.45 2871.09 1665.53 2869.22 1666.3C2867.36 1667.03 2865.21 1667.4 2862.77 1667.4ZM2898.88 1667V1635L2902.38 1638.5H2891.88V1632H2906.98V1667H2898.88ZM2928.06 1667.6C2925.19 1667.6 2922.62 1666.9 2920.36 1665.5C2918.09 1664.07 2916.31 1662 2915.01 1659.3C2913.71 1656.6 2913.06 1653.33 2913.06 1649.5C2913.06 1645.67 2913.71 1642.4 2915.01 1639.7C2916.31 1637 2918.09 1634.95 2920.36 1633.55C2922.62 1632.12 2925.19 1631.4 2928.06 1631.4C2930.96 1631.4 2933.52 1632.12 2935.76 1633.55C2938.02 1634.95 2939.81 1637 2941.11 1639.7C2942.41 1642.4 2943.06 1645.67 2943.06 1649.5C2943.06 1653.33 2942.41 1656.6 2941.11 1659.3C2939.81 1662 2938.02 1664.07 2935.76 1665.5C2933.52 1666.9 2930.96 1667.6 2928.06 1667.6ZM2928.06 1660.75C2929.42 1660.75 2930.61 1660.37 2931.61 1659.6C2932.64 1658.83 2933.44 1657.62 2934.01 1655.95C2934.61 1654.28 2934.91 1652.13 2934.91 1649.5C2934.91 1646.87 2934.61 1644.72 2934.01 1643.05C2933.44 1641.38 2932.64 1640.17 2931.61 1639.4C2930.61 1638.63 2929.42 1638.25 2928.06 1638.25C2926.72 1638.25 2925.54 1638.63 2924.51 1639.4C2923.51 1640.17 2922.71 1641.38 2922.11 1643.05C2921.54 1644.72 2921.26 1646.87 2921.26 1649.5C2921.26 1652.13 2921.54 1654.28 2922.11 1655.95C2922.71 1657.62 2923.51 1658.83 2924.51 1659.6C2925.54 1660.37 2926.72 1660.75 2928.06 1660.75Z" fill="white"/>
<path d="M2259.4 1667V1638.6H2248.2V1632H2278.7V1638.6H2267.5V1667H2259.4ZM2292.57 1667.4C2289.71 1667.4 2287.16 1666.8 2284.92 1665.6C2282.72 1664.4 2280.97 1662.77 2279.67 1660.7C2278.41 1658.6 2277.77 1656.22 2277.77 1653.55C2277.77 1650.85 2278.41 1648.47 2279.67 1646.4C2280.97 1644.3 2282.72 1642.67 2284.92 1641.5C2287.16 1640.3 2289.71 1639.7 2292.57 1639.7C2295.41 1639.7 2297.94 1640.3 2300.17 1641.5C2302.41 1642.67 2304.16 1644.28 2305.42 1646.35C2306.69 1648.42 2307.32 1650.82 2307.32 1653.55C2307.32 1656.22 2306.69 1658.6 2305.42 1660.7C2304.16 1662.77 2302.41 1664.4 2300.17 1665.6C2297.94 1666.8 2295.41 1667.4 2292.57 1667.4ZM2292.57 1661C2293.87 1661 2295.04 1660.7 2296.07 1660.1C2297.11 1659.5 2297.92 1658.65 2298.52 1657.55C2299.12 1656.42 2299.42 1655.08 2299.42 1653.55C2299.42 1651.98 2299.12 1650.65 2298.52 1649.55C2297.92 1648.45 2297.11 1647.6 2296.07 1647C2295.04 1646.4 2293.87 1646.1 2292.57 1646.1C2291.27 1646.1 2290.11 1646.4 2289.07 1647C2288.04 1647.6 2287.21 1648.45 2286.57 1649.55C2285.97 1650.65 2285.67 1651.98 2285.67 1653.55C2285.67 1655.08 2285.97 1656.42 2286.57 1657.55C2287.21 1658.65 2288.04 1659.5 2289.07 1660.1C2290.11 1660.7 2291.27 1661 2292.57 1661ZM2312.54 1667V1640.1H2320.34V1667H2312.54ZM2316.44 1636.35C2315 1636.35 2313.84 1635.93 2312.94 1635.1C2312.04 1634.27 2311.59 1633.23 2311.59 1632C2311.59 1630.77 2312.04 1629.73 2312.94 1628.9C2313.84 1628.07 2315 1627.65 2316.44 1627.65C2317.87 1627.65 2319.04 1628.05 2319.94 1628.85C2320.84 1629.62 2321.29 1630.62 2321.29 1631.85C2321.29 1633.15 2320.84 1634.23 2319.94 1635.1C2319.07 1635.93 2317.9 1636.35 2316.44 1636.35ZM2327.58 1667V1629.9H2335.38V1667H2327.58ZM2342.62 1667V1629.9H2350.42V1667H2342.62ZM2371 1667.4C2367.94 1667.4 2365.24 1666.8 2362.9 1665.6C2360.6 1664.4 2358.82 1662.77 2357.55 1660.7C2356.29 1658.6 2355.65 1656.22 2355.65 1653.55C2355.65 1650.85 2356.27 1648.47 2357.5 1646.4C2358.77 1644.3 2360.49 1642.67 2362.65 1641.5C2364.82 1640.3 2367.27 1639.7 2370 1639.7C2372.64 1639.7 2375 1640.27 2377.1 1641.4C2379.24 1642.5 2380.92 1644.1 2382.15 1646.2C2383.39 1648.27 2384 1650.75 2384 1653.65C2384 1653.95 2383.99 1654.3 2383.95 1654.7C2383.92 1655.07 2383.89 1655.42 2383.85 1655.75H2362V1651.2H2379.75L2376.75 1652.55C2376.75 1651.15 2376.47 1649.93 2375.9 1648.9C2375.34 1647.87 2374.55 1647.07 2373.55 1646.5C2372.55 1645.9 2371.39 1645.6 2370.05 1645.6C2368.72 1645.6 2367.54 1645.9 2366.5 1646.5C2365.5 1647.07 2364.72 1647.88 2364.15 1648.95C2363.59 1649.98 2363.3 1651.22 2363.3 1652.65V1653.85C2363.3 1655.32 2363.62 1656.62 2364.25 1657.75C2364.92 1658.85 2365.84 1659.7 2367 1660.3C2368.2 1660.87 2369.6 1661.15 2371.2 1661.15C2372.64 1661.15 2373.89 1660.93 2374.95 1660.5C2376.05 1660.07 2377.05 1659.42 2377.95 1658.55L2382.1 1663.05C2380.87 1664.45 2379.32 1665.53 2377.45 1666.3C2375.59 1667.03 2373.44 1667.4 2371 1667.4ZM2400.2 1667.4C2397.03 1667.4 2394.56 1666.6 2392.8 1665C2391.03 1663.37 2390.15 1660.95 2390.15 1657.75V1634.15H2397.95V1657.65C2397.95 1658.78 2398.25 1659.67 2398.85 1660.3C2399.45 1660.9 2400.26 1661.2 2401.3 1661.2C2402.53 1661.2 2403.58 1660.87 2404.45 1660.2L2406.55 1665.7C2405.75 1666.27 2404.78 1666.7 2403.65 1667C2402.55 1667.27 2401.4 1667.4 2400.2 1667.4ZM2386 1646.7V1640.7H2404.65V1646.7H2386ZM2423.14 1667V1661.75L2436.64 1649C2437.7 1648.03 2438.49 1647.17 2438.99 1646.4C2439.49 1645.63 2439.82 1644.93 2439.99 1644.3C2440.19 1643.67 2440.29 1643.08 2440.29 1642.55C2440.29 1641.15 2439.8 1640.08 2438.84 1639.35C2437.9 1638.58 2436.52 1638.2 2434.69 1638.2C2433.22 1638.2 2431.85 1638.48 2430.59 1639.05C2429.35 1639.62 2428.3 1640.5 2427.44 1641.7L2421.54 1637.9C2422.87 1635.9 2424.74 1634.32 2427.14 1633.15C2429.54 1631.98 2432.3 1631.4 2435.44 1631.4C2438.04 1631.4 2440.3 1631.83 2442.24 1632.7C2444.2 1633.53 2445.72 1634.72 2446.79 1636.25C2447.89 1637.78 2448.44 1639.62 2448.44 1641.75C2448.44 1642.88 2448.29 1644.02 2447.99 1645.15C2447.72 1646.25 2447.15 1647.42 2446.29 1648.65C2445.45 1649.88 2444.22 1651.27 2442.59 1652.8L2431.39 1663.35L2429.84 1660.4H2449.59V1667H2423.14Z" fill="white"/>
<path d="M662.4 267V238.6H651.2V232H681.7V238.6H670.5V267H662.4ZM695.574 267.4C692.707 267.4 690.157 266.8 687.924 265.6C685.724 264.4 683.974 262.767 682.674 260.7C681.407 258.6 680.774 256.217 680.774 253.55C680.774 250.85 681.407 248.467 682.674 246.4C683.974 244.3 685.724 242.667 687.924 241.5C690.157 240.3 692.707 239.7 695.574 239.7C698.407 239.7 700.94 240.3 703.174 241.5C705.407 242.667 707.157 244.283 708.424 246.35C709.69 248.417 710.324 250.817 710.324 253.55C710.324 256.217 709.69 258.6 708.424 260.7C707.157 262.767 705.407 264.4 703.174 265.6C700.94 266.8 698.407 267.4 695.574 267.4ZM695.574 261C696.874 261 698.04 260.7 699.074 260.1C700.107 259.5 700.924 258.65 701.524 257.55C702.124 256.417 702.424 255.083 702.424 253.55C702.424 251.983 702.124 250.65 701.524 249.55C700.924 248.45 700.107 247.6 699.074 247C698.04 246.4 696.874 246.1 695.574 246.1C694.274 246.1 693.107 246.4 692.074 247C691.04 247.6 690.207 248.45 689.574 249.55C688.974 250.65 688.674 251.983 688.674 253.55C688.674 255.083 688.974 256.417 689.574 257.55C690.207 258.65 691.04 259.5 692.074 260.1C693.107 260.7 694.274 261 695.574 261ZM715.538 267V240.1H723.338V267H715.538ZM719.438 236.35C718.004 236.35 716.838 235.933 715.938 235.1C715.038 234.267 714.588 233.233 714.588 232C714.588 230.767 715.038 229.733 715.938 228.9C716.838 228.067 718.004 227.65 719.438 227.65C720.871 227.65 722.038 228.05 722.938 228.85C723.838 229.617 724.288 230.617 724.288 231.85C724.288 233.15 723.838 234.233 722.938 235.1C722.071 235.933 720.904 236.35 719.438 236.35ZM730.577 267V229.9H738.377V267H730.577ZM745.616 267V229.9H753.416V267H745.616ZM774.005 267.4C770.938 267.4 768.238 266.8 765.905 265.6C763.605 264.4 761.821 262.767 760.555 260.7C759.288 258.6 758.655 256.217 758.655 253.55C758.655 250.85 759.271 248.467 760.505 246.4C761.771 244.3 763.488 242.667 765.655 241.5C767.821 240.3 770.271 239.7 773.005 239.7C775.638 239.7 778.005 240.267 780.105 241.4C782.238 242.5 783.921 244.1 785.155 246.2C786.388 248.267 787.005 250.75 787.005 253.65C787.005 253.95 786.988 254.3 786.955 254.7C786.921 255.067 786.888 255.417 786.855 255.75H765.005V251.2H782.755L779.755 252.55C779.755 251.15 779.471 249.933 778.905 248.9C778.338 247.867 777.555 247.067 776.555 246.5C775.555 245.9 774.388 245.6 773.055 245.6C771.721 245.6 770.538 245.9 769.505 246.5C768.505 247.067 767.721 247.883 767.155 248.95C766.588 249.983 766.305 251.217 766.305 252.65V253.85C766.305 255.317 766.621 256.617 767.255 257.75C767.921 258.85 768.838 259.7 770.005 260.3C771.205 260.867 772.605 261.15 774.205 261.15C775.638 261.15 776.888 260.933 777.955 260.5C779.055 260.067 780.055 259.417 780.955 258.55L785.105 263.05C783.871 264.45 782.321 265.533 780.455 266.3C778.588 267.033 776.438 267.4 774.005 267.4ZM803.198 267.4C800.031 267.4 797.564 266.6 795.798 265C794.031 263.367 793.148 260.95 793.148 257.75V234.15H800.948V257.65C800.948 258.783 801.248 259.667 801.848 260.3C802.448 260.9 803.264 261.2 804.298 261.2C805.531 261.2 806.581 260.867 807.448 260.2L809.548 265.7C808.748 266.267 807.781 266.7 806.648 267C805.548 267.267 804.398 267.4 803.198 267.4ZM788.998 246.7V240.7H807.648V246.7H788.998ZM831.836 267V235L835.336 238.5H824.836V232H839.936V267H831.836Z" fill="white"/>
<defs>
<linearGradient id="paint0_linear_84_23" x1="250" y1="700" x2="250" y2="1200" gradientUnits="userSpaceOnUse">
<stop stop-color="#0F1128"/>
<stop offset="1"/>
</linearGradient>
<linearGradient id="paint1_linear_84_23" x1="250" y1="0" x2="250" y2="500" gradientUnits="userSpaceOnUse">
<stop stop-color="#0F1128"/>
<stop offset="1"/>
</linearGradient>
<linearGradient id="paint2_linear_84_23" x1="850" y1="700" x2="850" y2="1200" gradientUnits="userSpaceOnUse">
<stop stop-color="#0F1128"/>
<stop offset="1"/>
</linearGradient>
<linearGradient id="paint3_linear_84_23" x1="1250" y1="0" x2="1250" y2="500" gradientUnits="userSpaceOnUse">
<stop stop-color="#0F1128"/>
<stop offset="1"/>
</linearGradient>
<linearGradient id="paint4_linear_84_23" x1="2250" y1="0" x2="2250" y2="500" gradientUnits="userSpaceOnUse">
<stop stop-color="#0F1128"/>
<stop offset="1"/>
</linearGradient>
<linearGradient id="paint5_linear_84_23" x1="2850" y1="0" x2="2850" y2="500" gradientUnits="userSpaceOnUse">
<stop stop-color="#0F1128"/>
<stop offset="1"/>
</linearGradient>
<linearGradient id="paint6_linear_84_23" x1="850" y1="700" x2="850" y2="1200" gradientUnits="userSpaceOnUse">
<stop stop-color="#0F1128"/>
<stop offset="1"/>
</linearGradient>
<linearGradient id="paint7_linear_84_23" x1="1050" y1="1400" x2="1050" y2="1900" gradientUnits="userSpaceOnUse">
<stop stop-color="#0F1128"/>
<stop offset="1"/>
</linearGradient>
<linearGradient id="paint8_linear_84_23" x1="2100" y1="700" x2="2100" y2="1200" gradientUnits="userSpaceOnUse">
<stop stop-color="#0F1128"/>
<stop offset="1"/>
</linearGradient>
<linearGradient id="paint9_linear_84_23" x1="750" y1="0" x2="750" y2="500" gradientUnits="userSpaceOnUse">
<stop stop-color="#0F1128"/>
<stop offset="1"/>
</linearGradient>
<linearGradient id="paint10_linear_84_23" x1="2350" y1="1400" x2="2350" y2="1900" gradientUnits="userSpaceOnUse">
<stop stop-color="#0F1128"/>
<stop offset="1"/>
</linearGradient>
<linearGradient id="paint11_linear_84_23" x1="2850" y1="700" x2="2850" y2="1200" gradientUnits="userSpaceOnUse">
<stop stop-color="#0F1128"/>
<stop offset="1"/>
</linearGradient>
<linearGradient id="paint12_linear_84_23" x1="2850" y1="1400" x2="2850" y2="1900" gradientUnits="userSpaceOnUse">
<stop stop-color="#0F1128"/>
<stop offset="1"/>
</linearGradient>
<linearGradient id="paint13_linear_84_23" x1="1850" y1="1400" x2="1850" y2="1900" gradientUnits="userSpaceOnUse">
<stop stop-color="#0F1128"/>
<stop offset="1"/>
</linearGradient>
<linearGradient id="paint14_linear_84_23" x1="250" y1="1400" x2="250" y2="1900" gradientUnits="userSpaceOnUse">
<stop stop-color="#0F1128"/>
<stop offset="1"/>
</linearGradient>
</defs>
</svg>
