<svg width="3100" height="1900" viewBox="0 0 3100 1900" fill="none" xmlns="http://www.w3.org/2000/svg">
<rect width="3100" height="1900" fill="#D9D9D9"/>
<rect x="2.5" y="702.5" width="495" height="495" fill="url(#paint0_linear_83_53)" stroke="#F9D76C" stroke-width="5"/>
<rect x="2.5" y="2.5" width="495" height="495" fill="url(#paint1_linear_83_53)" stroke="#F9D76C" stroke-width="5"/>
<rect x="602.5" y="702.5" width="495" height="495" fill="url(#paint2_linear_83_53)" stroke="#F9D76C" stroke-width="5"/>
<rect x="1002.5" y="2.5" width="495" height="495" fill="url(#paint3_linear_83_53)" stroke="#F9D76C" stroke-width="5"/>
<rect x="2002.5" y="2.5" width="495" height="495" fill="url(#paint4_linear_83_53)" stroke="#F9D76C" stroke-width="5"/>
<rect x="2602.5" y="2.5" width="495" height="495" fill="url(#paint5_linear_83_53)" stroke="#F9D76C" stroke-width="5"/>
<rect x="602.5" y="702.5" width="495" height="495" fill="url(#paint6_linear_83_53)" stroke="#F9D76C" stroke-width="5"/>
<rect x="702.5" y="1402.5" width="795" height="495" fill="url(#paint7_linear_83_53)" stroke="#F9D76C" stroke-width="5"/>
<rect x="1702.5" y="702.5" width="795" height="495" fill="url(#paint8_linear_83_53)" stroke="#F9D76C" stroke-width="5"/>
<rect x="602.5" y="2.5" width="295" height="495" fill="url(#paint9_linear_83_53)" stroke="#F9D76C" stroke-width="5"/>
<path d="M600 0H500V500H600V0Z" fill="#8453FA"/>
<mask id="path-13-inside-1_83_53" fill="white">
<path d="M600 700H500V1200H600V700Z"/>
</mask>
<path d="M600 700H500V1200H600V700Z" fill="#8453FA"/>
<path d="M600 705H500V695H600V705ZM500 1195H600V1205H500V1195Z" fill="#F9D76C" mask="url(#path-13-inside-1_83_53)"/>
<rect x="-2.5" y="2.5" width="95" height="95" transform="matrix(-1 0 0 1 295 400)" fill="#F9D76C" stroke="#F9D76C" stroke-width="5"/>
<rect x="-2.5" y="2.5" width="95" height="95" transform="matrix(-1 0 0 1 295 400)" fill="#F9D76C" stroke="#F9D76C" stroke-width="5"/>
<rect x="-2.5" y="2.5" width="95" height="95" transform="matrix(-1 0 0 1 1295 400)" fill="#F9D76C" stroke="#F9D76C" stroke-width="5"/>
<rect x="-2.5" y="2.5" width="95" height="95" transform="matrix(-1 0 0 1 295 700)" fill="#F9D76C" stroke="#F9D76C" stroke-width="5"/>
<rect x="-2.50362" y="-2.49638" width="95" height="95" transform="matrix(-0.00144795 -0.999999 -0.999999 0.00144795 1095.14 995.004)" fill="#F9D76C" stroke="#F9D76C" stroke-width="5"/>
<rect x="-2.50362" y="-2.49638" width="95" height="95" transform="matrix(-0.00144795 -0.999999 -0.999999 0.00144795 1095.14 995.004)" fill="#F9D76C" stroke="#F9D76C" stroke-width="5"/>
<rect x="-2.50362" y="-2.49638" width="95" height="95" transform="matrix(-0.00144795 -0.999999 -0.999999 0.00144795 1795.14 995.004)" fill="#F9D76C" stroke="#F9D76C" stroke-width="5"/>
<rect x="-2.50362" y="-2.49638" width="95" height="95" transform="matrix(-0.00144795 -0.999999 -0.999999 0.00144795 1145.14 1495)" fill="#F9D76C" stroke="#F9D76C" stroke-width="5"/>
<mask id="path-23-inside-2_83_53" fill="white">
<path d="M1000 0H900V500H1000V0Z"/>
</mask>
<path d="M1000 0H900V500H1000V0Z" fill="#8453FA"/>
<path d="M900 495H1000V505H900V495Z" fill="#F9D76C" mask="url(#path-23-inside-2_83_53)"/>
<mask id="path-25-inside-3_83_53" fill="white">
<path d="M2600 0H2500V500H2600V0Z"/>
</mask>
<path d="M2600 0H2500V500H2600V0Z" fill="#8453FA"/>
<path d="M2500 495H2600V505H2500V495Z" fill="#F9D76C" mask="url(#path-25-inside-3_83_53)"/>
<mask id="path-27-inside-4_83_53" fill="white">
<path d="M2600 700H2500V1200H2600V700Z"/>
</mask>
<path d="M2600 700H2500V1200H2600V700Z" fill="#8453FA"/>
<path d="M2600 705H2500V695H2600V705ZM2500 1195H2600V1205H2500V1195Z" fill="#F9D76C" mask="url(#path-27-inside-4_83_53)"/>
<mask id="path-29-inside-5_83_53" fill="white">
<path d="M2600 1400H2500V1900H2600V1400Z"/>
</mask>
<path d="M2600 1400H2500V1900H2600V1400Z" fill="#8453FA"/>
<path d="M2600 1405H2500V1395H2600V1405Z" fill="#F9D76C" mask="url(#path-29-inside-5_83_53)"/>
<mask id="path-31-inside-6_83_53" fill="white">
<path d="M2200 1400H2100V1900H2200V1400Z"/>
</mask>
<path d="M2200 1400H2100V1900H2200V1400Z" fill="#8453FA"/>
<path d="M2200 1405H2100V1395H2200V1405Z" fill="#F9D76C" mask="url(#path-31-inside-6_83_53)"/>
<mask id="path-33-inside-7_83_53" fill="white">
<path d="M1600 1400H1500V1900H1600V1400Z"/>
</mask>
<path d="M1600 1400H1500V1900H1600V1400Z" fill="#8453FA"/>
<path d="M1600 1405H1500V1395H1600V1405Z" fill="#F9D76C" mask="url(#path-33-inside-7_83_53)"/>
<mask id="path-35-inside-8_83_53" fill="white">
<path d="M700 1400H600V1900H700V1400Z"/>
</mask>
<path d="M700 1400H600V1900H700V1400Z" fill="#8453FA"/>
<path d="M700 1405H600V1395H700V1405Z" fill="#F9D76C" mask="url(#path-35-inside-8_83_53)"/>
<mask id="path-37-inside-9_83_53" fill="white">
<path d="M600 1400H500V1900H600V1400Z"/>
</mask>
<path d="M600 1400H500V1900H600V1400Z" fill="#8453FA"/>
<path d="M600 1405H500V1395H600V1405Z" fill="#F9D76C" mask="url(#path-37-inside-9_83_53)"/>
<rect x="2202.5" y="1402.5" width="295" height="495" fill="url(#paint10_linear_83_53)" stroke="#F9D76C" stroke-width="5"/>
<rect x="2602.5" y="702.5" width="495" height="495" fill="url(#paint11_linear_83_53)" stroke="#F9D76C" stroke-width="5"/>
<rect x="2602.5" y="1402.5" width="495" height="495" fill="url(#paint12_linear_83_53)" stroke="#F9D76C" stroke-width="5"/>
<rect x="1602.5" y="1402.5" width="495" height="495" fill="url(#paint13_linear_83_53)" stroke="#F9D76C" stroke-width="5"/>
<rect x="2.5" y="1402.5" width="495" height="495" fill="url(#paint14_linear_83_53)" stroke="#F9D76C" stroke-width="5"/>
<rect x="-2.50362" y="-2.49638" width="95" height="95" transform="matrix(-0.00144795 -0.999999 -0.999999 0.00144795 295.141 1495)" fill="#F9D76C" stroke="#F9D76C" stroke-width="5"/>
<rect x="-2.50362" y="-2.49638" width="95" height="95" transform="matrix(-0.00144795 -0.999999 -0.999999 0.00144795 1895.14 1495)" fill="#F9D76C" stroke="#F9D76C" stroke-width="5"/>
<rect x="-2.50362" y="-2.49638" width="95" height="95" transform="matrix(-0.00144795 -0.999999 -0.999999 0.00144795 2395.14 1495)" fill="#F9D76C" stroke="#F9D76C" stroke-width="5"/>
<rect x="-2.50362" y="-2.49638" width="95" height="95" transform="matrix(-0.00144795 -0.999999 -0.999999 0.00144795 2895.14 1495)" fill="#F9D76C" stroke="#F9D76C" stroke-width="5"/>
<rect x="-2.50362" y="-2.49638" width="95" height="95" transform="matrix(-0.00144795 -0.999999 -0.999999 0.00144795 2895.14 795.004)" fill="#F9D76C" stroke="#F9D76C" stroke-width="5"/>
<rect x="-2.50362" y="-2.49638" width="95" height="95" transform="matrix(-0.00144795 -0.999999 -0.999999 0.00144795 2895.14 488.004)" fill="#F9D76C" stroke="#F9D76C" stroke-width="5"/>
<rect x="-2.50362" y="-2.49638" width="95" height="95" transform="matrix(-0.00144795 -0.999999 -0.999999 0.00144795 2295.14 488.004)" fill="#F9D76C" stroke="#F9D76C" stroke-width="5"/>
<rect x="-2.50362" y="-2.49638" width="95" height="95" transform="matrix(-0.00144795 -0.999999 -0.999999 0.00144795 795.141 488.004)" fill="#F9D76C" stroke="#F9D76C" stroke-width="5"/>
<defs>
<linearGradient id="paint0_linear_83_53" x1="250" y1="700" x2="250" y2="1200" gradientUnits="userSpaceOnUse">
<stop stop-color="#0F1128"/>
<stop offset="1"/>
</linearGradient>
<linearGradient id="paint1_linear_83_53" x1="250" y1="0" x2="250" y2="500" gradientUnits="userSpaceOnUse">
<stop stop-color="#0F1128"/>
<stop offset="1"/>
</linearGradient>
<linearGradient id="paint2_linear_83_53" x1="850" y1="700" x2="850" y2="1200" gradientUnits="userSpaceOnUse">
<stop stop-color="#0F1128"/>
<stop offset="1"/>
</linearGradient>
<linearGradient id="paint3_linear_83_53" x1="1250" y1="0" x2="1250" y2="500" gradientUnits="userSpaceOnUse">
<stop stop-color="#0F1128"/>
<stop offset="1"/>
</linearGradient>
<linearGradient id="paint4_linear_83_53" x1="2250" y1="0" x2="2250" y2="500" gradientUnits="userSpaceOnUse">
<stop stop-color="#0F1128"/>
<stop offset="1"/>
</linearGradient>
<linearGradient id="paint5_linear_83_53" x1="2850" y1="0" x2="2850" y2="500" gradientUnits="userSpaceOnUse">
<stop stop-color="#0F1128"/>
<stop offset="1"/>
</linearGradient>
<linearGradient id="paint6_linear_83_53" x1="850" y1="700" x2="850" y2="1200" gradientUnits="userSpaceOnUse">
<stop stop-color="#0F1128"/>
<stop offset="1"/>
</linearGradient>
<linearGradient id="paint7_linear_83_53" x1="1100" y1="1400" x2="1100" y2="1900" gradientUnits="userSpaceOnUse">
<stop stop-color="#0F1128"/>
<stop offset="1"/>
</linearGradient>
<linearGradient id="paint8_linear_83_53" x1="2100" y1="700" x2="2100" y2="1200" gradientUnits="userSpaceOnUse">
<stop stop-color="#0F1128"/>
<stop offset="1"/>
</linearGradient>
<linearGradient id="paint9_linear_83_53" x1="750" y1="0" x2="750" y2="500" gradientUnits="userSpaceOnUse">
<stop stop-color="#0F1128"/>
<stop offset="1"/>
</linearGradient>
<linearGradient id="paint10_linear_83_53" x1="2350" y1="1400" x2="2350" y2="1900" gradientUnits="userSpaceOnUse">
<stop stop-color="#0F1128"/>
<stop offset="1"/>
</linearGradient>
<linearGradient id="paint11_linear_83_53" x1="2850" y1="700" x2="2850" y2="1200" gradientUnits="userSpaceOnUse">
<stop stop-color="#0F1128"/>
<stop offset="1"/>
</linearGradient>
<linearGradient id="paint12_linear_83_53" x1="2850" y1="1400" x2="2850" y2="1900" gradientUnits="userSpaceOnUse">
<stop stop-color="#0F1128"/>
<stop offset="1"/>
</linearGradient>
<linearGradient id="paint13_linear_83_53" x1="1850" y1="1400" x2="1850" y2="1900" gradientUnits="userSpaceOnUse">
<stop stop-color="#0F1128"/>
<stop offset="1"/>
</linearGradient>
<linearGradient id="paint14_linear_83_53" x1="250" y1="1400" x2="250" y2="1900" gradientUnits="userSpaceOnUse">
<stop stop-color="#0F1128"/>
<stop offset="1"/>
</linearGradient>
</defs>
</svg>
